<?xml version="1.0" encoding="UTF-8"?>
<!DOCTYPE svg PUBLIC "-//W3C//DTD SVG 1.1//EN" "http://www.w3.org/Graphics/SVG/1.1/DTD/svg11.dtd">
<svg width="250mm" height="141mm" viewBox="0 0 25000 14100" version="1.1" xmlns="http://www.w3.org/2000/svg" stroke-width="28.222" stroke-linejoin="round" xml:space="preserve">
 <path fill="none" stroke="rgb(179,179,179)" stroke-linejoin="round" d="M 12764,13132 L 1307,13132 1307,480 24221,480 24221,13132 12764,13132 Z"/>
 <path fill="none" stroke="rgb(179,179,179)" stroke-linejoin="round" d="M 1307,13281 L 1307,13131"/>
 <path fill="none" stroke="rgb(179,179,179)" stroke-linejoin="round" d="M 1307,13281 L 1307,13131"/>
 <path fill="none" stroke="rgb(179,179,179)" stroke-linejoin="round" d="M 5126,13281 L 5126,13131"/>
 <path fill="none" stroke="rgb(179,179,179)" stroke-linejoin="round" d="M 5126,13281 L 5126,13131"/>
 <path fill="none" stroke="rgb(179,179,179)" stroke-linejoin="round" d="M 8945,13281 L 8945,13131"/>
 <path fill="none" stroke="rgb(179,179,179)" stroke-linejoin="round" d="M 8945,13281 L 8945,13131"/>
 <path fill="none" stroke="rgb(179,179,179)" stroke-linejoin="round" d="M 12763,13281 L 12763,13131"/>
 <path fill="none" stroke="rgb(179,179,179)" stroke-linejoin="round" d="M 12763,13281 L 12763,13131"/>
 <path fill="none" stroke="rgb(179,179,179)" stroke-linejoin="round" d="M 16582,13281 L 16582,13131"/>
 <path fill="none" stroke="rgb(179,179,179)" stroke-linejoin="round" d="M 16582,13281 L 16582,13131"/>
 <path fill="none" stroke="rgb(179,179,179)" stroke-linejoin="round" d="M 20401,13281 L 20401,13131"/>
 <path fill="none" stroke="rgb(179,179,179)" stroke-linejoin="round" d="M 20401,13281 L 20401,13131"/>
 <path fill="none" stroke="rgb(179,179,179)" stroke-linejoin="round" d="M 24221,13281 L 24221,13131"/>
 <path fill="none" stroke="rgb(179,179,179)" stroke-linejoin="round" d="M 24221,13281 L 24221,13131"/>
 <path fill="none" stroke="rgb(179,179,179)" stroke-linejoin="round" d="M 1307,13131 L 24221,13131"/>
 <path fill="none" stroke="rgb(179,179,179)" stroke-linejoin="round" d="M 1157,13131 L 1307,13131"/>
 <path fill="none" stroke="rgb(179,179,179)" stroke-linejoin="round" d="M 1157,13131 L 1307,13131"/>
 <path fill="none" stroke="rgb(179,179,179)" stroke-linejoin="round" d="M 1157,11323 L 1307,11323"/>
 <path fill="none" stroke="rgb(179,179,179)" stroke-linejoin="round" d="M 1157,11323 L 1307,11323"/>
 <path fill="none" stroke="rgb(179,179,179)" stroke-linejoin="round" d="M 1157,9515 L 1307,9515"/>
 <path fill="none" stroke="rgb(179,179,179)" stroke-linejoin="round" d="M 1157,9515 L 1307,9515"/>
 <path fill="none" stroke="rgb(179,179,179)" stroke-linejoin="round" d="M 1157,7708 L 1307,7708"/>
 <path fill="none" stroke="rgb(179,179,179)" stroke-linejoin="round" d="M 1157,7708 L 1307,7708"/>
 <path fill="none" stroke="rgb(179,179,179)" stroke-linejoin="round" d="M 1157,5901 L 1307,5901"/>
 <path fill="none" stroke="rgb(179,179,179)" stroke-linejoin="round" d="M 1157,5901 L 1307,5901"/>
 <path fill="none" stroke="rgb(179,179,179)" stroke-linejoin="round" d="M 1157,4094 L 1307,4094"/>
 <path fill="none" stroke="rgb(179,179,179)" stroke-linejoin="round" d="M 1157,4094 L 1307,4094"/>
 <path fill="none" stroke="rgb(179,179,179)" stroke-linejoin="round" d="M 1157,2286 L 1307,2286"/>
 <path fill="none" stroke="rgb(179,179,179)" stroke-linejoin="round" d="M 1157,2286 L 1307,2286"/>
 <path fill="none" stroke="rgb(179,179,179)" stroke-linejoin="round" d="M 1157,478 L 1307,478"/>
 <path fill="none" stroke="rgb(179,179,179)" stroke-linejoin="round" d="M 1157,478 L 1307,478"/>
 <path fill="none" stroke="rgb(179,179,179)" stroke-linejoin="round" d="M 1307,13131 L 1307,478"/>
 <path fill="rgb(255,255,255)" stroke="none" d="M 1372,9340 L 1372,9590 1622,9590 1622,9340 1372,9340 Z"/>
 <path fill="none" stroke="rgb(255,255,255)" stroke-linejoin="round" d="M 1372,9340 L 1372,9590 1622,9590 1622,9340 1372,9340 Z"/>
 <path fill="rgb(255,255,255)" stroke="none" d="M 1563,9217 L 1563,9467 1813,9467 1813,9217 1563,9217 Z"/>
 <path fill="none" stroke="rgb(255,255,255)" stroke-linejoin="round" d="M 1563,9217 L 1563,9467 1813,9467 1813,9217 1563,9217 Z"/>
 <path fill="rgb(255,255,255)" stroke="none" d="M 1754,9298 L 1754,9548 2004,9548 2004,9298 1754,9298 Z"/>
 <path fill="none" stroke="rgb(255,255,255)" stroke-linejoin="round" d="M 1754,9298 L 1754,9548 2004,9548 2004,9298 1754,9298 Z"/>
 <path fill="rgb(255,255,255)" stroke="none" d="M 1945,9267 L 1945,9517 2195,9517 2195,9267 1945,9267 Z"/>
 <path fill="none" stroke="rgb(255,255,255)" stroke-linejoin="round" d="M 1945,9267 L 1945,9517 2195,9517 2195,9267 1945,9267 Z"/>
 <path fill="rgb(255,255,255)" stroke="none" d="M 2136,9255 L 2136,9505 2386,9505 2386,9255 2136,9255 Z"/>
 <path fill="none" stroke="rgb(255,255,255)" stroke-linejoin="round" d="M 2136,9255 L 2136,9505 2386,9505 2386,9255 2136,9255 Z"/>
 <path fill="rgb(255,255,255)" stroke="none" d="M 2327,9356 L 2327,9606 2577,9606 2577,9356 2327,9356 Z"/>
 <path fill="none" stroke="rgb(255,255,255)" stroke-linejoin="round" d="M 2327,9356 L 2327,9606 2577,9606 2577,9356 2327,9356 Z"/>
 <path fill="rgb(255,255,255)" stroke="none" d="M 2518,9332 L 2518,9582 2768,9582 2768,9332 2518,9332 Z"/>
 <path fill="none" stroke="rgb(255,255,255)" stroke-linejoin="round" d="M 2518,9332 L 2518,9582 2768,9582 2768,9332 2518,9332 Z"/>
 <path fill="rgb(255,255,255)" stroke="none" d="M 2709,5053 L 2709,5303 2959,5303 2959,5053 2709,5053 Z"/>
 <path fill="none" stroke="rgb(255,255,255)" stroke-linejoin="round" d="M 2709,5053 L 2709,5303 2959,5303 2959,5053 2709,5053 Z"/>
 <path fill="rgb(255,255,255)" stroke="none" d="M 2900,9352 L 2900,9602 3150,9602 3150,9352 2900,9352 Z"/>
 <path fill="none" stroke="rgb(255,255,255)" stroke-linejoin="round" d="M 2900,9352 L 2900,9602 3150,9602 3150,9352 2900,9352 Z"/>
 <path fill="rgb(255,255,255)" stroke="none" d="M 3091,9295 L 3091,9545 3341,9545 3341,9295 3091,9295 Z"/>
 <path fill="none" stroke="rgb(255,255,255)" stroke-linejoin="round" d="M 3091,9295 L 3091,9545 3341,9545 3341,9295 3091,9295 Z"/>
 <path fill="rgb(255,255,255)" stroke="none" d="M 3282,9225 L 3282,9475 3532,9475 3532,9225 3282,9225 Z"/>
 <path fill="none" stroke="rgb(255,255,255)" stroke-linejoin="round" d="M 3282,9225 L 3282,9475 3532,9475 3532,9225 3282,9225 Z"/>
 <path fill="rgb(255,255,255)" stroke="none" d="M 3473,9311 L 3473,9561 3723,9561 3723,9311 3473,9311 Z"/>
 <path fill="none" stroke="rgb(255,255,255)" stroke-linejoin="round" d="M 3473,9311 L 3473,9561 3723,9561 3723,9311 3473,9311 Z"/>
 <path fill="rgb(255,255,255)" stroke="none" d="M 3664,9322 L 3664,9572 3914,9572 3914,9322 3664,9322 Z"/>
 <path fill="none" stroke="rgb(255,255,255)" stroke-linejoin="round" d="M 3664,9322 L 3664,9572 3914,9572 3914,9322 3664,9322 Z"/>
 <path fill="rgb(255,255,255)" stroke="none" d="M 3855,9350 L 3855,9600 4105,9600 4105,9350 3855,9350 Z"/>
 <path fill="none" stroke="rgb(255,255,255)" stroke-linejoin="round" d="M 3855,9350 L 3855,9600 4105,9600 4105,9350 3855,9350 Z"/>
 <path fill="rgb(255,255,255)" stroke="none" d="M 4046,9236 L 4046,9486 4296,9486 4296,9236 4046,9236 Z"/>
 <path fill="none" stroke="rgb(255,255,255)" stroke-linejoin="round" d="M 4046,9236 L 4046,9486 4296,9486 4296,9236 4046,9236 Z"/>
 <path fill="rgb(255,255,255)" stroke="none" d="M 4237,9348 L 4237,9598 4487,9598 4487,9348 4237,9348 Z"/>
 <path fill="none" stroke="rgb(255,255,255)" stroke-linejoin="round" d="M 4237,9348 L 4237,9598 4487,9598 4487,9348 4237,9348 Z"/>
 <path fill="rgb(255,255,255)" stroke="none" d="M 4428,9232 L 4428,9482 4678,9482 4678,9232 4428,9232 Z"/>
 <path fill="none" stroke="rgb(255,255,255)" stroke-linejoin="round" d="M 4428,9232 L 4428,9482 4678,9482 4678,9232 4428,9232 Z"/>
 <path fill="rgb(255,255,255)" stroke="none" d="M 4619,9272 L 4619,9522 4869,9522 4869,9272 4619,9272 Z"/>
 <path fill="none" stroke="rgb(255,255,255)" stroke-linejoin="round" d="M 4619,9272 L 4619,9522 4869,9522 4869,9272 4619,9272 Z"/>
 <path fill="rgb(255,255,255)" stroke="none" d="M 4810,9299 L 4810,9549 5060,9549 5060,9299 4810,9299 Z"/>
 <path fill="none" stroke="rgb(255,255,255)" stroke-linejoin="round" d="M 4810,9299 L 4810,9549 5060,9549 5060,9299 4810,9299 Z"/>
 <path fill="rgb(255,255,255)" stroke="none" d="M 5001,7221 L 5001,7471 5251,7471 5251,7221 5001,7221 Z"/>
 <path fill="none" stroke="rgb(255,255,255)" stroke-linejoin="round" d="M 5001,7221 L 5001,7471 5251,7471 5251,7221 5001,7221 Z"/>
 <path fill="rgb(255,255,255)" stroke="none" d="M 5192,9253 L 5192,9503 5442,9503 5442,9253 5192,9253 Z"/>
 <path fill="none" stroke="rgb(255,255,255)" stroke-linejoin="round" d="M 5192,9253 L 5192,9503 5442,9503 5442,9253 5192,9253 Z"/>
 <path fill="rgb(255,255,255)" stroke="none" d="M 5383,9353 L 5383,9603 5633,9603 5633,9353 5383,9353 Z"/>
 <path fill="none" stroke="rgb(255,255,255)" stroke-linejoin="round" d="M 5383,9353 L 5383,9603 5633,9603 5633,9353 5383,9353 Z"/>
 <path fill="rgb(255,255,255)" stroke="none" d="M 5574,9382 L 5574,9632 5824,9632 5824,9382 5574,9382 Z"/>
 <path fill="none" stroke="rgb(255,255,255)" stroke-linejoin="round" d="M 5574,9382 L 5574,9632 5824,9632 5824,9382 5574,9382 Z"/>
 <path fill="rgb(255,255,255)" stroke="none" d="M 5765,9323 L 5765,9573 6015,9573 6015,9323 5765,9323 Z"/>
 <path fill="none" stroke="rgb(255,255,255)" stroke-linejoin="round" d="M 5765,9323 L 5765,9573 6015,9573 6015,9323 5765,9323 Z"/>
 <path fill="rgb(255,255,255)" stroke="none" d="M 5955,9376 L 5955,9626 6205,9626 6205,9376 5955,9376 Z"/>
 <path fill="none" stroke="rgb(255,255,255)" stroke-linejoin="round" d="M 5955,9376 L 5955,9626 6205,9626 6205,9376 5955,9376 Z"/>
 <path fill="rgb(255,255,255)" stroke="none" d="M 6146,9351 L 6146,9601 6396,9601 6396,9351 6146,9351 Z"/>
 <path fill="none" stroke="rgb(255,255,255)" stroke-linejoin="round" d="M 6146,9351 L 6146,9601 6396,9601 6396,9351 6146,9351 Z"/>
 <path fill="rgb(255,255,255)" stroke="none" d="M 6337,9348 L 6337,9598 6587,9598 6587,9348 6337,9348 Z"/>
 <path fill="none" stroke="rgb(255,255,255)" stroke-linejoin="round" d="M 6337,9348 L 6337,9598 6587,9598 6587,9348 6337,9348 Z"/>
 <path fill="rgb(255,255,255)" stroke="none" d="M 6528,9259 L 6528,9509 6778,9509 6778,9259 6528,9259 Z"/>
 <path fill="none" stroke="rgb(255,255,255)" stroke-linejoin="round" d="M 6528,9259 L 6528,9509 6778,9509 6778,9259 6528,9259 Z"/>
 <path fill="rgb(255,255,255)" stroke="none" d="M 6719,9385 L 6719,9635 6969,9635 6969,9385 6719,9385 Z"/>
 <path fill="none" stroke="rgb(255,255,255)" stroke-linejoin="round" d="M 6719,9385 L 6719,9635 6969,9635 6969,9385 6719,9385 Z"/>
 <path fill="rgb(255,255,255)" stroke="none" d="M 6910,9230 L 6910,9480 7160,9480 7160,9230 6910,9230 Z"/>
 <path fill="none" stroke="rgb(255,255,255)" stroke-linejoin="round" d="M 6910,9230 L 6910,9480 7160,9480 7160,9230 6910,9230 Z"/>
 <path fill="rgb(255,255,255)" stroke="none" d="M 7101,9226 L 7101,9476 7351,9476 7351,9226 7101,9226 Z"/>
 <path fill="none" stroke="rgb(255,255,255)" stroke-linejoin="round" d="M 7101,9226 L 7101,9476 7351,9476 7351,9226 7101,9226 Z"/>
 <path fill="rgb(255,255,255)" stroke="none" d="M 7292,9276 L 7292,9526 7542,9526 7542,9276 7292,9276 Z"/>
 <path fill="none" stroke="rgb(255,255,255)" stroke-linejoin="round" d="M 7292,9276 L 7292,9526 7542,9526 7542,9276 7292,9276 Z"/>
 <path fill="rgb(255,255,255)" stroke="none" d="M 7483,9246 L 7483,9496 7733,9496 7733,9246 7483,9246 Z"/>
 <path fill="none" stroke="rgb(255,255,255)" stroke-linejoin="round" d="M 7483,9246 L 7483,9496 7733,9496 7733,9246 7483,9246 Z"/>
 <path fill="rgb(255,255,255)" stroke="none" d="M 7674,9251 L 7674,9501 7924,9501 7924,9251 7674,9251 Z"/>
 <path fill="none" stroke="rgb(255,255,255)" stroke-linejoin="round" d="M 7674,9251 L 7674,9501 7924,9501 7924,9251 7674,9251 Z"/>
 <path fill="rgb(255,255,255)" stroke="none" d="M 7865,9373 L 7865,9623 8115,9623 8115,9373 7865,9373 Z"/>
 <path fill="none" stroke="rgb(255,255,255)" stroke-linejoin="round" d="M 7865,9373 L 7865,9623 8115,9623 8115,9373 7865,9373 Z"/>
 <path fill="rgb(255,255,255)" stroke="none" d="M 8056,9353 L 8056,9603 8306,9603 8306,9353 8056,9353 Z"/>
 <path fill="none" stroke="rgb(255,255,255)" stroke-linejoin="round" d="M 8056,9353 L 8056,9603 8306,9603 8306,9353 8056,9353 Z"/>
 <path fill="rgb(255,255,255)" stroke="none" d="M 8247,8996 L 8247,9246 8497,9246 8497,8996 8247,8996 Z"/>
 <path fill="none" stroke="rgb(255,255,255)" stroke-linejoin="round" d="M 8247,8996 L 8247,9246 8497,9246 8497,8996 8247,8996 Z"/>
 <path fill="rgb(255,255,255)" stroke="none" d="M 8438,9213 L 8438,9463 8688,9463 8688,9213 8438,9213 Z"/>
 <path fill="none" stroke="rgb(255,255,255)" stroke-linejoin="round" d="M 8438,9213 L 8438,9463 8688,9463 8688,9213 8438,9213 Z"/>
 <path fill="rgb(255,255,255)" stroke="none" d="M 8629,9346 L 8629,9596 8879,9596 8879,9346 8629,9346 Z"/>
 <path fill="none" stroke="rgb(255,255,255)" stroke-linejoin="round" d="M 8629,9346 L 8629,9596 8879,9596 8879,9346 8629,9346 Z"/>
 <path fill="rgb(255,255,255)" stroke="none" d="M 8820,9390 L 8820,9640 9070,9640 9070,9390 8820,9390 Z"/>
 <path fill="none" stroke="rgb(255,255,255)" stroke-linejoin="round" d="M 8820,9390 L 8820,9640 9070,9640 9070,9390 8820,9390 Z"/>
 <path fill="rgb(255,255,255)" stroke="none" d="M 9011,9346 L 9011,9596 9261,9596 9261,9346 9011,9346 Z"/>
 <path fill="none" stroke="rgb(255,255,255)" stroke-linejoin="round" d="M 9011,9346 L 9011,9596 9261,9596 9261,9346 9011,9346 Z"/>
 <path fill="rgb(255,255,255)" stroke="none" d="M 9202,9213 L 9202,9463 9452,9463 9452,9213 9202,9213 Z"/>
 <path fill="none" stroke="rgb(255,255,255)" stroke-linejoin="round" d="M 9202,9213 L 9202,9463 9452,9463 9452,9213 9202,9213 Z"/>
 <path fill="rgb(255,255,255)" stroke="none" d="M 9393,8996 L 9393,9246 9643,9246 9643,8996 9393,8996 Z"/>
 <path fill="none" stroke="rgb(255,255,255)" stroke-linejoin="round" d="M 9393,8996 L 9393,9246 9643,9246 9643,8996 9393,8996 Z"/>
 <path fill="rgb(255,255,255)" stroke="none" d="M 9584,8700 L 9584,8950 9834,8950 9834,8700 9584,8700 Z"/>
 <path fill="none" stroke="rgb(255,255,255)" stroke-linejoin="round" d="M 9584,8700 L 9584,8950 9834,8950 9834,8700 9584,8700 Z"/>
 <path fill="rgb(255,255,255)" stroke="none" d="M 9775,8332 L 9775,8582 10025,8582 10025,8332 9775,8332 Z"/>
 <path fill="none" stroke="rgb(255,255,255)" stroke-linejoin="round" d="M 9775,8332 L 9775,8582 10025,8582 10025,8332 9775,8332 Z"/>
 <path fill="rgb(255,255,255)" stroke="none" d="M 9966,7900 L 9966,8150 10216,8150 10216,7900 9966,7900 Z"/>
 <path fill="none" stroke="rgb(255,255,255)" stroke-linejoin="round" d="M 9966,7900 L 9966,8150 10216,8150 10216,7900 9966,7900 Z"/>
 <path fill="rgb(255,255,255)" stroke="none" d="M 10157,7416 L 10157,7666 10407,7666 10407,7416 10157,7416 Z"/>
 <path fill="none" stroke="rgb(255,255,255)" stroke-linejoin="round" d="M 10157,7416 L 10157,7666 10407,7666 10407,7416 10157,7416 Z"/>
 <path fill="rgb(255,255,255)" stroke="none" d="M 10348,6893 L 10348,7142 10598,7142 10598,6893 10348,6893 Z"/>
 <path fill="none" stroke="rgb(255,255,255)" stroke-linejoin="round" d="M 10348,6893 L 10348,7142 10598,7142 10598,6893 10348,6893 Z"/>
 <path fill="rgb(255,255,255)" stroke="none" d="M 10538,6342 L 10538,6592 10788,6592 10788,6342 10538,6342 Z"/>
 <path fill="none" stroke="rgb(255,255,255)" stroke-linejoin="round" d="M 10538,6342 L 10538,6592 10788,6592 10788,6342 10538,6342 Z"/>
 <path fill="rgb(255,255,255)" stroke="none" d="M 10729,5776 L 10729,6026 10979,6026 10979,5776 10729,5776 Z"/>
 <path fill="none" stroke="rgb(255,255,255)" stroke-linejoin="round" d="M 10729,5776 L 10729,6026 10979,6026 10979,5776 10729,5776 Z"/>
 <path fill="rgb(255,255,255)" stroke="none" d="M 10920,5211 L 10920,5461 11170,5461 11170,5211 10920,5211 Z"/>
 <path fill="none" stroke="rgb(255,255,255)" stroke-linejoin="round" d="M 10920,5211 L 10920,5461 11170,5461 11170,5211 10920,5211 Z"/>
 <path fill="rgb(255,255,255)" stroke="none" d="M 11111,4659 L 11111,4909 11361,4909 11361,4659 11111,4659 Z"/>
 <path fill="none" stroke="rgb(255,255,255)" stroke-linejoin="round" d="M 11111,4659 L 11111,4909 11361,4909 11361,4659 11111,4659 Z"/>
 <path fill="rgb(255,255,255)" stroke="none" d="M 11302,4135 L 11302,4385 11552,4385 11552,4135 11302,4135 Z"/>
 <path fill="none" stroke="rgb(255,255,255)" stroke-linejoin="round" d="M 11302,4135 L 11302,4385 11552,4385 11552,4135 11302,4135 Z"/>
 <path fill="rgb(255,255,255)" stroke="none" d="M 11493,3651 L 11493,3901 11743,3901 11743,3651 11493,3651 Z"/>
 <path fill="none" stroke="rgb(255,255,255)" stroke-linejoin="round" d="M 11493,3651 L 11493,3901 11743,3901 11743,3651 11493,3651 Z"/>
 <path fill="rgb(255,255,255)" stroke="none" d="M 11684,3220 L 11684,3470 11934,3470 11934,3220 11684,3220 Z"/>
 <path fill="none" stroke="rgb(255,255,255)" stroke-linejoin="round" d="M 11684,3220 L 11684,3470 11934,3470 11934,3220 11684,3220 Z"/>
 <path fill="rgb(255,255,255)" stroke="none" d="M 11875,2852 L 11875,3102 12125,3102 12125,2852 11875,2852 Z"/>
 <path fill="none" stroke="rgb(255,255,255)" stroke-linejoin="round" d="M 11875,2852 L 11875,3102 12125,3102 12125,2852 11875,2852 Z"/>
 <path fill="rgb(255,255,255)" stroke="none" d="M 12066,2555 L 12066,2805 12316,2805 12316,2555 12066,2555 Z"/>
 <path fill="none" stroke="rgb(255,255,255)" stroke-linejoin="round" d="M 12066,2555 L 12066,2805 12316,2805 12316,2555 12066,2555 Z"/>
 <path fill="rgb(255,255,255)" stroke="none" d="M 12257,2338 L 12257,2588 12506,2588 12506,2338 12257,2338 Z"/>
 <path fill="none" stroke="rgb(255,255,255)" stroke-linejoin="round" d="M 12257,2338 L 12257,2588 12506,2588 12506,2338 12257,2338 Z"/>
 <path fill="rgb(255,255,255)" stroke="none" d="M 12448,2206 L 12448,2456 12697,2456 12697,2206 12448,2206 Z"/>
 <path fill="none" stroke="rgb(255,255,255)" stroke-linejoin="round" d="M 12448,2206 L 12448,2456 12697,2456 12697,2206 12448,2206 Z"/>
 <path fill="rgb(255,255,255)" stroke="none" d="M 12638,2161 L 12638,2411 12888,2411 12888,2161 12638,2161 Z"/>
 <path fill="none" stroke="rgb(255,255,255)" stroke-linejoin="round" d="M 12638,2161 L 12638,2411 12888,2411 12888,2161 12638,2161 Z"/>
 <path fill="rgb(255,255,255)" stroke="none" d="M 12829,2206 L 12829,2456 13079,2456 13079,2206 12829,2206 Z"/>
 <path fill="none" stroke="rgb(255,255,255)" stroke-linejoin="round" d="M 12829,2206 L 12829,2456 13079,2456 13079,2206 12829,2206 Z"/>
 <path fill="rgb(255,255,255)" stroke="none" d="M 13020,2338 L 13020,2588 13270,2588 13270,2338 13020,2338 Z"/>
 <path fill="none" stroke="rgb(255,255,255)" stroke-linejoin="round" d="M 13020,2338 L 13020,2588 13270,2588 13270,2338 13020,2338 Z"/>
 <path fill="rgb(255,255,255)" stroke="none" d="M 13211,2555 L 13211,2805 13461,2805 13461,2555 13211,2555 Z"/>
 <path fill="none" stroke="rgb(255,255,255)" stroke-linejoin="round" d="M 13211,2555 L 13211,2805 13461,2805 13461,2555 13211,2555 Z"/>
 <path fill="rgb(255,255,255)" stroke="none" d="M 13402,2852 L 13402,3102 13652,3102 13652,2852 13402,2852 Z"/>
 <path fill="none" stroke="rgb(255,255,255)" stroke-linejoin="round" d="M 13402,2852 L 13402,3102 13652,3102 13652,2852 13402,2852 Z"/>
 <path fill="rgb(255,255,255)" stroke="none" d="M 13593,3220 L 13593,3470 13843,3470 13843,3220 13593,3220 Z"/>
 <path fill="none" stroke="rgb(255,255,255)" stroke-linejoin="round" d="M 13593,3220 L 13593,3470 13843,3470 13843,3220 13593,3220 Z"/>
 <path fill="rgb(255,255,255)" stroke="none" d="M 13784,3078 L 13784,3328 14034,3328 14034,3078 13784,3078 Z"/>
 <path fill="none" stroke="rgb(255,255,255)" stroke-linejoin="round" d="M 13784,3078 L 13784,3328 14034,3328 14034,3078 13784,3078 Z"/>
 <path fill="rgb(255,255,255)" stroke="none" d="M 13975,3220 L 13975,3470 14225,3470 14225,3220 13975,3220 Z"/>
 <path fill="none" stroke="rgb(255,255,255)" stroke-linejoin="round" d="M 13975,3220 L 13975,3470 14225,3470 14225,3220 13975,3220 Z"/>
 <path fill="rgb(255,255,255)" stroke="none" d="M 14166,2890 L 14166,3140 14416,3140 14416,2890 14166,2890 Z"/>
 <path fill="none" stroke="rgb(255,255,255)" stroke-linejoin="round" d="M 14166,2890 L 14166,3140 14416,3140 14416,2890 14166,2890 Z"/>
 <path fill="rgb(255,255,255)" stroke="none" d="M 14357,2760 L 14357,3010 14607,3010 14607,2760 14357,2760 Z"/>
 <path fill="none" stroke="rgb(255,255,255)" stroke-linejoin="round" d="M 14357,2760 L 14357,3010 14607,3010 14607,2760 14357,2760 Z"/>
 <path fill="rgb(255,255,255)" stroke="none" d="M 14548,2845 L 14548,3095 14798,3095 14798,2845 14548,2845 Z"/>
 <path fill="none" stroke="rgb(255,255,255)" stroke-linejoin="round" d="M 14548,2845 L 14548,3095 14798,3095 14798,2845 14548,2845 Z"/>
 <path fill="rgb(255,255,255)" stroke="none" d="M 14739,3206 L 14739,3456 14989,3456 14989,3206 14739,3206 Z"/>
 <path fill="none" stroke="rgb(255,255,255)" stroke-linejoin="round" d="M 14739,3206 L 14739,3456 14989,3456 14989,3206 14739,3206 Z"/>
 <path fill="rgb(255,255,255)" stroke="none" d="M 14930,3207 L 14930,3457 15180,3457 15180,3207 14930,3207 Z"/>
 <path fill="none" stroke="rgb(255,255,255)" stroke-linejoin="round" d="M 14930,3207 L 14930,3457 15180,3457 15180,3207 14930,3207 Z"/>
 <path fill="rgb(255,255,255)" stroke="none" d="M 15120,3572 L 15120,3822 15370,3822 15370,3572 15120,3572 Z"/>
 <path fill="none" stroke="rgb(255,255,255)" stroke-linejoin="round" d="M 15120,3572 L 15120,3822 15370,3822 15370,3572 15120,3572 Z"/>
 <path fill="rgb(255,255,255)" stroke="none" d="M 15311,2866 L 15311,3116 15561,3116 15561,2866 15311,2866 Z"/>
 <path fill="none" stroke="rgb(255,255,255)" stroke-linejoin="round" d="M 15311,2866 L 15311,3116 15561,3116 15561,2866 15311,2866 Z"/>
 <path fill="rgb(255,255,255)" stroke="none" d="M 15502,3157 L 15502,3407 15752,3407 15752,3157 15502,3157 Z"/>
 <path fill="none" stroke="rgb(255,255,255)" stroke-linejoin="round" d="M 15502,3157 L 15502,3407 15752,3407 15752,3157 15502,3157 Z"/>
 <path fill="rgb(255,255,255)" stroke="none" d="M 15693,2891 L 15693,3141 15943,3141 15943,2891 15693,2891 Z"/>
 <path fill="none" stroke="rgb(255,255,255)" stroke-linejoin="round" d="M 15693,2891 L 15693,3141 15943,3141 15943,2891 15693,2891 Z"/>
 <path fill="rgb(255,255,255)" stroke="none" d="M 15884,3010 L 15884,3260 16134,3260 16134,3010 15884,3010 Z"/>
 <path fill="none" stroke="rgb(255,255,255)" stroke-linejoin="round" d="M 15884,3010 L 15884,3260 16134,3260 16134,3010 15884,3010 Z"/>
 <path fill="rgb(255,255,255)" stroke="none" d="M 16075,2892 L 16075,3142 16325,3142 16325,2892 16075,2892 Z"/>
 <path fill="none" stroke="rgb(255,255,255)" stroke-linejoin="round" d="M 16075,2892 L 16075,3142 16325,3142 16325,2892 16075,2892 Z"/>
 <path fill="rgb(255,255,255)" stroke="none" d="M 16266,3092 L 16266,3342 16516,3342 16516,3092 16266,3092 Z"/>
 <path fill="none" stroke="rgb(255,255,255)" stroke-linejoin="round" d="M 16266,3092 L 16266,3342 16516,3342 16516,3092 16266,3092 Z"/>
 <path fill="rgb(255,255,255)" stroke="none" d="M 16457,2899 L 16457,3149 16707,3149 16707,2899 16457,2899 Z"/>
 <path fill="none" stroke="rgb(255,255,255)" stroke-linejoin="round" d="M 16457,2899 L 16457,3149 16707,3149 16707,2899 16457,2899 Z"/>
 <path fill="rgb(255,255,255)" stroke="none" d="M 16648,3079 L 16648,3329 16898,3329 16898,3079 16648,3079 Z"/>
 <path fill="none" stroke="rgb(255,255,255)" stroke-linejoin="round" d="M 16648,3079 L 16648,3329 16898,3329 16898,3079 16648,3079 Z"/>
 <path fill="rgb(255,255,255)" stroke="none" d="M 16839,2908 L 16839,3158 17089,3158 17089,2908 16839,2908 Z"/>
 <path fill="none" stroke="rgb(255,255,255)" stroke-linejoin="round" d="M 16839,2908 L 16839,3158 17089,3158 17089,2908 16839,2908 Z"/>
 <path fill="rgb(255,255,255)" stroke="none" d="M 17030,2813 L 17030,3063 17280,3063 17280,2813 17030,2813 Z"/>
 <path fill="none" stroke="rgb(255,255,255)" stroke-linejoin="round" d="M 17030,2813 L 17030,3063 17280,3063 17280,2813 17030,2813 Z"/>
 <path fill="rgb(255,255,255)" stroke="none" d="M 17221,2932 L 17221,3182 17471,3182 17471,2932 17221,2932 Z"/>
 <path fill="none" stroke="rgb(255,255,255)" stroke-linejoin="round" d="M 17221,2932 L 17221,3182 17471,3182 17471,2932 17221,2932 Z"/>
 <path fill="rgb(255,255,255)" stroke="none" d="M 17412,2866 L 17412,3116 17662,3116 17662,2866 17412,2866 Z"/>
 <path fill="none" stroke="rgb(255,255,255)" stroke-linejoin="round" d="M 17412,2866 L 17412,3116 17662,3116 17662,2866 17412,2866 Z"/>
 <path fill="rgb(255,255,255)" stroke="none" d="M 17603,5053 L 17603,5303 17853,5303 17853,5053 17603,5053 Z"/>
 <path fill="none" stroke="rgb(255,255,255)" stroke-linejoin="round" d="M 17603,5053 L 17603,5303 17853,5303 17853,5053 17603,5053 Z"/>
 <path fill="rgb(255,255,255)" stroke="none" d="M 17794,2737 L 17794,2987 18044,2987 18044,2737 17794,2737 Z"/>
 <path fill="none" stroke="rgb(255,255,255)" stroke-linejoin="round" d="M 17794,2737 L 17794,2987 18044,2987 18044,2737 17794,2737 Z"/>
 <path fill="rgb(255,255,255)" stroke="none" d="M 17985,2799 L 17985,3049 18235,3049 18235,2799 17985,2799 Z"/>
 <path fill="none" stroke="rgb(255,255,255)" stroke-linejoin="round" d="M 17985,2799 L 17985,3049 18235,3049 18235,2799 17985,2799 Z"/>
 <path fill="rgb(255,255,255)" stroke="none" d="M 18176,2857 L 18176,3107 18426,3107 18426,2857 18176,2857 Z"/>
 <path fill="none" stroke="rgb(255,255,255)" stroke-linejoin="round" d="M 18176,2857 L 18176,3107 18426,3107 18426,2857 18176,2857 Z"/>
 <path fill="rgb(255,255,255)" stroke="none" d="M 18367,2982 L 18367,3232 18617,3232 18617,2982 18367,2982 Z"/>
 <path fill="none" stroke="rgb(255,255,255)" stroke-linejoin="round" d="M 18367,2982 L 18367,3232 18617,3232 18617,2982 18367,2982 Z"/>
 <path fill="rgb(255,255,255)" stroke="none" d="M 18558,2850 L 18558,3100 18808,3100 18808,2850 18558,2850 Z"/>
 <path fill="none" stroke="rgb(255,255,255)" stroke-linejoin="round" d="M 18558,2850 L 18558,3100 18808,3100 18808,2850 18558,2850 Z"/>
 <path fill="rgb(255,255,255)" stroke="none" d="M 18749,2773 L 18749,3023 18999,3023 18999,2773 18749,2773 Z"/>
 <path fill="none" stroke="rgb(255,255,255)" stroke-linejoin="round" d="M 18749,2773 L 18749,3023 18999,3023 18999,2773 18749,2773 Z"/>
 <path fill="rgb(255,255,255)" stroke="none" d="M 18940,2996 L 18940,3246 19190,3246 19190,2996 18940,2996 Z"/>
 <path fill="none" stroke="rgb(255,255,255)" stroke-linejoin="round" d="M 18940,2996 L 18940,3246 19190,3246 19190,2996 18940,2996 Z"/>
 <path fill="rgb(255,255,255)" stroke="none" d="M 19131,2741 L 19131,2991 19381,2991 19381,2741 19131,2741 Z"/>
 <path fill="none" stroke="rgb(255,255,255)" stroke-linejoin="round" d="M 19131,2741 L 19131,2991 19381,2991 19381,2741 19131,2741 Z"/>
 <path fill="rgb(255,255,255)" stroke="none" d="M 19322,2720 L 19322,2970 19572,2970 19572,2720 19322,2720 Z"/>
 <path fill="none" stroke="rgb(255,255,255)" stroke-linejoin="round" d="M 19322,2720 L 19322,2970 19572,2970 19572,2720 19322,2720 Z"/>
 <path fill="rgb(255,255,255)" stroke="none" d="M 19513,3032 L 19513,3282 19763,3282 19763,3032 19513,3032 Z"/>
 <path fill="none" stroke="rgb(255,255,255)" stroke-linejoin="round" d="M 19513,3032 L 19513,3282 19763,3282 19763,3032 19513,3032 Z"/>
 <path fill="rgb(255,255,255)" stroke="none" d="M 19703,3209 L 19703,3459 19953,3459 19953,3209 19703,3209 Z"/>
 <path fill="none" stroke="rgb(255,255,255)" stroke-linejoin="round" d="M 19703,3209 L 19703,3459 19953,3459 19953,3209 19703,3209 Z"/>
 <path fill="rgb(255,255,255)" stroke="none" d="M 19894,2955 L 19894,3205 20144,3205 20144,2955 19894,2955 Z"/>
 <path fill="none" stroke="rgb(255,255,255)" stroke-linejoin="round" d="M 19894,2955 L 19894,3205 20144,3205 20144,2955 19894,2955 Z"/>
 <path fill="rgb(255,255,255)" stroke="none" d="M 20085,3073 L 20085,3323 20335,3323 20335,3073 20085,3073 Z"/>
 <path fill="none" stroke="rgb(255,255,255)" stroke-linejoin="round" d="M 20085,3073 L 20085,3323 20335,3323 20335,3073 20085,3073 Z"/>
 <path fill="rgb(255,255,255)" stroke="none" d="M 20276,2842 L 20276,3092 20526,3092 20526,2842 20276,2842 Z"/>
 <path fill="none" stroke="rgb(255,255,255)" stroke-linejoin="round" d="M 20276,2842 L 20276,3092 20526,3092 20526,2842 20276,2842 Z"/>
 <text class="TextShape"><tspan class="TextParagraph" font-family="Liberation Sans, sans-serif" font-size="353px" font-weight="400"><tspan class="TextPosition" x="1214" y="13699"><tspan fill="rgb(238,238,238)" stroke="none">0</tspan></tspan></tspan></text>
 <text class="TextShape"><tspan class="TextParagraph" font-family="Liberation Sans, sans-serif" font-size="353px" font-weight="400"><tspan class="TextPosition" x="4941" y="13699"><tspan fill="rgb(238,238,238)" stroke="none">20</tspan></tspan></tspan></text>
 <text class="TextShape"><tspan class="TextParagraph" font-family="Liberation Sans, sans-serif" font-size="353px" font-weight="400"><tspan class="TextPosition" x="8760" y="13699"><tspan fill="rgb(238,238,238)" stroke="none">40</tspan></tspan></tspan></text>
 <text class="TextShape"><tspan class="TextParagraph" font-family="Liberation Sans, sans-serif" font-size="353px" font-weight="400"><tspan class="TextPosition" x="12579" y="13699"><tspan fill="rgb(238,238,238)" stroke="none">60</tspan></tspan></tspan></text>
 <text class="TextShape"><tspan class="TextParagraph" font-family="Liberation Sans, sans-serif" font-size="353px" font-weight="400"><tspan class="TextPosition" x="16398" y="13699"><tspan fill="rgb(238,238,238)" stroke="none">80</tspan></tspan></tspan></text>
 <text class="TextShape"><tspan class="TextParagraph" font-family="Liberation Sans, sans-serif" font-size="353px" font-weight="400"><tspan class="TextPosition" x="20124" y="13699"><tspan fill="rgb(238,238,238)" stroke="none">100</tspan></tspan></tspan></text>
 <text class="TextShape"><tspan class="TextParagraph" font-family="Liberation Sans, sans-serif" font-size="353px" font-weight="400"><tspan class="TextPosition" x="23944" y="13699"><tspan fill="rgb(238,238,238)" stroke="none">120</tspan></tspan></tspan></text>
 <text class="TextShape"><tspan class="TextParagraph" font-family="Liberation Sans, sans-serif" font-size="353px" font-weight="400"><tspan class="TextPosition" x="872" y="13252"><tspan fill="rgb(238,238,238)" stroke="none">0</tspan></tspan></tspan></text>
 <text class="TextShape"><tspan class="TextParagraph" font-family="Liberation Sans, sans-serif" font-size="353px" font-weight="400"><tspan class="TextPosition" x="687" y="11444"><tspan fill="rgb(238,238,238)" stroke="none">50</tspan></tspan></tspan></text>
 <text class="TextShape"><tspan class="TextParagraph" font-family="Liberation Sans, sans-serif" font-size="353px" font-weight="400"><tspan class="TextPosition" x="501" y="9636"><tspan fill="rgb(238,238,238)" stroke="none">100</tspan></tspan></tspan></text>
 <text class="TextShape"><tspan class="TextParagraph" font-family="Liberation Sans, sans-serif" font-size="353px" font-weight="400"><tspan class="TextPosition" x="501" y="7829"><tspan fill="rgb(238,238,238)" stroke="none">150</tspan></tspan></tspan></text>
 <text class="TextShape"><tspan class="TextParagraph" font-family="Liberation Sans, sans-serif" font-size="353px" font-weight="400"><tspan class="TextPosition" x="501" y="6021"><tspan fill="rgb(238,238,238)" stroke="none">200</tspan></tspan></tspan></text>
 <text class="TextShape"><tspan class="TextParagraph" font-family="Liberation Sans, sans-serif" font-size="353px" font-weight="400"><tspan class="TextPosition" x="501" y="4214"><tspan fill="rgb(238,238,238)" stroke="none">250</tspan></tspan></tspan></text>
 <text class="TextShape"><tspan class="TextParagraph" font-family="Liberation Sans, sans-serif" font-size="353px" font-weight="400"><tspan class="TextPosition" x="501" y="2406"><tspan fill="rgb(238,238,238)" stroke="none">300</tspan></tspan></tspan></text>
 <text class="TextShape"><tspan class="TextParagraph" font-family="Liberation Sans, sans-serif" font-size="353px" font-weight="400"><tspan class="TextPosition" x="501" y="598"><tspan fill="rgb(238,238,238)" stroke="none">350</tspan></tspan></tspan></text>
</svg>