<?xml version="1.0" encoding="utf-8" standalone="no"?>
<!DOCTYPE svg PUBLIC "-//W3C//DTD SVG 1.1//EN"
  "http://www.w3.org/Graphics/SVG/1.1/DTD/svg11.dtd">
<!-- Created with matplotlib (http://matplotlib.org/) -->
<svg height="460pt" version="1.1" viewBox="0 0 1379 460" width="1379pt" xmlns="http://www.w3.org/2000/svg" xmlns:xlink="http://www.w3.org/1999/xlink">
 <defs>
  <style type="text/css">
*{stroke-linecap:butt;stroke-linejoin:round;}
  </style>
 </defs>
 <g id="figure_1">
  <g id="patch_1">
   <path d="M 0 460.08 
L 1379.52 460.08 
L 1379.52 0 
L 0 0 
z
" style="fill:#ffffff;"/>
  </g>
  <g id="axes_1">
   <g id="patch_2">
    <path d="M 172.44 409.4712 
L 1241.568 409.4712 
L 1241.568 55.2096 
L 172.44 55.2096 
z
" style="fill:#ffffff;"/>
   </g>
   <g id="matplotlib.axis_1">
    <g id="xtick_1">
     <g id="line2d_1">
      <defs>
       <path d="M 0 0 
L 0 3.5 
" id="m11ff96f67d" style="stroke:#000000;stroke-width:0.8;"/>
      </defs>
      <g>
       <use style="stroke:#000000;stroke-width:0.8;" x="221.036727" xlink:href="#m11ff96f67d" y="409.4712"/>
      </g>
     </g>
     <g id="text_1">
      <!-- 0 -->
      <defs>
       <path d="M 31.78125 66.40625 
Q 24.171875 66.40625 20.328125 58.90625 
Q 16.5 51.421875 16.5 36.375 
Q 16.5 21.390625 20.328125 13.890625 
Q 24.171875 6.390625 31.78125 6.390625 
Q 39.453125 6.390625 43.28125 13.890625 
Q 47.125 21.390625 47.125 36.375 
Q 47.125 51.421875 43.28125 58.90625 
Q 39.453125 66.40625 31.78125 66.40625 
M 31.78125 74.21875 
Q 44.046875 74.21875 50.515625 64.515625 
Q 56.984375 54.828125 56.984375 36.375 
Q 56.984375 17.96875 50.515625 8.265625 
Q 44.046875 -1.421875 31.78125 -1.421875 
Q 19.53125 -1.421875 13.0625 8.265625 
Q 6.59375 17.96875 6.59375 36.375 
Q 6.59375 54.828125 13.0625 64.515625 
Q 19.53125 74.21875 31.78125 74.21875 
" id="DejaVuSans-30"/>
      </defs>
      <g transform="translate(217.855477 424.069637)scale(0.1 -0.1)">
       <use xlink:href="#DejaVuSans-30"/>
      </g>
     </g>
    </g>
    <g id="xtick_2">
     <g id="line2d_2">
      <g>
       <use style="stroke:#000000;stroke-width:0.8;" x="415.501422" xlink:href="#m11ff96f67d" y="409.4712"/>
      </g>
     </g>
     <g id="text_2">
      <!-- 500 -->
      <defs>
       <path d="M 10.796875 72.90625 
L 49.515625 72.90625 
L 49.515625 64.59375 
L 19.828125 64.59375 
L 19.828125 46.734375 
Q 21.96875 47.46875 24.109375 47.828125 
Q 26.265625 48.1875 28.421875 48.1875 
Q 40.625 48.1875 47.75 41.5 
Q 54.890625 34.8125 54.890625 23.390625 
Q 54.890625 11.625 47.5625 5.09375 
Q 40.234375 -1.421875 26.90625 -1.421875 
Q 22.3125 -1.421875 17.546875 -0.640625 
Q 12.796875 0.140625 7.71875 1.703125 
L 7.71875 11.625 
Q 12.109375 9.234375 16.796875 8.0625 
Q 21.484375 6.890625 26.703125 6.890625 
Q 35.15625 6.890625 40.078125 11.328125 
Q 45.015625 15.765625 45.015625 23.390625 
Q 45.015625 31 40.078125 35.4375 
Q 35.15625 39.890625 26.703125 39.890625 
Q 22.75 39.890625 18.8125 39.015625 
Q 14.890625 38.140625 10.796875 36.28125 
z
" id="DejaVuSans-35"/>
      </defs>
      <g transform="translate(405.957672 424.069637)scale(0.1 -0.1)">
       <use xlink:href="#DejaVuSans-35"/>
       <use x="63.623047" xlink:href="#DejaVuSans-30"/>
       <use x="127.246094" xlink:href="#DejaVuSans-30"/>
      </g>
     </g>
    </g>
    <g id="xtick_3">
     <g id="line2d_3">
      <g>
       <use style="stroke:#000000;stroke-width:0.8;" x="609.966117" xlink:href="#m11ff96f67d" y="409.4712"/>
      </g>
     </g>
     <g id="text_3">
      <!-- 1000 -->
      <defs>
       <path d="M 12.40625 8.296875 
L 28.515625 8.296875 
L 28.515625 63.921875 
L 10.984375 60.40625 
L 10.984375 69.390625 
L 28.421875 72.90625 
L 38.28125 72.90625 
L 38.28125 8.296875 
L 54.390625 8.296875 
L 54.390625 0 
L 12.40625 0 
z
" id="DejaVuSans-31"/>
      </defs>
      <g transform="translate(597.241117 424.069637)scale(0.1 -0.1)">
       <use xlink:href="#DejaVuSans-31"/>
       <use x="63.623047" xlink:href="#DejaVuSans-30"/>
       <use x="127.246094" xlink:href="#DejaVuSans-30"/>
       <use x="190.869141" xlink:href="#DejaVuSans-30"/>
      </g>
     </g>
    </g>
    <g id="xtick_4">
     <g id="line2d_4">
      <g>
       <use style="stroke:#000000;stroke-width:0.8;" x="804.430812" xlink:href="#m11ff96f67d" y="409.4712"/>
      </g>
     </g>
     <g id="text_4">
      <!-- 1500 -->
      <g transform="translate(791.705812 424.069637)scale(0.1 -0.1)">
       <use xlink:href="#DejaVuSans-31"/>
       <use x="63.623047" xlink:href="#DejaVuSans-35"/>
       <use x="127.246094" xlink:href="#DejaVuSans-30"/>
       <use x="190.869141" xlink:href="#DejaVuSans-30"/>
      </g>
     </g>
    </g>
    <g id="xtick_5">
     <g id="line2d_5">
      <g>
       <use style="stroke:#000000;stroke-width:0.8;" x="998.895507" xlink:href="#m11ff96f67d" y="409.4712"/>
      </g>
     </g>
     <g id="text_5">
      <!-- 2000 -->
      <defs>
       <path d="M 19.1875 8.296875 
L 53.609375 8.296875 
L 53.609375 0 
L 7.328125 0 
L 7.328125 8.296875 
Q 12.9375 14.109375 22.625 23.890625 
Q 32.328125 33.6875 34.8125 36.53125 
Q 39.546875 41.84375 41.421875 45.53125 
Q 43.3125 49.21875 43.3125 52.78125 
Q 43.3125 58.59375 39.234375 62.25 
Q 35.15625 65.921875 28.609375 65.921875 
Q 23.96875 65.921875 18.8125 64.3125 
Q 13.671875 62.703125 7.8125 59.421875 
L 7.8125 69.390625 
Q 13.765625 71.78125 18.9375 73 
Q 24.125 74.21875 28.421875 74.21875 
Q 39.75 74.21875 46.484375 68.546875 
Q 53.21875 62.890625 53.21875 53.421875 
Q 53.21875 48.921875 51.53125 44.890625 
Q 49.859375 40.875 45.40625 35.40625 
Q 44.1875 33.984375 37.640625 27.21875 
Q 31.109375 20.453125 19.1875 8.296875 
" id="DejaVuSans-32"/>
      </defs>
      <g transform="translate(986.170507 424.069637)scale(0.1 -0.1)">
       <use xlink:href="#DejaVuSans-32"/>
       <use x="63.623047" xlink:href="#DejaVuSans-30"/>
       <use x="127.246094" xlink:href="#DejaVuSans-30"/>
       <use x="190.869141" xlink:href="#DejaVuSans-30"/>
      </g>
     </g>
    </g>
    <g id="xtick_6">
     <g id="line2d_6">
      <g>
       <use style="stroke:#000000;stroke-width:0.8;" x="1193.360202" xlink:href="#m11ff96f67d" y="409.4712"/>
      </g>
     </g>
     <g id="text_6">
      <!-- 2500 -->
      <g transform="translate(1180.635202 424.069637)scale(0.1 -0.1)">
       <use xlink:href="#DejaVuSans-32"/>
       <use x="63.623047" xlink:href="#DejaVuSans-35"/>
       <use x="127.246094" xlink:href="#DejaVuSans-30"/>
       <use x="190.869141" xlink:href="#DejaVuSans-30"/>
      </g>
     </g>
    </g>
   </g>
   <g id="matplotlib.axis_2">
    <g id="ytick_1">
     <g id="line2d_7">
      <defs>
       <path d="M 0 0 
L -3.5 0 
" id="mf69271c55c" style="stroke:#000000;stroke-width:0.8;"/>
      </defs>
      <g>
       <use style="stroke:#000000;stroke-width:0.8;" x="172.44" xlink:href="#mf69271c55c" y="393.415288"/>
      </g>
     </g>
     <g id="text_7">
      <!-- 0.0 -->
      <defs>
       <path d="M 10.6875 12.40625 
L 21 12.40625 
L 21 0 
L 10.6875 0 
z
" id="DejaVuSans-2e"/>
      </defs>
      <g transform="translate(149.536875 397.214506)scale(0.1 -0.1)">
       <use xlink:href="#DejaVuSans-30"/>
       <use x="63.623047" xlink:href="#DejaVuSans-2e"/>
       <use x="95.410156" xlink:href="#DejaVuSans-30"/>
      </g>
     </g>
    </g>
    <g id="ytick_2">
     <g id="line2d_8">
      <g>
       <use style="stroke:#000000;stroke-width:0.8;" x="172.44" xlink:href="#mf69271c55c" y="341.454222"/>
      </g>
     </g>
     <g id="text_8">
      <!-- 0.2 -->
      <g transform="translate(149.536875 345.253441)scale(0.1 -0.1)">
       <use xlink:href="#DejaVuSans-30"/>
       <use x="63.623047" xlink:href="#DejaVuSans-2e"/>
       <use x="95.410156" xlink:href="#DejaVuSans-32"/>
      </g>
     </g>
    </g>
    <g id="ytick_3">
     <g id="line2d_9">
      <g>
       <use style="stroke:#000000;stroke-width:0.8;" x="172.44" xlink:href="#mf69271c55c" y="289.493157"/>
      </g>
     </g>
     <g id="text_9">
      <!-- 0.4 -->
      <defs>
       <path d="M 37.796875 64.3125 
L 12.890625 25.390625 
L 37.796875 25.390625 
z
M 35.203125 72.90625 
L 47.609375 72.90625 
L 47.609375 25.390625 
L 58.015625 25.390625 
L 58.015625 17.1875 
L 47.609375 17.1875 
L 47.609375 0 
L 37.796875 0 
L 37.796875 17.1875 
L 4.890625 17.1875 
L 4.890625 26.703125 
z
" id="DejaVuSans-34"/>
      </defs>
      <g transform="translate(149.536875 293.292376)scale(0.1 -0.1)">
       <use xlink:href="#DejaVuSans-30"/>
       <use x="63.623047" xlink:href="#DejaVuSans-2e"/>
       <use x="95.410156" xlink:href="#DejaVuSans-34"/>
      </g>
     </g>
    </g>
    <g id="ytick_4">
     <g id="line2d_10">
      <g>
       <use style="stroke:#000000;stroke-width:0.8;" x="172.44" xlink:href="#mf69271c55c" y="237.532092"/>
      </g>
     </g>
     <g id="text_10">
      <!-- 0.6 -->
      <defs>
       <path d="M 33.015625 40.375 
Q 26.375 40.375 22.484375 35.828125 
Q 18.609375 31.296875 18.609375 23.390625 
Q 18.609375 15.53125 22.484375 10.953125 
Q 26.375 6.390625 33.015625 6.390625 
Q 39.65625 6.390625 43.53125 10.953125 
Q 47.40625 15.53125 47.40625 23.390625 
Q 47.40625 31.296875 43.53125 35.828125 
Q 39.65625 40.375 33.015625 40.375 
M 52.59375 71.296875 
L 52.59375 62.3125 
Q 48.875 64.0625 45.09375 64.984375 
Q 41.3125 65.921875 37.59375 65.921875 
Q 27.828125 65.921875 22.671875 59.328125 
Q 17.53125 52.734375 16.796875 39.40625 
Q 19.671875 43.65625 24.015625 45.921875 
Q 28.375 48.1875 33.59375 48.1875 
Q 44.578125 48.1875 50.953125 41.515625 
Q 57.328125 34.859375 57.328125 23.390625 
Q 57.328125 12.15625 50.6875 5.359375 
Q 44.046875 -1.421875 33.015625 -1.421875 
Q 20.359375 -1.421875 13.671875 8.265625 
Q 6.984375 17.96875 6.984375 36.375 
Q 6.984375 53.65625 15.1875 63.9375 
Q 23.390625 74.21875 37.203125 74.21875 
Q 40.921875 74.21875 44.703125 73.484375 
Q 48.484375 72.75 52.59375 71.296875 
" id="DejaVuSans-36"/>
      </defs>
      <g transform="translate(149.536875 241.331311)scale(0.1 -0.1)">
       <use xlink:href="#DejaVuSans-30"/>
       <use x="63.623047" xlink:href="#DejaVuSans-2e"/>
       <use x="95.410156" xlink:href="#DejaVuSans-36"/>
      </g>
     </g>
    </g>
    <g id="ytick_5">
     <g id="line2d_11">
      <g>
       <use style="stroke:#000000;stroke-width:0.8;" x="172.44" xlink:href="#mf69271c55c" y="185.571027"/>
      </g>
     </g>
     <g id="text_11">
      <!-- 0.8 -->
      <defs>
       <path d="M 31.78125 34.625 
Q 24.75 34.625 20.71875 30.859375 
Q 16.703125 27.09375 16.703125 20.515625 
Q 16.703125 13.921875 20.71875 10.15625 
Q 24.75 6.390625 31.78125 6.390625 
Q 38.8125 6.390625 42.859375 10.171875 
Q 46.921875 13.96875 46.921875 20.515625 
Q 46.921875 27.09375 42.890625 30.859375 
Q 38.875 34.625 31.78125 34.625 
M 21.921875 38.8125 
Q 15.578125 40.375 12.03125 44.71875 
Q 8.5 49.078125 8.5 55.328125 
Q 8.5 64.0625 14.71875 69.140625 
Q 20.953125 74.21875 31.78125 74.21875 
Q 42.671875 74.21875 48.875 69.140625 
Q 55.078125 64.0625 55.078125 55.328125 
Q 55.078125 49.078125 51.53125 44.71875 
Q 48 40.375 41.703125 38.8125 
Q 48.828125 37.15625 52.796875 32.3125 
Q 56.78125 27.484375 56.78125 20.515625 
Q 56.78125 9.90625 50.3125 4.234375 
Q 43.84375 -1.421875 31.78125 -1.421875 
Q 19.734375 -1.421875 13.25 4.234375 
Q 6.78125 9.90625 6.78125 20.515625 
Q 6.78125 27.484375 10.78125 32.3125 
Q 14.796875 37.15625 21.921875 38.8125 
M 18.3125 54.390625 
Q 18.3125 48.734375 21.84375 45.5625 
Q 25.390625 42.390625 31.78125 42.390625 
Q 38.140625 42.390625 41.71875 45.5625 
Q 45.3125 48.734375 45.3125 54.390625 
Q 45.3125 60.0625 41.71875 63.234375 
Q 38.140625 66.40625 31.78125 66.40625 
Q 25.390625 66.40625 21.84375 63.234375 
Q 18.3125 60.0625 18.3125 54.390625 
" id="DejaVuSans-38"/>
      </defs>
      <g transform="translate(149.536875 189.370246)scale(0.1 -0.1)">
       <use xlink:href="#DejaVuSans-30"/>
       <use x="63.623047" xlink:href="#DejaVuSans-2e"/>
       <use x="95.410156" xlink:href="#DejaVuSans-38"/>
      </g>
     </g>
    </g>
    <g id="ytick_6">
     <g id="line2d_12">
      <g>
       <use style="stroke:#000000;stroke-width:0.8;" x="172.44" xlink:href="#mf69271c55c" y="133.609962"/>
      </g>
     </g>
     <g id="text_12">
      <!-- 1.0 -->
      <g transform="translate(149.536875 137.409181)scale(0.1 -0.1)">
       <use xlink:href="#DejaVuSans-31"/>
       <use x="63.623047" xlink:href="#DejaVuSans-2e"/>
       <use x="95.410156" xlink:href="#DejaVuSans-30"/>
      </g>
     </g>
    </g>
    <g id="ytick_7">
     <g id="line2d_13">
      <g>
       <use style="stroke:#000000;stroke-width:0.8;" x="172.44" xlink:href="#mf69271c55c" y="81.648897"/>
      </g>
     </g>
     <g id="text_13">
      <!-- 1.2 -->
      <g transform="translate(149.536875 85.448116)scale(0.1 -0.1)">
       <use xlink:href="#DejaVuSans-31"/>
       <use x="63.623047" xlink:href="#DejaVuSans-2e"/>
       <use x="95.410156" xlink:href="#DejaVuSans-32"/>
      </g>
     </g>
    </g>
   </g>
   <g id="line2d_14">
    <path clip-path="url(#pa95de61054)" d="M 221.036727 104.309087 
L 221.425657 99.723788 
L 221.814586 91.930273 
L 222.203515 94.753696 
L 222.592445 94.113651 
L 223.370304 94.209592 
L 223.759233 96.075226 
L 224.148162 94.301784 
L 224.537092 95.119422 
L 224.926021 94.253075 
L 225.314951 95.222526 
L 225.70388 94.699007 
L 226.092809 94.525877 
L 226.481739 94.225829 
L 227.259598 95.314349 
L 227.648527 94.572966 
L 228.426386 94.397293 
L 228.815315 95.475365 
L 229.593174 94.119737 
L 229.982103 93.669137 
L 230.371033 95.386826 
L 230.759962 94.786474 
L 231.148891 94.945265 
L 231.92675 95.490861 
L 232.31568 95.197965 
L 232.704609 94.515605 
L 233.093538 94.397236 
L 233.482468 94.964897 
L 233.871397 95.038557 
L 234.260327 93.278362 
L 234.649256 94.645735 
L 236.204973 94.751778 
L 236.593903 94.545077 
L 236.982832 94.774595 
L 237.371762 95.310096 
L 237.760691 94.251815 
L 238.14962 94.460625 
L 238.53855 95.203634 
L 238.927479 94.380949 
L 239.316409 94.785942 
L 239.705338 95.475215 
L 240.094267 95.098094 
L 240.483197 94.928614 
L 240.872126 95.725075 
L 241.261056 95.498654 
L 241.649985 94.781402 
L 242.038914 95.003122 
L 242.427844 94.616483 
L 242.816773 95.187557 
L 243.205702 94.058463 
L 243.594632 96.127628 
L 243.983561 94.228516 
L 244.372491 94.403035 
L 244.76142 95.83859 
L 245.150349 94.000423 
L 245.539279 95.579657 
L 245.928208 94.779501 
L 246.317138 95.23633 
L 247.483926 94.450685 
L 247.872855 94.760224 
L 248.261785 93.470706 
L 248.650714 95.678894 
L 249.039643 94.603502 
L 249.428573 95.243063 
L 249.817502 95.049882 
L 250.206432 94.574112 
L 250.595361 93.47019 
L 250.98429 95.060214 
L 251.37322 94.507979 
L 251.762149 95.505416 
L 252.151078 94.904388 
L 252.540008 95.173804 
L 252.928937 94.855762 
L 253.317867 95.88882 
L 253.706796 93.996841 
L 254.095725 95.836205 
L 254.484655 93.936646 
L 254.873584 95.488145 
L 255.262514 93.805817 
L 255.651443 95.722614 
L 256.040372 95.399286 
L 256.429302 94.822177 
L 256.818231 95.146633 
L 257.207161 94.034024 
L 257.59609 93.959995 
L 257.985019 95.437668 
L 258.373949 94.647993 
L 258.762878 94.128376 
L 259.151807 94.636517 
L 259.540737 94.531119 
L 259.929666 94.960185 
L 260.318596 95.82662 
L 260.707525 94.565693 
L 261.096454 93.947635 
L 261.485384 95.323936 
L 261.874313 94.244799 
L 262.263243 94.700337 
L 262.652172 94.405089 
L 263.041101 94.818758 
L 263.81896 95.120714 
L 264.20789 95.516927 
L 264.596819 94.033214 
L 264.985748 93.868063 
L 265.374678 94.112035 
L 265.763607 95.645646 
L 266.152537 94.056375 
L 266.541466 94.418855 
L 266.930395 94.601376 
L 267.319325 93.927548 
L 267.708254 95.003326 
L 268.097183 95.708899 
L 268.486113 94.307132 
L 268.875042 96.333127 
L 269.263972 93.506614 
L 269.652901 94.636939 
L 270.04183 94.92104 
L 270.43076 94.346567 
L 270.819689 95.55696 
L 271.208619 94.125145 
L 271.597548 93.834334 
L 271.986477 94.32976 
L 272.375407 94.493933 
L 272.764336 93.62974 
L 273.153266 94.941785 
L 273.542195 94.267108 
L 273.931124 95.034839 
L 274.320054 94.095386 
L 274.708983 94.045533 
L 275.097912 95.353348 
L 275.486842 93.616348 
L 275.875771 94.516683 
L 276.264701 94.458701 
L 276.65363 94.657294 
L 277.042559 95.450147 
L 277.431489 93.439201 
L 277.820418 94.981455 
L 278.209348 94.155785 
L 278.987206 96.616735 
L 279.376136 92.561892 
L 279.765065 96.063174 
L 280.153995 94.267852 
L 280.931853 96.038443 
L 281.320783 96.181227 
L 281.709712 94.150927 
L 282.098641 96.200435 
L 282.487571 93.9958 
L 282.8765 95.244218 
L 283.26543 95.127167 
L 283.654359 96.144048 
L 284.043288 94.449266 
L 284.432218 95.065834 
L 284.821147 94.324993 
L 285.210077 96.211827 
L 285.599006 94.144987 
L 285.987935 96.746158 
L 286.376865 93.053413 
L 286.765794 95.659889 
L 287.154724 94.268396 
L 287.543653 94.995965 
L 288.321512 94.540068 
L 288.710441 95.239106 
L 289.099371 95.054545 
L 289.4883 95.063835 
L 289.877229 93.966593 
L 290.266159 94.633038 
L 290.655088 94.807136 
L 291.432947 94.35419 
L 291.821876 94.574381 
L 292.210806 94.301081 
L 292.599735 94.476932 
L 292.988664 94.906708 
L 293.377594 94.462092 
L 293.766523 94.552804 
L 294.155453 94.086245 
L 294.544382 95.595359 
L 294.933311 95.172146 
L 295.322241 93.784056 
L 295.71117 94.672788 
L 296.1001 94.966071 
L 296.489029 94.622967 
L 296.877958 93.609908 
L 297.266888 95.611247 
L 297.655817 94.331352 
L 298.044746 95.195273 
L 298.433676 94.097969 
L 298.822605 94.150956 
L 299.600464 95.129635 
L 299.989393 95.205868 
L 300.378323 94.908645 
L 300.767252 95.579402 
L 301.156182 94.521622 
L 301.545111 93.94123 
L 301.93404 94.894175 
L 302.32297 94.510024 
L 302.711899 94.854093 
L 303.100829 95.53523 
L 303.489758 95.818126 
L 303.878687 93.919917 
L 304.267617 95.928754 
L 304.656546 95.067971 
L 305.434405 94.356247 
L 305.823334 94.610319 
L 306.212264 95.113691 
L 306.990122 95.526153 
L 307.379052 94.375452 
L 307.767981 95.199003 
L 308.156911 95.258195 
L 308.54584 94.16597 
L 309.323699 95.359549 
L 309.712628 94.476655 
L 310.101558 96.175597 
L 310.490487 93.880297 
L 311.268346 95.347352 
L 311.657275 93.994472 
L 312.046205 95.539654 
L 312.435134 95.203624 
L 312.824063 94.437516 
L 313.212993 95.528996 
L 313.601922 94.554172 
L 313.990851 94.832935 
L 314.379781 94.729072 
L 314.76871 95.219565 
L 315.15764 94.450711 
L 315.546569 94.090073 
L 315.935498 95.994648 
L 316.324428 93.989454 
L 316.713357 95.82163 
L 317.102287 93.992037 
L 317.491216 94.641721 
L 317.880145 95.566586 
L 318.269075 95.219382 
L 319.046934 93.830375 
L 319.435863 95.302308 
L 319.824792 95.221914 
L 320.213722 94.641239 
L 320.602651 93.807855 
L 320.99158 94.908952 
L 321.38051 95.487377 
L 321.769439 94.246594 
L 322.158369 95.298494 
L 322.547298 94.820965 
L 322.936227 96.03071 
L 323.714086 94.372198 
L 324.103016 95.44728 
L 324.491945 94.186378 
L 324.880874 96.255152 
L 325.269804 93.819495 
L 325.658733 93.823119 
L 326.047663 96.338468 
L 326.436592 93.516031 
L 326.825521 94.713249 
L 327.214451 95.092659 
L 327.99231 94.672883 
L 328.381239 94.832878 
L 328.770168 94.019064 
L 329.548027 95.405967 
L 329.936956 94.430896 
L 330.325886 94.181758 
L 330.714815 94.699915 
L 331.103745 94.566352 
L 331.492674 95.522081 
L 331.881603 93.76285 
L 332.270533 95.677012 
L 332.659462 94.059239 
L 333.048392 95.255479 
L 333.437321 93.6354 
L 333.82625 94.975678 
L 334.21518 92.776525 
L 334.604109 95.410494 
L 334.993039 93.796904 
L 335.381968 94.452979 
L 335.770897 94.830514 
L 336.159827 95.609581 
L 336.548756 95.170641 
L 336.937685 95.25235 
L 337.326615 95.044489 
L 337.715544 94.674808 
L 338.104474 93.978784 
L 338.493403 94.913758 
L 338.882332 94.899092 
L 339.271262 95.532824 
L 339.660191 94.100668 
L 340.049121 95.301832 
L 340.826979 94.273023 
L 341.215909 96.194072 
L 341.604838 94.197002 
L 341.993768 95.382755 
L 342.382697 94.884097 
L 342.771626 95.806792 
L 343.160556 95.273903 
L 343.549485 95.543887 
L 343.938414 94.092509 
L 344.327344 95.246964 
L 344.716273 95.028201 
L 345.105203 94.948019 
L 345.494132 94.653638 
L 345.883061 94.884424 
L 346.271991 94.648695 
L 346.66092 94.986348 
L 347.04985 94.420158 
L 347.438779 94.334698 
L 347.827708 94.634059 
L 348.216638 94.110284 
L 348.605567 95.70625 
L 348.994497 94.139076 
L 349.383426 94.611001 
L 349.772355 94.264857 
L 350.161285 94.857219 
L 350.550214 94.577571 
L 350.939144 94.644318 
L 351.328073 95.580172 
L 351.717002 94.468099 
L 352.105932 96.091148 
L 352.494861 93.672765 
L 352.88379 95.169691 
L 353.27272 95.395396 
L 353.661649 93.861641 
L 354.050579 93.894466 
L 354.439508 94.810389 
L 354.828437 94.823054 
L 355.217367 93.331898 
L 355.606296 94.849416 
L 355.995226 94.765608 
L 356.384155 93.982332 
L 356.773084 95.231931 
L 357.162014 93.807065 
L 357.550943 96.679565 
L 357.939873 94.735561 
L 358.717731 94.047134 
L 359.106661 95.080273 
L 359.49559 95.321903 
L 359.884519 94.652345 
L 360.273449 94.570764 
L 360.662378 94.166185 
L 361.051308 95.287029 
L 361.440237 95.205219 
L 361.829166 94.603389 
L 362.218096 95.016341 
L 362.607025 94.741466 
L 362.995955 93.824899 
L 363.384884 95.38746 
L 363.773813 94.662481 
L 364.162743 95.024233 
L 364.551672 92.647823 
L 364.940602 95.631702 
L 365.329531 93.464737 
L 365.71846 95.660547 
L 366.10739 93.977463 
L 366.496319 94.732169 
L 366.885248 95.209648 
L 367.274178 94.565755 
L 367.663107 94.459442 
L 368.052037 94.534001 
L 368.440966 93.901306 
L 368.829895 94.426262 
L 369.996684 95.113013 
L 370.385613 94.419209 
L 370.774542 95.114814 
L 371.163472 94.426771 
L 371.552401 95.125522 
L 371.941331 94.507455 
L 372.33026 95.001013 
L 372.719189 95.106339 
L 373.108119 94.955442 
L 373.497048 93.92228 
L 373.885978 94.712888 
L 374.274907 94.375738 
L 374.663836 95.816324 
L 375.052766 94.489237 
L 375.441695 94.8424 
L 375.830624 95.763929 
L 376.219554 94.21359 
L 376.608483 94.004852 
L 376.997413 94.651987 
L 377.386342 93.749591 
L 377.775271 94.250514 
L 378.164201 95.26099 
L 378.55313 94.226687 
L 378.94206 94.088392 
L 379.330989 96.262678 
L 379.719918 93.152608 
L 380.108848 94.448912 
L 380.497777 95.268861 
L 381.275636 93.083253 
L 381.664565 97.040872 
L 382.053495 92.926238 
L 382.442424 95.183533 
L 382.831353 96.468463 
L 383.220283 95.952168 
L 383.609212 89.809718 
L 383.998142 101.181444 
L 384.387071 94.918903 
L 384.776 80.800877 
L 385.16493 141.575708 
L 385.553859 366.748451 
L 385.942789 380.59643 
L 386.331718 381.054231 
L 386.720647 383.654462 
L 387.109577 388.256048 
L 387.498506 390.165306 
L 387.887436 393.3684 
L 388.276365 389.576053 
L 388.665294 388.894489 
L 389.054224 390.146117 
L 389.443153 390.498813 
L 389.832083 388.552271 
L 390.221012 385.879938 
L 390.998871 372.773535 
L 391.3878 347.479748 
L 391.776729 122.192703 
L 392.165659 84.46271 
L 392.554588 96.128685 
L 392.943518 99.751326 
L 393.332447 89.351925 
L 393.721376 96.75953 
L 394.110306 94.905078 
L 394.499235 94.354607 
L 394.888165 95.460829 
L 395.277094 95.568668 
L 395.666023 93.364629 
L 396.054953 96.073967 
L 396.443882 94.977511 
L 396.832812 93.481623 
L 397.221741 95.017146 
L 397.61067 93.714759 
L 398.388529 96.074715 
L 398.777458 98.002666 
L 399.166388 89.295373 
L 399.555317 102.537486 
L 399.944247 95.243926 
L 400.333176 81.882295 
L 400.722105 135.012408 
L 401.111035 361.193811 
L 401.499964 376.286327 
L 401.888894 379.216 
L 402.666752 387.647398 
L 403.055682 391.044562 
L 403.444611 389.995523 
L 404.22247 390.25916 
L 404.611399 390.649972 
L 405.000329 389.437582 
L 405.389258 387.84112 
L 405.778187 385.64458 
L 406.167117 377.034718 
L 406.556046 375.508419 
L 406.944976 356.788978 
L 407.333905 127.746781 
L 407.722834 83.294706 
L 408.111764 99.170023 
L 408.500693 94.208076 
L 408.889623 94.970656 
L 409.278552 100.615454 
L 409.667481 82.025785 
L 410.056411 128.53667 
L 410.44534 358.285572 
L 410.83427 376.118739 
L 411.223199 379.86217 
L 411.612128 382.147136 
L 412.001058 381.067425 
L 412.389987 380.661869 
L 412.778917 377.370948 
L 413.167846 362.969236 
L 413.556775 129.155145 
L 413.945705 80.896428 
L 414.334634 102.935359 
L 414.723563 93.156587 
L 415.112493 93.854584 
L 415.501422 100.461691 
L 415.890352 82.928068 
L 416.279281 124.864069 
L 416.66821 353.986477 
L 417.05714 377.610937 
L 417.446069 379.121932 
L 417.834999 381.323066 
L 418.223928 382.062336 
L 418.612857 379.469082 
L 419.001787 379.334505 
L 419.390716 365.770115 
L 419.779646 132.362975 
L 420.168575 79.652049 
L 420.557504 103.200592 
L 420.946434 93.472688 
L 421.335363 94.345866 
L 421.724292 100.421744 
L 422.113222 81.908959 
L 422.502151 122.341294 
L 422.891081 352.765141 
L 423.28001 375.701183 
L 423.668939 378.888447 
L 424.057869 380.54177 
L 424.446798 381.523379 
L 424.835728 380.421343 
L 425.224657 381.025665 
L 425.613586 368.854125 
L 426.002516 137.173927 
L 426.391445 79.917952 
L 426.780375 102.351295 
L 427.169304 93.873246 
L 427.558233 94.299393 
L 427.947163 101.978351 
L 428.336092 83.195285 
L 428.725021 121.347333 
L 429.113951 349.679828 
L 429.50288 374.165887 
L 429.89181 376.779004 
L 430.280739 383.014462 
L 430.669668 384.673235 
L 431.058598 382.463405 
L 431.447527 381.552362 
L 431.836457 368.895117 
L 432.225386 139.904065 
L 432.614315 78.947609 
L 433.003245 99.847975 
L 433.392174 98.947443 
L 433.781104 89.400625 
L 434.170033 98.677016 
L 434.558962 94.464851 
L 434.947892 92.635812 
L 435.336821 96.173231 
L 435.725751 97.575225 
L 436.11468 92.107522 
L 436.503609 96.004445 
L 436.892539 95.721011 
L 437.281468 92.120803 
L 437.670397 97.07465 
L 438.448256 93.866993 
L 438.837186 95.429109 
L 439.226115 99.199216 
L 439.615044 87.491097 
L 440.003974 99.95541 
L 440.392903 97.621454 
L 440.781833 82.564871 
L 441.170762 118.479096 
L 441.559691 343.494227 
L 441.948621 373.99801 
L 442.33755 379.38183 
L 442.72648 383.052118 
L 443.115409 383.843758 
L 443.504338 382.150967 
L 443.893268 381.664444 
L 444.282197 376.467657 
L 444.671126 146.421233 
L 445.060056 76.695825 
L 445.448985 104.687908 
L 445.837915 92.523933 
L 446.226844 95.505849 
L 446.615773 99.929921 
L 447.004703 86.337621 
L 447.393632 112.334116 
L 447.782562 340.593464 
L 448.171491 371.970156 
L 448.56042 378.352309 
L 448.94935 381.025232 
L 449.338279 382.822589 
L 449.727209 383.849767 
L 450.116138 383.655283 
L 450.505067 378.104267 
L 450.893997 148.78919 
L 451.282926 77.471536 
L 451.671856 103.96037 
L 452.060785 92.159701 
L 452.449714 95.563078 
L 452.838644 100.149447 
L 453.227573 87.38306 
L 453.616502 110.705682 
L 454.005432 336.891753 
L 454.394361 371.518346 
L 455.17222 383.954654 
L 455.561149 385.892065 
L 455.950079 383.887637 
L 456.339008 383.224282 
L 456.727938 381.115939 
L 457.116867 154.228465 
L 457.505796 76.043393 
L 457.894726 98.471175 
L 458.283655 99.919603 
L 458.672585 90.913547 
L 459.061514 95.665473 
L 459.450443 98.189218 
L 459.839373 93.377439 
L 460.228302 92.466509 
L 460.617231 98.216671 
L 461.006161 96.79257 
L 461.39509 87.437637 
L 461.78402 100.793824 
L 462.172949 97.515657 
L 462.561878 83.923041 
L 462.950808 109.428736 
L 463.339737 330.491694 
L 463.728667 370.882771 
L 464.117596 379.478839 
L 464.506525 383.864248 
L 464.895455 386.931371 
L 465.284384 382.319452 
L 465.673314 383.741972 
L 466.062243 382.746145 
L 466.451172 159.145605 
L 466.840102 74.81552 
L 467.229031 96.985252 
L 467.61796 100.917747 
L 468.00689 91.834074 
L 468.395819 93.027487 
L 468.784749 99.849849 
L 469.173678 92.098527 
L 469.562607 93.624276 
L 469.951537 96.402746 
L 470.340466 96.699004 
L 470.729396 88.388555 
L 471.118325 100.409886 
L 471.507254 98.244614 
L 471.896184 84.349166 
L 472.285113 105.717924 
L 472.674043 326.322778 
L 473.062972 369.72204 
L 473.451901 379.158868 
L 473.840831 382.52817 
L 474.22976 384.39511 
L 474.61869 382.581822 
L 475.007619 387.19129 
L 475.396548 386.736253 
L 475.785478 164.994393 
L 476.174407 74.655216 
L 476.563336 103.555951 
L 476.952266 93.285786 
L 477.341195 96.647377 
L 477.730125 96.791018 
L 478.119054 90.208943 
L 478.507983 102.656969 
L 478.896913 322.053569 
L 479.285842 368.716934 
L 480.063701 383.904434 
L 480.45263 389.259298 
L 480.84156 390.012497 
L 481.230489 389.773159 
L 481.619419 389.045176 
L 482.008348 390.721923 
L 482.397277 389.115216 
L 482.786207 390.741435 
L 483.175136 390.808084 
L 483.952995 391.728849 
L 484.341924 391.591691 
L 484.730854 392.917546 
L 485.119783 393.096698 
L 485.508712 391.603138 
L 485.897642 392.552028 
L 486.286571 392.681316 
L 487.06443 392.662067 
L 487.453359 392.213239 
L 487.842289 392.82569 
L 488.231218 392.46612 
L 488.620148 391.856692 
L 489.398006 392.713871 
L 489.786936 391.185329 
L 490.175865 390.312057 
L 490.953724 393.162694 
L 491.731583 390.439392 
L 492.120512 387.77387 
L 492.509441 388.659978 
L 492.898371 384.433394 
L 493.2873 383.94809 
L 493.67623 387.902715 
L 494.065159 385.560891 
L 494.454088 172.84741 
L 494.843018 76.350073 
L 495.231947 97.119757 
L 495.620877 100.511529 
L 496.009806 90.230106 
L 496.398735 95.265835 
L 496.787665 96.684053 
L 497.176594 93.081957 
L 497.565524 94.40903 
L 497.954453 96.584006 
L 498.343382 92.110788 
L 498.732312 96.916784 
L 499.121241 96.174735 
L 499.51017 93.451754 
L 499.8991 94.996878 
L 500.288029 95.734502 
L 500.676959 92.966191 
L 501.065888 93.483486 
L 501.454817 99.797391 
L 501.843747 87.922901 
L 502.232676 100.169266 
L 502.621606 98.376446 
L 503.010535 88.995874 
L 503.399464 94.607258 
L 503.788394 308.309481 
L 504.177323 367.637991 
L 504.566253 379.668149 
L 504.955182 384.233476 
L 505.344111 385.543042 
L 505.733041 385.816915 
L 506.12197 390.766839 
L 506.510899 388.348558 
L 506.899829 180.445543 
L 507.288758 72.126938 
L 507.677688 103.908297 
L 508.066617 91.21647 
L 508.455546 95.861585 
L 508.844476 97.518475 
L 509.233405 91.80268 
L 509.622335 91.722389 
L 510.011264 303.318708 
L 510.400193 366.906632 
L 510.789123 378.422265 
L 511.566982 386.693569 
L 511.955911 388.022652 
L 512.34484 392.430872 
L 512.73377 386.083983 
L 513.122699 184.105145 
L 513.511629 73.418661 
L 513.900558 103.080905 
L 514.289487 92.455471 
L 514.678417 96.704972 
L 515.067346 95.573187 
L 515.456275 92.239737 
L 515.845205 92.705964 
L 516.234134 298.351294 
L 516.623064 365.600988 
L 517.011993 379.464973 
L 517.400922 386.991909 
L 517.789852 388.916258 
L 518.178781 390.265065 
L 518.567711 388.524055 
L 518.95664 390.009159 
L 519.345569 392.695539 
L 520.123428 389.122108 
L 520.512358 387.224423 
L 520.901287 386.19628 
L 521.290216 385.674706 
L 521.679146 390.128226 
L 522.068075 384.200488 
L 522.457004 191.329205 
L 522.845934 75.206164 
L 523.234863 95.678245 
L 523.623793 99.92673 
L 524.012722 93.616766 
L 524.401651 93.244851 
L 524.790581 98.123583 
L 525.17951 94.655051 
L 525.56844 93.778226 
L 525.957369 96.596009 
L 526.346298 93.029821 
L 526.735228 94.122675 
L 527.124157 94.746576 
L 527.513087 95.091512 
L 527.902016 93.908693 
L 528.290945 94.666875 
L 528.679875 95.791792 
L 529.068804 95.101629 
L 529.457733 93.93811 
L 529.846663 96.256129 
L 530.235592 93.847683 
L 530.624522 93.545902 
L 531.013451 95.351484 
L 531.40238 95.38417 
L 531.79131 92.825218 
L 532.180239 93.874361 
L 532.569169 100.570907 
L 532.958098 89.127157 
L 533.347027 98.257498 
L 533.735957 98.430719 
L 534.124886 88.90025 
L 534.513816 87.59267 
L 534.902745 288.43312 
L 535.291674 366.17943 
L 535.680604 379.6833 
L 536.458463 387.637635 
L 537.236321 390.924604 
L 537.625251 380.784695 
L 538.01418 200.351773 
L 538.403109 73.39618 
L 538.792039 102.421346 
L 539.180968 93.496885 
L 539.569898 95.93742 
L 539.958827 95.749645 
L 540.347756 94.758926 
L 540.736686 85.849813 
L 541.125615 282.124002 
L 541.514545 366.147052 
L 541.903474 379.506967 
L 542.681333 389.799218 
L 543.070262 390.687639 
L 543.459192 388.987171 
L 543.848121 389.364091 
L 544.23705 388.817732 
L 545.014909 391.973658 
L 545.403838 392.472028 
L 545.792768 391.800407 
L 546.181697 392.389193 
L 546.570627 391.64317 
L 546.959556 392.643567 
L 547.348485 392.056501 
L 547.737415 391.748909 
L 548.126344 392.461296 
L 548.515274 392.74593 
L 548.904203 391.784625 
L 549.293132 392.775566 
L 549.682062 392.451823 
L 550.070991 391.567454 
L 550.459921 392.352302 
L 550.84885 392.418132 
L 551.237779 392.914818 
L 551.626709 392.869845 
L 552.015638 393.177054 
L 552.793497 391.272715 
L 553.182426 391.336994 
L 553.571356 393.245295 
L 553.960285 392.311209 
L 555.127073 390.607207 
L 555.904932 392.41924 
L 556.293861 391.779232 
L 556.682791 391.574098 
L 557.07172 389.724268 
L 557.46065 386.710932 
L 558.238508 387.894885 
L 558.627438 386.979057 
L 559.016367 386.566638 
L 559.405297 375.536169 
L 560.183155 72.688888 
L 560.572085 101.208792 
L 560.961014 93.040136 
L 561.349943 98.305634 
L 561.738873 94.15889 
L 562.127802 95.870157 
L 562.516732 84.053283 
L 562.905661 268.045977 
L 563.29459 366.173543 
L 563.68352 381.675875 
L 564.072449 389.611123 
L 564.461379 389.598023 
L 564.850308 388.644676 
L 565.239237 385.843295 
L 565.628167 392.244444 
L 566.017096 390.364092 
L 566.406026 390.572049 
L 566.794955 388.423595 
L 567.183884 387.188633 
L 567.572814 387.132175 
L 567.961743 388.201693 
L 568.350672 387.160967 
L 568.739602 374.057334 
L 569.517461 74.535782 
L 569.90639 102.788871 
L 570.295319 91.788526 
L 570.684249 98.473926 
L 571.073178 95.468925 
L 571.462108 97.164531 
L 571.851037 80.694039 
L 572.239966 263.196958 
L 572.628896 367.936695 
L 573.017825 383.945951 
L 573.406755 389.426138 
L 573.795684 392.291228 
L 574.184613 390.225008 
L 574.573543 386.850359 
L 574.962472 373.684741 
L 575.740331 72.913291 
L 576.12926 97.161005 
L 576.51819 97.759849 
L 576.907119 96.077734 
L 577.296048 90.146333 
L 577.684978 99.963879 
L 578.073907 93.887156 
L 578.462837 93.54609 
L 578.851766 94.991021 
L 579.240695 99.224919 
L 579.629625 89.314819 
L 580.018554 97.485221 
L 580.407484 99.69063 
L 580.796413 92.526702 
L 581.185342 80.287099 
L 581.574272 258.459859 
L 581.963201 367.600151 
L 582.352131 382.601402 
L 582.74106 387.925719 
L 583.129989 390.404445 
L 583.518919 391.972865 
L 583.907848 386.600603 
L 584.296777 372.638865 
L 585.074636 73.687399 
L 585.463566 101.868941 
L 585.852495 94.309876 
L 586.241424 95.820891 
L 586.630354 96.05741 
L 587.019283 97.865522 
L 587.408213 76.537175 
L 587.797142 254.206653 
L 588.186071 366.844367 
L 588.575001 382.755323 
L 589.35286 392.180943 
L 589.741789 389.819456 
L 590.130718 384.518322 
L 590.519648 371.017485 
L 591.297506 73.009043 
L 591.686436 101.364117 
L 592.075365 94.591414 
L 592.464295 97.36104 
L 592.853224 93.531826 
L 593.242153 98.569638 
L 593.631083 78.02475 
L 594.020012 250.301598 
L 594.408942 368.283359 
L 594.797871 383.193425 
L 595.1868 389.106606 
L 595.57573 388.24254 
L 595.964659 389.723788 
L 596.353589 388.775968 
L 596.742518 389.456707 
L 597.131447 391.60769 
L 597.520377 391.302218 
L 597.909306 387.637348 
L 598.687165 388.243663 
L 599.076094 389.840172 
L 599.465024 385.587903 
L 599.853953 369.6766 
L 600.631812 76.560988 
L 601.020741 98.996085 
L 601.409671 92.913345 
L 601.7986 99.076555 
L 602.187529 93.63614 
L 602.576459 99.643499 
L 602.965388 77.439389 
L 603.743247 369.702475 
L 604.132176 382.278708 
L 604.521106 389.115835 
L 604.910035 389.208258 
L 605.298965 387.649341 
L 605.687894 387.930102 
L 606.076823 389.047462 
L 606.465753 391.564529 
L 606.854682 391.938234 
L 607.243611 391.331262 
L 607.632541 392.175687 
L 608.02147 392.012773 
L 608.4104 391.067445 
L 608.799329 392.056823 
L 609.188258 391.743087 
L 609.577188 392.691068 
L 610.355047 392.871576 
L 610.743976 392.522348 
L 611.132905 392.493301 
L 611.521835 392.121502 
L 611.910764 392.348566 
L 612.299694 393.356234 
L 612.688623 391.48151 
L 613.077552 392.636841 
L 613.466482 392.856024 
L 613.855411 391.484496 
L 614.63327 392.61451 
L 615.022199 391.851224 
L 615.800058 392.62871 
L 616.188987 392.418432 
L 616.577917 390.708032 
L 616.966846 391.943638 
L 617.355776 391.83381 
L 617.744705 391.462211 
L 618.133634 392.923125 
L 618.522564 392.533712 
L 619.300423 389.505304 
L 619.689352 386.123264 
L 620.078281 389.1687 
L 620.467211 390.309083 
L 620.85614 387.940717 
L 621.24507 382.712251 
L 621.633999 369.14326 
L 622.022928 252.189156 
L 622.411858 78.256456 
L 622.800787 99.636538 
L 623.189716 94.052184 
L 623.578646 97.659533 
L 623.967575 94.713657 
L 624.356505 98.432758 
L 624.745434 76.562965 
L 625.523293 369.970283 
L 625.912222 384.855187 
L 626.301152 388.31927 
L 626.690081 386.957676 
L 627.46794 387.492534 
L 627.856869 391.786366 
L 628.245799 393.058918 
L 628.634728 389.188368 
L 629.023657 386.557438 
L 629.412587 389.114325 
L 629.801516 390.303538 
L 630.190445 388.522349 
L 630.579375 381.086976 
L 630.968304 368.535817 
L 631.357234 259.11907 
L 631.746163 78.891698 
L 632.135092 99.218031 
L 632.524022 95.189337 
L 632.912951 97.376317 
L 633.301881 93.66199 
L 633.69081 102.367359 
L 634.079739 73.053619 
L 634.857598 371.415131 
L 635.246528 386.602564 
L 635.635457 389.639132 
L 636.024386 389.030236 
L 636.413316 386.042553 
L 636.802245 379.032592 
L 637.191175 367.523942 
L 637.580104 265.436452 
L 637.969033 78.00069 
L 638.357963 99.729477 
L 638.746892 95.616132 
L 639.135821 95.456461 
L 639.524751 95.104444 
L 639.91368 100.887802 
L 640.30261 73.966155 
L 641.080468 376.167195 
L 641.469398 388.238636 
L 641.858327 391.268055 
L 642.247257 388.389114 
L 642.636186 387.969168 
L 643.025115 379.82894 
L 643.414045 367.055878 
L 643.802974 268.475467 
L 644.191904 81.957676 
L 644.580833 93.459008 
L 644.969762 99.598635 
L 645.358692 96.496378 
L 645.747621 90.083172 
L 646.13655 99.579896 
L 646.914409 91.309553 
L 647.692268 98.902951 
L 648.081197 89.553121 
L 648.470127 95.675431 
L 648.859056 99.336864 
L 649.247986 91.988606 
L 649.636915 77.43274 
L 650.414774 375.706915 
L 650.803703 388.719704 
L 651.581562 387.200342 
L 651.970491 388.106863 
L 652.359421 387.917226 
L 652.74835 392.438625 
L 653.137279 391.911377 
L 653.526209 390.658356 
L 653.915138 388.717518 
L 654.304068 387.370665 
L 654.692997 391.292693 
L 655.081926 388.504214 
L 655.470856 380.223937 
L 655.859785 366.998422 
L 656.248715 275.520795 
L 656.637644 82.071842 
L 657.026573 97.549357 
L 657.415503 94.866237 
L 657.804432 97.003678 
L 658.193362 94.606265 
L 658.582291 101.021003 
L 658.97122 74.013653 
L 659.749079 377.941039 
L 660.138009 388.183623 
L 660.526938 390.075202 
L 660.915867 389.935825 
L 661.304797 385.614428 
L 661.693726 378.506169 
L 662.082655 366.437807 
L 662.471585 280.765351 
L 662.860514 82.230473 
L 663.249444 97.195345 
L 663.638373 96.906851 
L 664.027302 94.384883 
L 664.416232 94.338845 
L 664.805161 102.126207 
L 665.194091 73.030293 
L 665.58302 203.118236 
L 665.971949 378.045373 
L 666.360879 388.868639 
L 666.749808 390.524352 
L 667.138738 388.446178 
L 667.527667 384.441779 
L 667.916596 377.883711 
L 668.305526 366.830843 
L 668.694455 284.312265 
L 669.083384 83.797168 
L 669.472314 97.132551 
L 669.861243 97.341423 
L 670.250173 95.65623 
L 670.639102 93.374521 
L 671.028031 101.339915 
L 671.416961 75.069995 
L 671.80589 198.769947 
L 672.19482 377.593406 
L 672.583749 389.165862 
L 672.972678 387.081991 
L 673.361608 386.617402 
L 673.750537 385.382079 
L 674.139467 388.060326 
L 674.528396 388.734373 
L 674.917325 392.199347 
L 675.306255 390.020096 
L 676.084113 391.801538 
L 676.473043 392.384233 
L 676.861972 391.641177 
L 677.250902 392.419341 
L 677.639831 392.325169 
L 678.02876 393.299798 
L 678.41769 393.280189 
L 678.806619 391.986025 
L 679.195549 392.882434 
L 679.584478 392.298006 
L 679.973407 391.342244 
L 680.362337 391.492591 
L 680.751266 391.492125 
L 681.529125 389.544353 
L 681.918054 390.01192 
L 682.306984 390.969477 
L 682.695913 391.149764 
L 683.084843 388.164794 
L 683.473772 379.658711 
L 683.862701 366.682688 
L 684.251631 291.526696 
L 684.64056 90.128217 
L 685.029489 90.866143 
L 685.418419 97.09609 
L 685.807348 99.231956 
L 686.196278 88.885573 
L 686.585207 98.25275 
L 687.363066 92.810893 
L 687.751995 92.680617 
L 688.140925 98.99148 
L 688.529854 92.590102 
L 688.918783 92.201412 
L 689.307713 100.362817 
L 689.696642 96.939025 
L 690.085572 74.230833 
L 690.474501 191.284085 
L 690.86343 383.811561 
L 691.25236 392.984614 
L 691.641289 387.642443 
L 692.030218 387.012489 
L 692.419148 384.057976 
L 693.197007 366.856358 
L 693.585936 301.055126 
L 693.974865 89.838951 
L 694.363795 92.754308 
L 694.752724 97.311202 
L 695.530583 94.624415 
L 695.919512 101.279613 
L 696.308442 75.454694 
L 696.697371 184.214589 
L 697.086301 383.522592 
L 697.47523 387.187191 
L 697.864159 386.220917 
L 698.253089 384.24455 
L 698.642018 386.822616 
L 699.030948 385.024337 
L 699.419877 390.746032 
L 699.808806 391.145189 
L 700.197736 390.178388 
L 700.586665 390.948534 
L 700.975594 389.692078 
L 701.364524 390.223794 
L 701.753453 390.222964 
L 702.142383 391.236132 
L 702.531312 389.10786 
L 702.920241 389.592667 
L 703.309171 388.464043 
L 703.6981 390.049295 
L 704.08703 390.421216 
L 704.475959 388.940955 
L 704.864888 384.381123 
L 705.253818 377.708356 
L 705.642747 368.861362 
L 706.031677 306.07357 
L 706.420606 92.514517 
L 706.809535 93.236958 
L 707.198465 95.894186 
L 707.587394 96.635704 
L 707.976323 94.289404 
L 708.365253 101.915878 
L 708.754182 73.888824 
L 709.143112 178.592765 
L 709.532041 387.103145 
L 709.92097 389.91273 
L 710.3099 383.980313 
L 710.698829 384.68937 
L 711.087759 382.650483 
L 711.476688 378.285135 
L 711.865617 370.013872 
L 712.254547 311.919786 
L 712.643476 96.313769 
L 713.032406 87.773156 
L 713.421335 98.708843 
L 713.810264 98.742893 
L 714.199194 88.81559 
L 714.588123 100.815234 
L 714.977052 94.054581 
L 715.365982 92.143528 
L 715.754911 96.962817 
L 716.143841 95.386972 
L 716.53277 91.351639 
L 716.921699 97.321867 
L 717.699558 92.277259 
L 718.088488 97.586189 
L 718.477417 93.989088 
L 718.866346 93.051607 
L 719.255276 99.332804 
L 720.033135 90.104088 
L 720.422064 100.122716 
L 720.810993 97.07611 
L 721.199923 76.145057 
L 721.588852 170.793715 
L 721.977782 387.518892 
L 722.366711 388.49991 
L 722.75564 386.780708 
L 723.14457 385.906158 
L 723.922428 378.556695 
L 724.311358 368.737202 
L 724.700287 316.989498 
L 725.089217 97.39292 
L 725.478146 89.844542 
L 725.867075 99.622267 
L 726.256005 94.422984 
L 726.644934 95.684394 
L 727.033864 100.980327 
L 727.422793 76.365041 
L 727.811722 165.405215 
L 728.200652 384.928073 
L 728.589581 386.326954 
L 728.978511 382.670157 
L 729.36744 382.616524 
L 729.756369 387.43938 
L 730.145299 386.818252 
L 730.923157 392.157264 
L 731.312087 392.16652 
L 731.701016 391.871453 
L 732.089946 390.653928 
L 732.478875 391.522805 
L 732.867804 390.761039 
L 733.256734 392.956473 
L 733.645663 393.039257 
L 734.034593 392.034314 
L 734.423522 391.544863 
L 734.812451 392.715328 
L 735.201381 390.352427 
L 735.59031 391.503553 
L 735.97924 391.565705 
L 736.368169 392.508853 
L 736.757098 390.98138 
L 737.146028 392.242412 
L 737.534957 392.547653 
L 737.923887 392.642186 
L 738.312816 391.317985 
L 738.701745 392.975374 
L 739.090675 389.789624 
L 739.868533 392.299989 
L 740.257463 390.051332 
L 740.646392 391.027158 
L 741.035322 390.413886 
L 741.424251 390.899151 
L 741.81318 389.255855 
L 742.20211 384.62461 
L 742.979969 370.014492 
L 743.368898 327.813721 
L 743.757827 106.166593 
L 744.146757 88.467123 
L 744.535686 96.939981 
L 744.924616 98.305118 
L 745.313545 89.531914 
L 745.702474 98.559057 
L 746.091404 92.730376 
L 746.480333 94.42506 
L 746.869262 95.153222 
L 747.258192 96.433046 
L 747.647121 93.167943 
L 748.036051 97.060687 
L 748.813909 92.916069 
L 749.202839 95.913701 
L 749.591768 95.332918 
L 749.980698 92.331765 
L 750.369627 97.788197 
L 750.758556 95.860847 
L 751.147486 90.084669 
L 751.536415 99.162863 
L 751.925345 98.240737 
L 752.314274 76.897733 
L 752.703203 152.150571 
L 753.092133 378.685276 
L 753.481062 386.120606 
L 753.869991 382.512669 
L 754.258921 382.995502 
L 754.64785 382.77452 
L 755.425709 373.847053 
L 755.814638 334.494358 
L 756.203568 109.42347 
L 756.592497 86.110828 
L 756.981427 100.810926 
L 757.370356 93.99155 
L 757.759285 94.939481 
L 758.148215 99.282633 
L 758.537144 80.06693 
L 758.926074 147.251199 
L 759.315003 376.439005 
L 759.703932 379.957633 
L 760.092862 380.834976 
L 760.481791 382.563231 
L 760.870721 386.126329 
L 761.648579 389.23773 
L 762.037509 392.272887 
L 762.426438 388.429801 
L 763.204297 392.431889 
L 763.593226 391.01247 
L 763.982156 390.971933 
L 764.371085 390.589326 
L 764.760014 390.958325 
L 765.148944 390.170245 
L 765.537873 391.091868 
L 765.926803 391.604216 
L 766.315732 390.379499 
L 767.093591 385.138316 
L 767.87145 372.294561 
L 768.260379 341.32429 
L 768.649308 117.381833 
L 769.038238 84.11598 
L 769.427167 95.9754 
L 769.816096 101.461806 
L 770.205026 89.690586 
L 770.593955 95.902579 
L 770.982885 97.135838 
L 771.371814 92.379365 
L 771.760743 92.311812 
L 772.149673 97.516895 
L 772.538602 95.12117 
L 772.927532 89.656135 
L 773.316461 101.588234 
L 773.70539 96.07981 
L 774.09432 78.624285 
L 774.483249 143.191848 
L 774.872179 369.185933 
L 775.261108 379.94946 
L 775.650037 380.06348 
L 776.038967 383.708686 
L 776.427896 382.910789 
L 776.816825 379.450013 
L 777.205755 374.418504 
L 777.594684 346.747289 
L 777.983614 120.106336 
L 778.372543 82.009229 
L 778.761472 97.543931 
L 779.150402 100.275043 
L 779.539331 88.977181 
L 779.928261 96.226152 
L 780.31719 97.004617 
L 780.706119 93.208454 
L 781.095049 91.702757 
L 781.483978 99.618637 
L 781.872908 95.132172 
L 782.261837 89.221104 
L 782.650766 101.983757 
L 783.039696 97.926038 
L 783.428625 79.039783 
L 783.817555 138.712166 
L 784.206484 365.983756 
L 784.595413 378.436863 
L 785.373272 384.117615 
L 785.762201 383.187848 
L 786.151131 378.446478 
L 786.54006 375.546547 
L 786.92899 350.034284 
L 787.317919 121.287035 
L 787.706848 83.682418 
L 788.095778 102.049703 
L 788.484707 93.923012 
L 788.873637 94.33552 
L 789.262566 101.760802 
L 789.651495 80.274708 
L 790.040425 134.384557 
L 790.429354 363.745915 
L 790.818284 378.823138 
L 791.207213 378.126165 
L 791.985072 384.26292 
L 792.76293 377.978373 
L 793.15186 356.024135 
L 793.540789 124.816971 
L 793.929719 81.564968 
L 794.318648 98.286163 
L 794.707577 99.772196 
L 795.096507 88.568543 
L 795.485436 99.392197 
L 795.874366 95.219087 
L 796.263295 93.519809 
L 797.041154 96.356895 
L 797.430083 92.77723 
L 797.819013 95.673196 
L 798.207942 94.025211 
L 798.596871 94.342725 
L 798.985801 93.800417 
L 799.37473 95.142826 
L 799.76366 93.916939 
L 800.152589 94.10206 
L 800.541518 93.550403 
L 800.930448 95.498753 
L 801.319377 95.819223 
L 801.708306 92.279452 
L 802.097236 98.536766 
L 802.486165 93.005166 
L 802.875095 93.085798 
L 803.652953 98.680102 
L 804.041883 88.968443 
L 804.430812 100.717215 
L 804.819742 97.590506 
L 805.208671 80.140241 
L 805.5976 132.01557 
L 805.98653 356.301297 
L 806.375459 377.390581 
L 806.764389 378.827847 
L 807.153318 382.986954 
L 807.542247 385.065925 
L 807.931177 381.811358 
L 808.320106 376.670901 
L 808.709035 362.826042 
L 809.097965 134.168162 
L 809.486894 80.084059 
L 809.875824 98.053861 
L 810.264753 99.514933 
L 810.653682 90.477927 
L 811.042612 95.275195 
L 811.431541 98.47056 
L 811.820471 92.528858 
L 812.2094 93.278344 
L 812.598329 96.822646 
L 812.987259 96.254581 
L 813.376188 89.358395 
L 813.765118 99.248879 
L 814.154047 96.289475 
L 814.542976 80.419571 
L 814.931906 124.12124 
L 815.320835 351.634148 
L 815.709764 374.509092 
L 816.098694 380.809818 
L 816.487623 381.216522 
L 816.876553 380.847953 
L 817.265482 381.222948 
L 817.654411 379.894882 
L 818.043341 367.630054 
L 818.43227 137.328918 
L 818.8212 78.739901 
L 819.210129 103.11482 
L 819.599058 93.389423 
L 819.987988 95.391835 
L 820.376917 98.639148 
L 820.765847 84.951281 
L 821.154776 120.892266 
L 821.543705 348.836486 
L 821.932635 372.895117 
L 822.710494 383.267128 
L 823.099423 384.851393 
L 823.488352 388.804637 
L 823.877282 389.946886 
L 824.266211 389.091483 
L 824.65514 389.661735 
L 825.04407 390.445715 
L 825.432999 390.390672 
L 825.821929 391.348936 
L 826.210858 390.434688 
L 826.599787 388.444304 
L 827.377646 391.898399 
L 828.155505 390.850131 
L 828.544434 387.074795 
L 828.933364 387.40144 
L 829.711223 378.675398 
L 830.100152 380.329548 
L 830.489081 370.40968 
L 830.878011 141.530085 
L 831.26694 81.420416 
L 831.655869 102.699617 
L 832.044799 94.828674 
L 832.433728 94.73548 
L 832.822658 100.821434 
L 833.211587 83.758323 
L 833.600516 116.779114 
L 833.989446 344.080967 
L 834.378375 374.497623 
L 834.767305 377.489251 
L 835.156234 381.971539 
L 835.545163 384.049765 
L 835.934093 383.078812 
L 836.323022 383.150103 
L 836.711952 375.701066 
L 837.100881 147.330953 
L 837.48981 76.10484 
L 837.87874 99.974826 
L 838.267669 98.379398 
L 838.656598 88.799181 
L 839.045528 96.93244 
L 839.434457 96.05991 
L 839.823387 91.907909 
L 840.212316 96.637918 
L 840.601245 97.096317 
L 840.990175 90.776278 
L 841.379104 96.770096 
L 841.768034 95.63448 
L 842.156963 91.540872 
L 842.545892 95.574027 
L 842.934822 95.785893 
L 843.323751 92.815626 
L 843.712681 94.574131 
L 844.10161 100.670257 
L 844.490539 88.053778 
L 844.879469 99.239331 
L 845.268398 98.594065 
L 845.657328 84.190419 
L 846.046257 110.996778 
L 846.435186 335.215729 
L 846.824116 371.563038 
L 847.601974 382.503291 
L 847.990904 384.991351 
L 848.379833 382.96721 
L 848.768763 382.510341 
L 849.157692 380.579796 
L 849.546621 152.50149 
L 849.935551 77.822859 
L 850.32448 102.653965 
L 850.71341 93.017507 
L 851.102339 97.298748 
L 851.491268 96.408946 
L 851.880198 88.170932 
L 852.269127 108.186443 
L 852.658057 331.290377 
L 853.046986 369.451696 
L 853.824845 383.372622 
L 854.213774 387.388937 
L 854.602703 390.168834 
L 854.991633 390.657026 
L 855.380562 389.896152 
L 855.769492 390.330178 
L 856.158421 388.949649 
L 856.54735 391.623254 
L 856.93628 390.097349 
L 857.325209 390.077549 
L 857.714139 390.781938 
L 858.103068 392.516734 
L 858.491997 391.523806 
L 858.880927 392.827506 
L 859.269856 392.02507 
L 859.658786 388.386445 
L 860.047715 388.043199 
L 860.436644 383.282607 
L 860.825574 382.379482 
L 861.214503 384.312445 
L 861.603433 380.414213 
L 861.992362 159.797258 
L 862.381291 77.732425 
L 862.770221 95.453882 
L 863.15915 100.905611 
L 863.548079 92.387916 
L 863.937009 93.824442 
L 864.325938 98.011685 
L 864.714868 94.037569 
L 865.103797 92.351519 
L 865.492726 97.58395 
L 865.881656 97.152628 
L 866.270585 89.30116 
L 866.659515 99.708296 
L 867.048444 98.64983 
L 867.437373 84.237937 
L 867.826303 106.71106 
L 868.215232 322.158362 
L 868.604162 369.589779 
L 868.993091 379.213182 
L 869.38202 384.676742 
L 869.77095 383.145031 
L 870.548808 386.726916 
L 870.937738 387.114432 
L 871.326667 166.364118 
L 871.715597 74.578758 
L 872.104526 98.279163 
L 872.493455 99.042665 
L 872.882385 91.442683 
L 873.271314 93.166128 
L 873.660244 99.67574 
L 874.049173 93.901461 
L 874.438102 92.634437 
L 874.827032 96.467414 
L 875.215961 97.088729 
L 875.604891 88.682283 
L 875.99382 98.964799 
L 876.382749 98.814414 
L 876.771679 85.330105 
L 877.160608 102.736684 
L 877.549537 317.763673 
L 877.938467 368.430905 
L 878.327396 379.920016 
L 878.716326 383.306647 
L 879.105255 385.085069 
L 879.494184 382.266929 
L 879.883114 389.321936 
L 880.272043 389.564733 
L 880.660973 169.709019 
L 881.049902 73.431687 
L 881.438831 104.468368 
L 881.827761 92.994771 
L 882.21669 94.779758 
L 882.60562 98.772454 
L 882.994549 89.371043 
L 883.383478 98.459473 
L 883.772408 315.440908 
L 884.161337 367.995519 
L 884.550267 378.367691 
L 884.939196 382.156762 
L 885.328125 383.617775 
L 885.717055 385.761039 
L 886.105984 391.503917 
L 886.494913 389.460227 
L 886.883843 174.244715 
L 887.272772 73.508195 
L 887.661702 104.204757 
L 888.050631 93.347659 
L 888.82849 97.088539 
L 889.217419 90.460516 
L 889.606349 97.086972 
L 889.995278 310.452666 
L 890.384207 367.590021 
L 891.162066 386.51193 
L 891.550996 392.485278 
L 891.939925 389.384911 
L 892.328854 388.231703 
L 893.106713 391.199874 
L 893.495642 391.339907 
L 893.884572 388.376992 
L 894.273501 387.548149 
L 894.662431 386.421062 
L 895.05136 383.423172 
L 895.440289 385.904462 
L 895.829219 385.765998 
L 896.218148 176.711289 
L 896.607078 75.364859 
L 896.996007 102.472839 
L 897.384936 91.916869 
L 897.773866 96.756042 
L 898.162795 97.584239 
L 898.551725 90.985321 
L 898.940654 94.466746 
L 899.329583 305.683997 
L 899.718513 368.229615 
L 900.107442 378.260095 
L 900.496371 384.578195 
L 900.885301 386.820886 
L 901.27423 389.805707 
L 901.66316 390.645048 
L 902.052089 389.095739 
L 902.441018 182.549983 
L 902.829948 73.362552 
L 903.218877 96.840504 
L 903.607807 98.683882 
L 903.996736 92.148898 
L 904.385665 92.939322 
L 904.774595 98.004417 
L 905.163524 93.839013 
L 905.552454 91.430726 
L 905.941383 97.124679 
L 906.330312 98.032599 
L 906.719242 88.758098 
L 907.108171 99.397138 
L 907.497101 97.784813 
L 907.88603 88.983052 
L 908.274959 93.210268 
L 908.663889 299.305215 
L 909.052818 367.362986 
L 909.441747 379.358113 
L 909.830677 384.375016 
L 910.219606 386.599924 
L 910.608536 385.192702 
L 910.997465 392.482594 
L 911.386394 385.671105 
L 911.775324 187.936009 
L 912.164253 72.287068 
L 912.553183 102.459491 
L 912.942112 93.341885 
L 913.331041 97.991871 
L 913.719971 95.736122 
L 914.1089 95.120197 
L 914.49783 89.448897 
L 914.886759 296.353706 
L 915.275688 365.81067 
L 915.664618 378.605776 
L 916.442476 392.313875 
L 916.831406 389.279054 
L 917.220335 387.841166 
L 917.609265 390.123851 
L 917.998194 391.527691 
L 918.387123 392.155771 
L 918.776053 387.371459 
L 919.553912 387.161554 
L 919.942841 385.887112 
L 920.33177 387.409165 
L 920.7207 381.716389 
L 921.109629 193.589946 
L 921.498559 73.720682 
L 921.887488 102.161253 
L 922.276417 93.022266 
L 922.665347 97.25555 
L 923.054276 95.684075 
L 923.443206 94.918329 
L 923.832135 88.165086 
L 924.221064 289.449636 
L 924.609994 363.466483 
L 924.998923 379.40852 
L 925.387852 387.286196 
L 925.776782 391.263436 
L 926.165711 389.830934 
L 926.554641 387.748983 
L 926.94357 390.535828 
L 927.332499 390.366104 
L 927.721429 390.544574 
L 928.110358 390.462819 
L 928.499288 391.061844 
L 929.277146 389.987209 
L 929.666076 390.479061 
L 930.055005 392.384676 
L 930.832864 389.860143 
L 931.221793 386.067332 
L 931.610723 388.352081 
L 931.999652 386.972521 
L 932.388581 387.552835 
L 932.777511 390.452538 
L 933.16644 378.598332 
L 933.944299 74.151036 
L 934.333228 96.330461 
L 934.722158 98.569894 
L 935.111087 94.397942 
L 935.500017 91.709389 
L 935.888946 97.914701 
L 936.666805 91.06842 
L 937.055734 96.231052 
L 937.444664 98.948342 
L 937.833593 89.061712 
L 938.222522 96.42719 
L 938.611452 98.267165 
L 939.000381 90.253628 
L 939.38931 86.8501 
L 939.77824 281.174717 
L 940.167169 368.073709 
L 940.556099 378.77158 
L 940.945028 385.799846 
L 941.333957 389.183792 
L 942.111816 387.608357 
L 942.500746 378.055041 
L 943.278604 71.916319 
L 943.667534 104.120776 
L 944.056463 93.049299 
L 944.834322 97.402629 
L 945.223251 97.79724 
L 945.612181 81.351291 
L 946.00111 278.184682 
L 946.39004 365.626463 
L 946.778969 377.648253 
L 947.167898 385.522746 
L 947.556828 391.07272 
L 948.334686 388.01233 
L 948.723616 376.322632 
L 949.501475 71.3124 
L 949.890404 104.681891 
L 950.279333 92.178731 
L 950.668263 96.336861 
L 951.057192 96.833456 
L 951.446122 97.14939 
L 951.835051 81.393636 
L 952.22398 272.462782 
L 952.61291 365.762605 
L 953.001839 380.535291 
L 953.390769 387.65313 
L 953.779698 391.130744 
L 954.168627 393.245619 
L 954.557557 388.977075 
L 954.946486 376.645022 
L 955.724345 73.816961 
L 956.113274 97.239936 
L 956.502204 100.119113 
L 956.891133 92.8648 
L 957.280062 91.392804 
L 957.668992 99.98511 
L 958.057921 94.348622 
L 958.446851 92.215923 
L 959.224709 98.383501 
L 959.613639 88.422357 
L 960.002568 98.7612 
L 960.391498 97.625701 
L 961.169356 85.290006 
L 961.558286 263.425056 
L 961.947215 367.239927 
L 962.336144 381.859267 
L 962.725074 389.964362 
L 963.502933 390.829215 
L 963.891862 388.512481 
L 964.280791 389.026628 
L 964.669721 389.333073 
L 965.05865 392.958681 
L 965.836509 391.961377 
L 966.614368 392.881624 
L 967.003297 392.588338 
L 967.392227 390.599508 
L 968.170085 392.872693 
L 968.559015 392.240342 
L 969.336874 391.631475 
L 969.725803 390.062687 
L 970.114732 391.242585 
L 970.503662 392.937259 
L 970.892591 392.251802 
L 971.67045 386.803882 
L 972.059379 387.852638 
L 972.448309 388.412545 
L 972.837238 389.53506 
L 973.226167 386.1185 
L 973.615097 370.949155 
L 974.392956 74.706672 
L 974.781885 100.360507 
L 975.170814 93.235237 
L 975.559744 98.057799 
L 975.948673 95.909237 
L 976.337603 98.392135 
L 976.726532 80.121035 
L 977.115461 254.330257 
L 977.504391 367.926368 
L 977.89332 382.015998 
L 978.282249 390.811009 
L 978.671179 388.507207 
L 979.060108 388.161286 
L 979.449038 389.062723 
L 980.226896 392.439839 
L 980.615826 391.426014 
L 981.004755 387.943462 
L 981.393685 387.696254 
L 981.782614 388.5245 
L 982.171543 388.793412 
L 982.560473 385.127165 
L 982.949402 371.192658 
L 983.727261 74.493499 
L 984.11619 101.289745 
L 984.50512 93.644427 
L 984.894049 98.037659 
L 985.282979 95.454901 
L 985.671908 98.179883 
L 986.060837 76.522176 
L 986.449767 251.818927 
L 986.838696 366.75105 
L 987.227625 380.713093 
L 987.616555 389.621127 
L 988.005484 390.611802 
L 988.394414 390.064288 
L 988.783343 383.459442 
L 989.172272 369.325876 
L 989.950131 73.101128 
L 990.339061 101.460752 
L 990.72799 93.895824 
L 991.116919 96.762166 
L 991.505849 94.264778 
L 991.894778 98.691142 
L 992.283708 76.747443 
L 993.061566 367.760395 
L 993.450496 382.648606 
L 993.839425 389.287212 
L 994.228354 389.795524 
L 994.617284 388.426112 
L 995.006213 389.920899 
L 995.395143 387.844296 
L 995.784072 391.609409 
L 996.173001 391.177839 
L 996.561931 391.487108 
L 996.95086 393.230152 
L 997.33979 391.773362 
L 997.728719 393.266169 
L 998.117648 391.02246 
L 998.506578 393.284888 
L 998.895507 391.771575 
L 999.284437 392.118572 
L 999.673366 390.212845 
L 1000.062295 392.853128 
L 1000.451225 392.067862 
L 1000.840154 392.918779 
L 1001.229083 392.181403 
L 1001.618013 390.143853 
L 1002.006942 390.357242 
L 1002.395872 391.086198 
L 1002.784801 388.632786 
L 1003.17373 388.16491 
L 1003.56266 392.877229 
L 1003.951589 389.869164 
L 1004.340519 383.015896 
L 1004.729448 368.332179 
L 1005.118377 247.20235 
L 1005.507307 77.141642 
L 1005.896236 96.950355 
L 1006.285166 96.695387 
L 1006.674095 96.756153 
L 1007.063024 89.635684 
L 1007.451954 100.150886 
L 1007.840883 92.691845 
L 1008.229813 93.344646 
L 1008.618742 96.726286 
L 1009.007671 93.72776 
L 1009.396601 95.224246 
L 1009.78553 94.328932 
L 1010.174459 95.283123 
L 1010.952318 93.743288 
L 1011.341248 95.843376 
L 1011.730177 94.811537 
L 1012.119106 94.8623 
L 1012.508036 95.518418 
L 1012.896965 93.234883 
L 1013.285895 94.700547 
L 1013.674824 93.530648 
L 1014.063753 94.900821 
L 1014.452683 93.817463 
L 1014.841612 95.940022 
L 1015.230542 93.917739 
L 1015.619471 95.010238 
L 1016.0084 94.742958 
L 1016.39733 93.441873 
L 1016.786259 95.576655 
L 1017.175188 94.393471 
L 1017.953047 94.939781 
L 1018.341977 95.472408 
L 1018.730906 94.136916 
L 1019.119835 94.894775 
L 1019.508765 94.489813 
L 1019.897694 94.270989 
L 1020.286624 94.817671 
L 1020.675553 94.728172 
L 1021.064482 93.913621 
L 1021.453412 94.765472 
L 1021.842341 94.482277 
L 1022.231271 95.316148 
L 1022.6202 93.802841 
L 1023.009129 95.044392 
L 1023.398059 95.087428 
L 1023.786988 94.352565 
L 1024.175917 94.57848 
L 1024.564847 94.634604 
L 1024.953776 93.204185 
L 1025.342706 94.452158 
L 1025.731635 94.22657 
L 1026.120564 94.493724 
L 1026.509494 94.029759 
L 1027.676282 95.379125 
L 1028.065211 94.371858 
L 1028.454141 94.759116 
L 1028.84307 93.865991 
L 1029.232 96.733424 
L 1029.620929 94.452272 
L 1030.009858 94.857765 
L 1030.398788 94.310103 
L 1030.787717 94.547857 
L 1031.176647 93.974538 
L 1031.565576 95.510138 
L 1031.954505 94.09177 
L 1032.343435 95.555026 
L 1032.732364 95.265788 
L 1033.121293 94.004875 
L 1033.510223 94.901847 
L 1033.899152 95.455964 
L 1034.288082 93.704278 
L 1034.677011 94.985887 
L 1035.06594 94.417164 
L 1035.45487 92.815977 
L 1035.843799 96.281749 
L 1036.232729 93.659525 
L 1036.621658 95.527235 
L 1037.010587 94.779202 
L 1037.399517 95.341803 
L 1037.788446 93.575002 
L 1038.177376 96.339376 
L 1038.566305 94.203042 
L 1038.955234 95.458741 
L 1039.344164 94.180761 
L 1039.733093 95.115816 
L 1040.122022 94.26843 
L 1040.510952 94.522506 
L 1040.899881 94.042066 
L 1041.288811 94.993769 
L 1041.67774 95.471639 
L 1042.066669 95.227069 
L 1042.455599 93.407646 
L 1042.844528 96.016773 
L 1043.233458 93.09695 
L 1043.622387 94.87468 
L 1044.011316 96.047758 
L 1044.400246 93.407028 
L 1044.789175 95.379265 
L 1045.178105 93.331456 
L 1045.567034 94.995743 
L 1045.955963 95.551851 
L 1046.344893 94.370978 
L 1046.733822 96.316458 
L 1047.122752 94.817363 
L 1047.511681 95.131094 
L 1047.90061 94.424025 
L 1048.28954 95.33713 
L 1048.678469 94.376982 
L 1049.067398 95.634056 
L 1049.456328 94.856651 
L 1049.845257 93.558043 
L 1050.234187 96.988014 
L 1050.623116 94.834424 
L 1051.012045 96.177591 
L 1051.789904 93.863404 
L 1052.178834 95.319339 
L 1052.567763 95.389422 
L 1052.956692 94.497946 
L 1053.345622 94.610433 
L 1053.734551 95.493337 
L 1054.123481 94.980338 
L 1054.51241 94.065025 
L 1054.901339 94.979924 
L 1055.290269 92.993878 
L 1055.679198 95.036146 
L 1056.068127 95.908979 
L 1056.845986 94.886892 
L 1057.234916 93.003245 
L 1057.623845 94.425946 
L 1058.012774 94.599594 
L 1058.401704 94.62923 
L 1058.790633 94.463279 
L 1059.179563 94.019409 
L 1059.568492 94.552845 
L 1059.957421 95.449105 
L 1060.346351 94.250191 
L 1060.73528 94.921174 
L 1061.513139 94.087746 
L 1061.902068 95.369546 
L 1062.290998 93.738191 
L 1062.679927 94.788118 
L 1063.068856 96.269506 
L 1063.457786 93.587498 
L 1063.846715 94.982636 
L 1064.235645 92.323605 
L 1064.624574 97.598077 
L 1065.013503 93.393361 
L 1065.402433 93.992046 
L 1066.180292 94.439972 
L 1066.569221 95.786007 
L 1066.95815 93.993247 
L 1067.34708 95.542099 
L 1067.736009 94.927974 
L 1068.124939 94.979742 
L 1068.902797 94.462668 
L 1069.291727 95.077704 
L 1069.680656 94.385129 
L 1070.069586 94.2874 
L 1070.847444 95.360733 
L 1071.236374 95.484622 
L 1071.625303 94.522821 
L 1072.014232 95.569527 
L 1072.403162 94.269775 
L 1072.792091 95.91806 
L 1073.181021 94.564112 
L 1073.56995 95.459145 
L 1073.958879 95.308196 
L 1074.736738 94.660203 
L 1075.125668 96.577818 
L 1075.514597 93.354668 
L 1075.903526 94.38174 
L 1076.292456 94.8122 
L 1076.681385 93.816948 
L 1077.070315 95.768603 
L 1077.459244 94.531054 
L 1078.237103 94.315159 
L 1078.626032 94.983226 
L 1079.014961 94.393111 
L 1079.403891 94.19373 
L 1079.79282 95.734495 
L 1080.18175 94.122542 
L 1080.570679 94.610913 
L 1080.959608 94.42117 
L 1081.348538 94.798588 
L 1081.737467 95.426881 
L 1082.126397 94.373125 
L 1082.515326 94.332483 
L 1082.904255 95.625801 
L 1083.293185 94.570343 
L 1084.848902 94.626605 
L 1085.237832 94.961733 
L 1085.626761 94.344364 
L 1086.01569 94.924808 
L 1086.40462 94.088239 
L 1087.182479 94.123315 
L 1087.571408 94.634349 
L 1088.349267 94.402325 
L 1088.738196 93.48524 
L 1089.127126 93.673241 
L 1089.516055 95.310175 
L 1089.904984 93.909959 
L 1091.071773 94.853714 
L 1091.460702 94.311426 
L 1091.849631 94.25885 
L 1092.238561 94.656933 
L 1092.62749 93.404895 
L 1093.01642 95.282115 
L 1093.405349 95.163806 
L 1093.794278 92.702869 
L 1094.183208 95.52573 
L 1094.572137 94.029141 
L 1094.961066 95.40872 
L 1095.349996 94.248593 
L 1095.738925 96.66533 
L 1096.127855 94.87064 
L 1096.516784 94.076316 
L 1096.905713 94.511235 
L 1097.294643 94.168962 
L 1097.683572 95.809328 
L 1098.072502 94.221636 
L 1098.461431 94.245374 
L 1098.85036 95.284744 
L 1099.628219 95.018706 
L 1100.017149 95.927687 
L 1100.406078 93.278046 
L 1100.795007 94.782138 
L 1101.183937 95.489471 
L 1101.572866 93.568865 
L 1101.961795 95.129817 
L 1102.350725 94.274851 
L 1102.739654 93.759722 
L 1103.128584 96.051287 
L 1103.517513 94.547907 
L 1103.906442 95.547741 
L 1104.684301 93.779209 
L 1105.073231 93.588547 
L 1105.46216 95.628707 
L 1105.851089 94.441615 
L 1106.240019 94.094168 
L 1106.628948 95.993261 
L 1107.017878 94.115766 
L 1107.406807 95.76384 
L 1107.795736 95.349617 
L 1108.184666 93.523317 
L 1108.573595 95.242477 
L 1108.962525 94.70767 
L 1109.351454 94.871746 
L 1109.740383 92.958469 
L 1110.129313 95.916187 
L 1110.518242 94.260382 
L 1110.907171 95.221848 
L 1111.296101 94.944115 
L 1111.68503 94.14133 
L 1112.07396 95.778148 
L 1112.462889 94.354514 
L 1112.851818 94.009794 
L 1113.240748 94.775219 
L 1113.629677 93.899751 
L 1114.018607 94.191078 
L 1114.407536 95.901397 
L 1114.796465 92.87753 
L 1115.185395 95.546768 
L 1115.574324 95.597967 
L 1115.963254 93.61827 
L 1116.352183 96.39788 
L 1116.741112 94.246957 
L 1117.518971 94.109586 
L 1117.9079 95.343268 
L 1118.29683 94.720504 
L 1118.685759 95.413251 
L 1119.074689 94.063913 
L 1119.463618 94.637043 
L 1119.852547 94.586173 
L 1120.241477 95.096866 
L 1120.630406 93.406646 
L 1121.019336 94.716274 
L 1121.408265 93.897994 
L 1121.797194 95.795352 
L 1122.186124 93.138076 
L 1122.575053 95.481939 
L 1122.963983 93.301369 
L 1123.352912 95.298738 
L 1123.741841 94.219031 
L 1124.130771 95.088639 
L 1124.5197 93.599172 
L 1124.908629 95.74405 
L 1125.297559 95.204539 
L 1125.686488 94.341332 
L 1126.075418 95.25519 
L 1126.464347 93.781241 
L 1126.853276 94.587591 
L 1127.242206 95.042628 
L 1127.631135 94.762345 
L 1128.020065 95.952867 
L 1128.408994 93.784896 
L 1128.797923 94.900111 
L 1129.186853 93.274064 
L 1129.575782 94.370025 
L 1129.964712 94.663714 
L 1130.353641 93.741247 
L 1130.74257 94.988924 
L 1131.1315 94.762712 
L 1131.909359 95.268259 
L 1132.687217 94.047006 
L 1133.076147 94.298096 
L 1133.465076 94.924445 
L 1133.854005 94.771018 
L 1134.242935 94.891726 
L 1134.631864 94.01691 
L 1135.020794 95.251327 
L 1135.409723 95.273409 
L 1135.798652 94.943855 
L 1136.187582 94.213566 
L 1136.576511 95.24374 
L 1136.965441 95.05863 
L 1137.35437 95.780692 
L 1137.743299 94.104072 
L 1138.132229 94.918504 
L 1138.521158 94.15298 
L 1139.687946 95.126152 
L 1140.076876 96.062917 
L 1140.465805 94.09769 
L 1140.854734 93.869705 
L 1141.632593 94.857905 
L 1142.021523 94.095118 
L 1142.410452 94.398491 
L 1142.799381 95.608735 
L 1143.57724 94.001608 
L 1143.96617 94.252022 
L 1144.355099 94.236926 
L 1144.744028 94.486155 
L 1145.132958 95.238318 
L 1145.521887 95.452617 
L 1145.910817 94.779941 
L 1146.299746 94.650485 
L 1146.688675 94.947225 
L 1147.077605 94.885257 
L 1147.466534 95.003558 
L 1147.855463 93.408234 
L 1148.244393 94.92484 
L 1148.633322 95.24577 
L 1149.022252 93.613888 
L 1149.411181 94.623422 
L 1149.80011 93.989692 
L 1150.18904 94.94185 
L 1150.577969 94.674443 
L 1150.966899 94.891033 
L 1151.355828 94.675916 
L 1152.133687 95.288131 
L 1152.522616 93.865323 
L 1152.911546 94.853118 
L 1153.300475 94.287622 
L 1153.689404 95.924237 
L 1154.078334 93.758888 
L 1154.467263 95.22894 
L 1154.856193 93.772296 
L 1155.245122 95.929501 
L 1155.634051 93.264685 
L 1156.022981 95.582502 
L 1156.41191 94.075875 
L 1156.800839 94.10016 
L 1157.189769 95.288117 
L 1157.578698 94.909359 
L 1157.967628 95.048657 
L 1158.356557 94.877441 
L 1158.745486 93.589252 
L 1159.134416 95.898076 
L 1159.523345 93.843089 
L 1159.912275 93.436406 
L 1160.301204 95.055984 
L 1160.690133 94.362118 
L 1161.079063 94.025535 
L 1161.856922 94.838067 
L 1162.245851 95.048191 
L 1162.63478 94.490109 
L 1163.02371 95.058426 
L 1163.412639 93.145331 
L 1163.801568 94.695547 
L 1164.190498 94.221403 
L 1164.579427 95.039189 
L 1164.968357 94.226499 
L 1165.357286 95.55297 
L 1165.746215 94.303122 
L 1166.135145 95.66755 
L 1166.524074 94.493244 
L 1166.913004 93.93502 
L 1167.301933 95.944206 
L 1167.690862 94.110811 
L 1168.079792 95.160293 
L 1168.468721 93.942407 
L 1168.857651 95.082266 
L 1169.24658 94.088762 
L 1169.635509 95.963277 
L 1170.024439 94.977688 
L 1170.413368 94.733162 
L 1170.802298 95.86537 
L 1171.191227 94.1696 
L 1171.580156 94.601718 
L 1171.969086 94.472927 
L 1172.358015 94.805196 
L 1172.746944 94.145259 
L 1173.135874 95.186578 
L 1173.524803 94.959893 
L 1173.913733 94.589747 
L 1174.302662 95.716997 
L 1174.691591 95.091392 
L 1175.080521 94.707066 
L 1175.46945 94.49993 
L 1175.85838 95.002803 
L 1176.247309 92.871588 
L 1176.636238 94.643184 
L 1177.025168 93.111662 
L 1177.803027 95.905645 
L 1178.191956 94.921439 
L 1178.580885 94.475869 
L 1178.969815 94.263285 
L 1179.358744 94.868489 
L 1179.747673 94.048908 
L 1180.136603 94.118484 
L 1180.525532 94.774288 
L 1181.303391 95.271415 
L 1181.69232 96.284755 
L 1182.08125 94.419266 
L 1182.470179 95.007432 
L 1183.248038 94.082854 
L 1183.636967 94.395728 
L 1184.025897 93.658248 
L 1184.414826 95.567708 
L 1184.803756 94.181045 
L 1185.192685 95.803805 
L 1185.581614 95.459662 
L 1185.970544 94.372332 
L 1187.137332 94.578066 
L 1187.526261 93.608694 
L 1187.915191 94.791591 
L 1188.693049 93.335491 
L 1189.081979 94.877171 
L 1189.470908 95.336978 
L 1189.859838 94.412013 
L 1190.248767 94.892779 
L 1190.637696 95.902493 
L 1191.026626 93.78037 
L 1191.415555 94.912926 
L 1191.804485 94.724936 
L 1192.193414 99.812768 
L 1192.582343 86.118248 
L 1192.971273 105.033995 
L 1192.971273 105.033995 
" style="fill:none;stroke:#1f77b4;stroke-linecap:square;stroke-width:1.5;"/>
   </g>
   <g id="patch_3">
    <path d="M 172.44 409.4712 
L 172.44 55.2096 
" style="fill:none;stroke:#000000;stroke-linecap:square;stroke-linejoin:miter;stroke-width:0.8;"/>
   </g>
   <g id="patch_4">
    <path d="M 1241.568 409.4712 
L 1241.568 55.2096 
" style="fill:none;stroke:#000000;stroke-linecap:square;stroke-linejoin:miter;stroke-width:0.8;"/>
   </g>
   <g id="patch_5">
    <path d="M 172.44 409.4712 
L 1241.568 409.4712 
" style="fill:none;stroke:#000000;stroke-linecap:square;stroke-linejoin:miter;stroke-width:0.8;"/>
   </g>
   <g id="patch_6">
    <path d="M 172.44 55.2096 
L 1241.568 55.2096 
" style="fill:none;stroke:#000000;stroke-linecap:square;stroke-linejoin:miter;stroke-width:0.8;"/>
   </g>
  </g>
 </g>
 <defs>
  <clipPath id="pa95de61054">
   <rect height="354.2616" width="1069.128" x="172.44" y="55.2096"/>
  </clipPath>
 </defs>
</svg>
