<?xml version="1.0" encoding="utf-8" standalone="no"?>
<!DOCTYPE svg PUBLIC "-//W3C//DTD SVG 1.1//EN"
  "http://www.w3.org/Graphics/SVG/1.1/DTD/svg11.dtd">
<!-- Created with matplotlib (http://matplotlib.org/) -->
<svg height="460pt" version="1.1" viewBox="0 0 1379 460" width="1379pt" xmlns="http://www.w3.org/2000/svg" xmlns:xlink="http://www.w3.org/1999/xlink">
 <defs>
  <style type="text/css">
*{stroke-linecap:butt;stroke-linejoin:round;}
  </style>
 </defs>
 <g id="figure_1">
  <g id="patch_1">
   <path d="M 0 460.08 
L 1379.52 460.08 
L 1379.52 0 
L 0 0 
z
" style="fill:#ffffff;"/>
  </g>
  <g id="axes_1">
   <g id="patch_2">
    <path d="M 172.44 409.4712 
L 1241.568 409.4712 
L 1241.568 55.2096 
L 172.44 55.2096 
z
" style="fill:#ffffff;"/>
   </g>
   <g id="matplotlib.axis_1">
    <g id="xtick_1">
     <g id="line2d_1">
      <defs>
       <path d="M 0 0 
L 0 3.5 
" id="m666ff48d40" style="stroke:#000000;stroke-width:0.8;"/>
      </defs>
      <g>
       <use style="stroke:#000000;stroke-width:0.8;" x="221.036727" xlink:href="#m666ff48d40" y="409.4712"/>
      </g>
     </g>
     <g id="text_1">
      <!-- 0 -->
      <defs>
       <path d="M 31.78125 66.40625 
Q 24.171875 66.40625 20.328125 58.90625 
Q 16.5 51.421875 16.5 36.375 
Q 16.5 21.390625 20.328125 13.890625 
Q 24.171875 6.390625 31.78125 6.390625 
Q 39.453125 6.390625 43.28125 13.890625 
Q 47.125 21.390625 47.125 36.375 
Q 47.125 51.421875 43.28125 58.90625 
Q 39.453125 66.40625 31.78125 66.40625 
M 31.78125 74.21875 
Q 44.046875 74.21875 50.515625 64.515625 
Q 56.984375 54.828125 56.984375 36.375 
Q 56.984375 17.96875 50.515625 8.265625 
Q 44.046875 -1.421875 31.78125 -1.421875 
Q 19.53125 -1.421875 13.0625 8.265625 
Q 6.59375 17.96875 6.59375 36.375 
Q 6.59375 54.828125 13.0625 64.515625 
Q 19.53125 74.21875 31.78125 74.21875 
" id="DejaVuSans-30"/>
      </defs>
      <g transform="translate(217.855477 424.069637)scale(0.1 -0.1)">
       <use xlink:href="#DejaVuSans-30"/>
      </g>
     </g>
    </g>
    <g id="xtick_2">
     <g id="line2d_2">
      <g>
       <use style="stroke:#000000;stroke-width:0.8;" x="458.441355" xlink:href="#m666ff48d40" y="409.4712"/>
      </g>
     </g>
     <g id="text_2">
      <!-- 500 -->
      <defs>
       <path d="M 10.796875 72.90625 
L 49.515625 72.90625 
L 49.515625 64.59375 
L 19.828125 64.59375 
L 19.828125 46.734375 
Q 21.96875 47.46875 24.109375 47.828125 
Q 26.265625 48.1875 28.421875 48.1875 
Q 40.625 48.1875 47.75 41.5 
Q 54.890625 34.8125 54.890625 23.390625 
Q 54.890625 11.625 47.5625 5.09375 
Q 40.234375 -1.421875 26.90625 -1.421875 
Q 22.3125 -1.421875 17.546875 -0.640625 
Q 12.796875 0.140625 7.71875 1.703125 
L 7.71875 11.625 
Q 12.109375 9.234375 16.796875 8.0625 
Q 21.484375 6.890625 26.703125 6.890625 
Q 35.15625 6.890625 40.078125 11.328125 
Q 45.015625 15.765625 45.015625 23.390625 
Q 45.015625 31 40.078125 35.4375 
Q 35.15625 39.890625 26.703125 39.890625 
Q 22.75 39.890625 18.8125 39.015625 
Q 14.890625 38.140625 10.796875 36.28125 
z
" id="DejaVuSans-35"/>
      </defs>
      <g transform="translate(448.897605 424.069637)scale(0.1 -0.1)">
       <use xlink:href="#DejaVuSans-35"/>
       <use x="63.623047" xlink:href="#DejaVuSans-30"/>
       <use x="127.246094" xlink:href="#DejaVuSans-30"/>
      </g>
     </g>
    </g>
    <g id="xtick_3">
     <g id="line2d_3">
      <g>
       <use style="stroke:#000000;stroke-width:0.8;" x="695.845983" xlink:href="#m666ff48d40" y="409.4712"/>
      </g>
     </g>
     <g id="text_3">
      <!-- 1000 -->
      <defs>
       <path d="M 12.40625 8.296875 
L 28.515625 8.296875 
L 28.515625 63.921875 
L 10.984375 60.40625 
L 10.984375 69.390625 
L 28.421875 72.90625 
L 38.28125 72.90625 
L 38.28125 8.296875 
L 54.390625 8.296875 
L 54.390625 0 
L 12.40625 0 
z
" id="DejaVuSans-31"/>
      </defs>
      <g transform="translate(683.120983 424.069637)scale(0.1 -0.1)">
       <use xlink:href="#DejaVuSans-31"/>
       <use x="63.623047" xlink:href="#DejaVuSans-30"/>
       <use x="127.246094" xlink:href="#DejaVuSans-30"/>
       <use x="190.869141" xlink:href="#DejaVuSans-30"/>
      </g>
     </g>
    </g>
    <g id="xtick_4">
     <g id="line2d_4">
      <g>
       <use style="stroke:#000000;stroke-width:0.8;" x="933.25061" xlink:href="#m666ff48d40" y="409.4712"/>
      </g>
     </g>
     <g id="text_4">
      <!-- 1500 -->
      <g transform="translate(920.52561 424.069637)scale(0.1 -0.1)">
       <use xlink:href="#DejaVuSans-31"/>
       <use x="63.623047" xlink:href="#DejaVuSans-35"/>
       <use x="127.246094" xlink:href="#DejaVuSans-30"/>
       <use x="190.869141" xlink:href="#DejaVuSans-30"/>
      </g>
     </g>
    </g>
    <g id="xtick_5">
     <g id="line2d_5">
      <g>
       <use style="stroke:#000000;stroke-width:0.8;" x="1170.655238" xlink:href="#m666ff48d40" y="409.4712"/>
      </g>
     </g>
     <g id="text_5">
      <!-- 2000 -->
      <defs>
       <path d="M 19.1875 8.296875 
L 53.609375 8.296875 
L 53.609375 0 
L 7.328125 0 
L 7.328125 8.296875 
Q 12.9375 14.109375 22.625 23.890625 
Q 32.328125 33.6875 34.8125 36.53125 
Q 39.546875 41.84375 41.421875 45.53125 
Q 43.3125 49.21875 43.3125 52.78125 
Q 43.3125 58.59375 39.234375 62.25 
Q 35.15625 65.921875 28.609375 65.921875 
Q 23.96875 65.921875 18.8125 64.3125 
Q 13.671875 62.703125 7.8125 59.421875 
L 7.8125 69.390625 
Q 13.765625 71.78125 18.9375 73 
Q 24.125 74.21875 28.421875 74.21875 
Q 39.75 74.21875 46.484375 68.546875 
Q 53.21875 62.890625 53.21875 53.421875 
Q 53.21875 48.921875 51.53125 44.890625 
Q 49.859375 40.875 45.40625 35.40625 
Q 44.1875 33.984375 37.640625 27.21875 
Q 31.109375 20.453125 19.1875 8.296875 
" id="DejaVuSans-32"/>
      </defs>
      <g transform="translate(1157.930238 424.069637)scale(0.1 -0.1)">
       <use xlink:href="#DejaVuSans-32"/>
       <use x="63.623047" xlink:href="#DejaVuSans-30"/>
       <use x="127.246094" xlink:href="#DejaVuSans-30"/>
       <use x="190.869141" xlink:href="#DejaVuSans-30"/>
      </g>
     </g>
    </g>
   </g>
   <g id="matplotlib.axis_2">
    <g id="ytick_1">
     <g id="line2d_6">
      <defs>
       <path d="M 0 0 
L -3.5 0 
" id="m905ad74eb5" style="stroke:#000000;stroke-width:0.8;"/>
      </defs>
      <g>
       <use style="stroke:#000000;stroke-width:0.8;" x="172.44" xlink:href="#m905ad74eb5" y="393.376341"/>
      </g>
     </g>
     <g id="text_6">
      <!-- 0 -->
      <g transform="translate(159.0775 397.17556)scale(0.1 -0.1)">
       <use xlink:href="#DejaVuSans-30"/>
      </g>
     </g>
    </g>
    <g id="ytick_2">
     <g id="line2d_7">
      <g>
       <use style="stroke:#000000;stroke-width:0.8;" x="172.44" xlink:href="#m905ad74eb5" y="324.703197"/>
      </g>
     </g>
     <g id="text_7">
      <!-- 500 -->
      <g transform="translate(146.3525 328.502415)scale(0.1 -0.1)">
       <use xlink:href="#DejaVuSans-35"/>
       <use x="63.623047" xlink:href="#DejaVuSans-30"/>
       <use x="127.246094" xlink:href="#DejaVuSans-30"/>
      </g>
     </g>
    </g>
    <g id="ytick_3">
     <g id="line2d_8">
      <g>
       <use style="stroke:#000000;stroke-width:0.8;" x="172.44" xlink:href="#m905ad74eb5" y="256.030052"/>
      </g>
     </g>
     <g id="text_8">
      <!-- 1000 -->
      <g transform="translate(139.99 259.829271)scale(0.1 -0.1)">
       <use xlink:href="#DejaVuSans-31"/>
       <use x="63.623047" xlink:href="#DejaVuSans-30"/>
       <use x="127.246094" xlink:href="#DejaVuSans-30"/>
       <use x="190.869141" xlink:href="#DejaVuSans-30"/>
      </g>
     </g>
    </g>
    <g id="ytick_4">
     <g id="line2d_9">
      <g>
       <use style="stroke:#000000;stroke-width:0.8;" x="172.44" xlink:href="#m905ad74eb5" y="187.356908"/>
      </g>
     </g>
     <g id="text_9">
      <!-- 1500 -->
      <g transform="translate(139.99 191.156126)scale(0.1 -0.1)">
       <use xlink:href="#DejaVuSans-31"/>
       <use x="63.623047" xlink:href="#DejaVuSans-35"/>
       <use x="127.246094" xlink:href="#DejaVuSans-30"/>
       <use x="190.869141" xlink:href="#DejaVuSans-30"/>
      </g>
     </g>
    </g>
    <g id="ytick_5">
     <g id="line2d_10">
      <g>
       <use style="stroke:#000000;stroke-width:0.8;" x="172.44" xlink:href="#m905ad74eb5" y="118.683763"/>
      </g>
     </g>
     <g id="text_10">
      <!-- 2000 -->
      <g transform="translate(139.99 122.482982)scale(0.1 -0.1)">
       <use xlink:href="#DejaVuSans-32"/>
       <use x="63.623047" xlink:href="#DejaVuSans-30"/>
       <use x="127.246094" xlink:href="#DejaVuSans-30"/>
       <use x="190.869141" xlink:href="#DejaVuSans-30"/>
      </g>
     </g>
    </g>
   </g>
   <g id="line2d_11">
    <path clip-path="url(#pab766adecd)" d="M 221.036727 377.285528 
L 221.511537 382.599362 
L 221.986346 385.830313 
L 222.461155 387.306937 
L 223.410774 389.030976 
L 224.360392 389.663825 
L 225.310011 390.781025 
L 225.78482 391.10918 
L 226.259629 389.737458 
L 226.734438 390.977861 
L 227.209248 391.419106 
L 227.684057 391.668864 
L 229.108485 391.823792 
L 229.583294 392.248438 
L 230.058103 391.760236 
L 230.532912 392.019848 
L 231.007722 391.847549 
L 231.482531 391.803695 
L 231.95734 392.543281 
L 232.432149 392.062656 
L 232.906959 392.100303 
L 233.381768 392.661129 
L 233.856577 392.255136 
L 234.331386 392.6281 
L 234.806196 392.028478 
L 235.281005 392.754989 
L 235.755814 392.460421 
L 236.705433 392.237284 
L 237.180242 392.684412 
L 237.655051 392.695863 
L 238.12986 392.444666 
L 238.60467 392.421149 
L 239.079479 392.714963 
L 240.029097 392.672826 
L 240.978716 392.413598 
L 241.928335 392.883392 
L 242.403144 392.611072 
L 242.877953 392.781381 
L 243.352762 392.725154 
L 243.827572 392.790614 
L 244.302381 392.629548 
L 244.77719 392.638934 
L 245.251999 393.018877 
L 245.726809 392.923431 
L 246.676427 392.534281 
L 247.151236 392.490314 
L 247.626046 392.683244 
L 248.100855 392.61503 
L 248.575664 393.005504 
L 249.050473 392.523713 
L 250.000092 393.141551 
L 250.474901 392.70902 
L 250.94971 393.275481 
L 251.899329 392.766849 
L 252.374138 392.97977 
L 253.323757 392.588266 
L 253.798566 393.083461 
L 255.222994 392.696897 
L 255.697803 392.689751 
L 256.172612 393.273301 
L 256.647421 392.973001 
L 257.122231 393.117627 
L 257.59704 392.729056 
L 258.071849 392.692396 
L 258.546658 393.228949 
L 259.021468 392.825736 
L 259.496277 393.052307 
L 260.445895 392.909396 
L 260.920705 393.059989 
L 261.395514 392.914484 
L 261.870323 393.287637 
L 262.345132 392.768324 
L 262.819942 392.925643 
L 263.294751 392.672611 
L 263.76956 393.200415 
L 264.244369 392.857913 
L 264.719179 392.860112 
L 265.193988 392.682588 
L 265.668797 393.273957 
L 266.618416 392.763297 
L 267.093225 393.06047 
L 267.568034 392.814467 
L 269.942081 393.156042 
L 270.41689 393.124687 
L 270.891699 393.246438 
L 271.366508 392.69988 
L 271.841318 393.108108 
L 272.316127 392.731241 
L 272.790936 392.821129 
L 273.265745 392.684577 
L 274.215364 393.226388 
L 275.164982 393.195131 
L 275.639792 393.085505 
L 276.114601 393.168998 
L 276.58941 392.704366 
L 277.064219 393.103764 
L 277.539029 392.991491 
L 278.013838 393.352048 
L 278.488647 392.787818 
L 278.963456 393.185224 
L 279.913075 393.020078 
L 280.387884 393.062632 
L 280.862693 392.983901 
L 281.337503 393.091583 
L 281.812312 392.953097 
L 282.287121 392.952508 
L 282.76193 393.177782 
L 283.23674 392.967054 
L 283.711549 393.228522 
L 284.186358 393.033678 
L 284.661167 393.19445 
L 285.610786 392.851806 
L 286.085595 393.270862 
L 286.560404 393.050494 
L 287.035214 392.986805 
L 287.510023 393.114419 
L 287.984832 392.865639 
L 288.459642 393.115249 
L 288.934451 393.007676 
L 289.884069 393.266726 
L 290.358879 392.915777 
L 291.783306 393.169681 
L 292.258116 392.898176 
L 292.732925 392.488634 
L 293.207734 392.435329 
L 293.682543 392.958363 
L 294.157353 392.806767 
L 294.632162 393.071371 
L 295.106971 393.064735 
L 295.58178 393.31504 
L 296.531399 392.842265 
L 297.006208 393.047537 
L 297.481017 392.908 
L 297.955827 393.192641 
L 298.430636 393.266178 
L 298.905445 393.208963 
L 299.380254 392.357899 
L 299.855064 393.076467 
L 300.329873 393.153172 
L 300.804682 393.009095 
L 301.279491 393.194846 
L 301.754301 392.844144 
L 302.22911 393.126973 
L 302.703919 393.272714 
L 303.178728 392.995736 
L 303.653538 393.265759 
L 304.603156 393.190287 
L 306.027584 392.937154 
L 306.502393 393.033519 
L 306.977202 393.012889 
L 307.452012 393.170194 
L 307.926821 393.00137 
L 310.300867 393.076515 
L 310.775677 393.268744 
L 313.149723 393.121774 
L 313.624532 393.224101 
L 314.099341 393.135915 
L 314.574151 392.921493 
L 315.04896 393.052695 
L 315.523769 393.046897 
L 315.998578 392.877778 
L 316.473388 393.074259 
L 317.897815 392.900627 
L 318.372625 393.190865 
L 318.847434 392.982756 
L 319.322243 393.192256 
L 319.797052 393.157375 
L 320.271862 392.994157 
L 322.171099 393.030275 
L 323.120717 392.870441 
L 323.595526 393.152764 
L 324.070336 393.28588 
L 324.545145 393.059959 
L 325.019954 393.069168 
L 325.494763 393.203549 
L 327.394 393.256465 
L 327.86881 392.884427 
L 328.343619 393.323698 
L 328.818428 392.876015 
L 329.293237 393.249114 
L 329.768047 393.022409 
L 331.192474 393.1953 
L 332.142093 393.178068 
L 332.616902 392.916838 
L 333.091712 393.03437 
L 333.566521 392.807102 
L 334.04133 393.099018 
L 334.516139 393.060667 
L 334.990949 392.905409 
L 335.465758 393.094963 
L 335.940567 392.983989 
L 336.415376 392.99306 
L 336.890186 393.158579 
L 337.839804 393.144874 
L 338.314613 392.804593 
L 338.789423 393.161127 
L 339.264232 392.780246 
L 339.739041 393.210989 
L 340.21385 392.99943 
L 342.113087 393.061633 
L 342.587897 392.824616 
L 343.062706 393.010481 
L 343.537515 392.925615 
L 344.012324 393.265175 
L 344.487134 392.803239 
L 344.961943 392.921008 
L 345.911561 392.683554 
L 346.386371 392.746598 
L 346.86118 393.303344 
L 347.810798 392.610944 
L 348.285608 393.270296 
L 348.760417 392.856594 
L 349.235226 393.273245 
L 350.184845 392.930714 
L 351.609272 393.177886 
L 352.084082 393.093222 
L 352.558891 393.200149 
L 353.0337 392.716661 
L 353.508509 393.07881 
L 353.983319 392.808795 
L 355.407747 393.137738 
L 355.882556 392.753309 
L 356.357365 393.183212 
L 357.306984 393.110572 
L 358.256602 392.920795 
L 358.731411 393.052931 
L 359.206221 392.956923 
L 359.68103 393.037694 
L 360.155839 392.694183 
L 361.105458 393.05355 
L 361.580267 392.859755 
L 362.055076 393.134396 
L 362.529885 392.786697 
L 363.004695 393.091609 
L 363.479504 392.989202 
L 363.954313 393.053567 
L 364.429122 392.758852 
L 364.903932 392.973634 
L 366.803169 393.278216 
L 367.752787 392.983471 
L 368.227596 393.103552 
L 369.652024 393.002022 
L 370.126833 392.788553 
L 370.601643 392.741813 
L 371.076452 393.052976 
L 371.551261 392.982942 
L 372.02607 393.164131 
L 373.925307 393.211237 
L 374.400117 393.145935 
L 374.874926 392.917146 
L 375.824544 393.294725 
L 376.299354 393.092549 
L 376.774163 392.718971 
L 377.248972 393.094924 
L 377.723781 392.475485 
L 378.198591 392.893488 
L 379.148209 393.241825 
L 379.623019 393.017338 
L 380.097828 393.155113 
L 380.572637 392.881167 
L 381.997065 393.215828 
L 382.471874 393.352808 
L 382.946683 392.996524 
L 383.421493 393.120137 
L 383.896302 393.119589 
L 384.371111 393.269812 
L 384.84592 393.22585 
L 385.795539 392.902096 
L 386.270348 392.961068 
L 386.745157 392.657615 
L 387.219967 393.170537 
L 388.169585 392.834217 
L 388.644394 392.908693 
L 389.119204 393.297753 
L 389.594013 392.647536 
L 390.068822 393.087706 
L 390.543631 393.218253 
L 391.018441 392.951206 
L 391.49325 392.971363 
L 391.968059 393.312471 
L 392.442868 393.142875 
L 393.392487 392.95471 
L 393.867296 393.188973 
L 394.342105 393.007274 
L 394.816915 392.993936 
L 395.291724 392.711067 
L 395.766533 393.066293 
L 396.241342 393.005805 
L 397.190961 393.294723 
L 397.66577 393.140525 
L 398.140579 393.311024 
L 398.615389 393.291098 
L 399.090198 393.070682 
L 399.565007 393.272128 
L 400.039816 392.691725 
L 400.514626 393.153447 
L 400.989435 392.882364 
L 401.464244 393.180533 
L 401.939054 393.007163 
L 402.413863 393.154545 
L 402.888672 392.932571 
L 403.363481 392.833693 
L 403.838291 393.159762 
L 404.787909 392.588392 
L 405.262718 393.227838 
L 405.737528 393.157554 
L 406.212337 392.910338 
L 407.161955 392.977663 
L 408.586383 393.035071 
L 409.061192 392.884069 
L 409.536002 393.250321 
L 410.010811 393.280298 
L 410.48562 392.986963 
L 410.960429 393.289402 
L 411.435239 393.221346 
L 411.910048 392.823068 
L 412.384857 392.875063 
L 412.859666 392.760407 
L 414.284094 393.247831 
L 414.758903 392.998612 
L 415.233713 392.972043 
L 415.708522 393.14424 
L 416.183331 392.955146 
L 417.13295 393.036494 
L 417.607759 393.232699 
L 418.082568 393.052541 
L 419.506996 392.867885 
L 419.981805 393.190151 
L 420.456614 392.796961 
L 420.931424 392.984256 
L 421.406233 392.810475 
L 421.881042 393.111153 
L 423.30547 393.012755 
L 423.780279 393.113268 
L 424.255089 393.088205 
L 424.729898 393.189701 
L 425.204707 392.982919 
L 426.154326 392.977886 
L 426.629135 392.692178 
L 427.103944 393.149413 
L 427.578753 392.957015 
L 428.053563 393.262154 
L 428.528372 393.157934 
L 429.003181 392.93336 
L 429.47799 393.172269 
L 430.902418 393.203716 
L 431.377227 392.859088 
L 431.852037 393.272954 
L 432.801655 392.886198 
L 433.276464 393.143629 
L 434.700892 393.058206 
L 435.175701 392.857424 
L 435.650511 393.158299 
L 436.12532 393.24835 
L 436.600129 393.124599 
L 437.074938 393.313356 
L 437.549748 393.22439 
L 438.024557 393.302334 
L 438.499366 393.039898 
L 438.974175 393.263702 
L 439.448985 393.110828 
L 439.923794 393.33813 
L 440.398603 393.163973 
L 440.873412 393.208907 
L 441.348222 393.066578 
L 441.823031 392.803186 
L 442.29784 393.010996 
L 442.772649 392.740959 
L 443.722268 393.076109 
L 444.197077 392.827264 
L 445.146696 393.078869 
L 445.621505 392.815477 
L 446.096314 393.111352 
L 446.571124 392.717002 
L 447.045933 392.810461 
L 447.520742 393.186046 
L 448.470361 392.820581 
L 448.94517 393.166617 
L 449.419979 393.25407 
L 449.894788 392.949944 
L 450.369598 393.232208 
L 451.319216 393.013538 
L 451.794025 393.249954 
L 453.218453 392.980405 
L 453.693262 393.319219 
L 454.168072 392.879721 
L 454.642881 393.123777 
L 455.592499 393.120472 
L 456.067309 392.941818 
L 456.542118 393.288358 
L 457.016927 393.054223 
L 457.966546 393.115568 
L 458.441355 392.731738 
L 459.865783 393.237955 
L 460.340592 392.800585 
L 461.29021 393.11821 
L 461.76502 392.918488 
L 462.239829 393.050886 
L 462.714638 392.798728 
L 463.189447 392.864653 
L 463.664257 392.814694 
L 464.139066 393.356224 
L 464.613875 392.901632 
L 465.088684 393.088995 
L 465.563494 392.813295 
L 466.038303 393.103996 
L 466.513112 393.102454 
L 466.987921 392.90179 
L 467.462731 393.317083 
L 467.93754 393.0887 
L 468.887159 393.272432 
L 469.361968 392.647027 
L 469.836777 393.194257 
L 470.311586 392.745876 
L 470.786396 393.162746 
L 471.261205 392.88728 
L 471.736014 393.068721 
L 472.210823 393.112841 
L 472.685633 392.638317 
L 473.160442 393.035858 
L 474.11006 393.224507 
L 474.58487 392.794818 
L 475.059679 393.09549 
L 475.534488 393.154173 
L 476.009297 392.849054 
L 476.484107 393.137887 
L 476.958916 393.072247 
L 477.433725 393.156985 
L 477.908534 392.805651 
L 478.383344 393.187365 
L 479.332962 392.882781 
L 479.807771 393.16499 
L 480.282581 393.133518 
L 480.75739 392.618608 
L 481.232199 393.095561 
L 481.707008 393.168474 
L 482.181818 392.827372 
L 482.656627 393.13902 
L 483.606245 392.791037 
L 484.081055 393.138022 
L 485.030673 392.916274 
L 485.505482 392.872285 
L 485.980292 393.176521 
L 486.455101 392.945114 
L 486.92991 393.347889 
L 487.879529 392.834762 
L 488.354338 393.212024 
L 488.829147 392.932606 
L 489.303956 393.044539 
L 489.778766 392.827991 
L 490.253575 393.130487 
L 490.728384 392.996947 
L 491.203193 393.215224 
L 491.678003 393.264006 
L 492.152812 392.87129 
L 492.627621 393.271882 
L 493.102431 393.217037 
L 493.57724 392.638714 
L 494.052049 393.034286 
L 494.526858 393.161691 
L 495.001668 393.100226 
L 495.476477 392.771204 
L 496.426095 392.87109 
L 496.900905 392.746059 
L 497.850523 393.080265 
L 499.74976 393.146027 
L 500.699379 392.833896 
L 501.174188 393.227437 
L 501.648997 392.66746 
L 502.123806 392.862893 
L 502.598616 393.211954 
L 503.073425 392.655052 
L 503.548234 393.249002 
L 504.497853 392.755423 
L 504.972662 393.237908 
L 505.447471 393.059045 
L 505.92228 393.324503 
L 506.39709 393.106293 
L 506.871899 393.266954 
L 507.346708 392.920675 
L 508.296327 393.279839 
L 508.771136 392.832283 
L 509.245945 393.013537 
L 509.720754 393.069545 
L 510.195564 392.946961 
L 511.145182 393.128544 
L 511.619991 392.854817 
L 512.094801 392.922453 
L 512.56961 393.195931 
L 513.044419 392.691016 
L 513.519228 393.260057 
L 513.994038 393.245383 
L 514.468847 392.797841 
L 514.943656 393.092728 
L 515.893275 393.181798 
L 516.368084 392.99363 
L 517.317703 393.267061 
L 519.691749 392.988815 
L 521.116177 392.997429 
L 521.590986 393.120687 
L 522.065795 392.983577 
L 522.540604 393.175009 
L 523.490223 392.788551 
L 523.965032 393.142285 
L 524.914651 393.313122 
L 525.38946 392.981433 
L 525.864269 393.363165 
L 526.339078 393.220773 
L 528.238315 393.112183 
L 528.713125 392.651152 
L 529.187934 393.313923 
L 529.662743 392.901303 
L 530.137552 393.231256 
L 530.612362 392.881123 
L 531.087171 393.108666 
L 531.56198 393.007847 
L 532.036789 393.158047 
L 533.461217 393.155726 
L 533.936026 393.303244 
L 534.410836 393.094886 
L 534.885645 393.102973 
L 535.835263 393.270474 
L 536.310073 392.993221 
L 537.259691 393.074135 
L 537.734501 393.114558 
L 538.20931 392.880175 
L 538.684119 393.204101 
L 539.633738 393.175825 
L 540.108547 393.312789 
L 541.058165 393.019545 
L 542.482593 392.967277 
L 542.957402 393.23311 
L 543.432212 393.071196 
L 543.907021 393.074193 
L 544.38183 392.922637 
L 544.856639 392.998677 
L 545.331449 392.953949 
L 545.806258 393.085682 
L 546.755876 393.060267 
L 547.230686 393.185648 
L 547.705495 392.819086 
L 548.180304 393.168372 
L 548.655113 393.175615 
L 549.129923 393.352606 
L 549.604732 393.066746 
L 550.079541 393.204225 
L 550.55435 392.910591 
L 551.02916 393.173233 
L 551.503969 393.092983 
L 551.978778 392.860655 
L 552.453587 393.054749 
L 552.928397 393.090321 
L 553.403206 393.251877 
L 553.878015 392.888085 
L 554.352824 392.847142 
L 554.827634 392.972675 
L 555.302443 392.884211 
L 555.777252 393.232411 
L 556.252061 392.888001 
L 557.20168 392.869965 
L 557.676489 393.110494 
L 558.151298 393.079107 
L 558.626108 393.223553 
L 559.575726 393.107698 
L 561.000154 393.081552 
L 561.474963 392.709749 
L 561.949773 393.273634 
L 562.424582 393.175383 
L 562.899391 393.259924 
L 563.3742 392.930849 
L 563.84901 392.994527 
L 564.323819 392.797637 
L 564.798628 393.130854 
L 565.273437 393.014686 
L 566.223056 393.009477 
L 566.697865 393.235884 
L 567.172674 392.974236 
L 567.647484 393.205601 
L 568.597102 393.08392 
L 569.071911 392.908404 
L 570.02153 393.312457 
L 570.496339 392.851927 
L 570.971148 393.23041 
L 572.395576 392.986667 
L 572.870385 392.642093 
L 573.345195 392.663633 
L 573.820004 393.241118 
L 574.294813 392.96719 
L 574.769622 393.348264 
L 575.719241 393.090539 
L 576.19405 393.225561 
L 576.668859 393.044666 
L 578.093287 393.052148 
L 578.568096 393.245699 
L 579.042906 392.919509 
L 579.517715 393.140227 
L 581.891761 393.150867 
L 582.366571 393.257299 
L 582.84138 392.958791 
L 583.316189 393.036561 
L 583.790998 393.282445 
L 584.265808 393.098883 
L 584.740617 393.111395 
L 585.215426 392.921748 
L 585.690235 393.147094 
L 588.064282 392.89556 
L 588.539091 393.227617 
L 589.488709 392.816003 
L 589.963519 393.099343 
L 590.438328 392.896923 
L 591.387946 393.272862 
L 591.862756 393.158924 
L 592.337565 392.825348 
L 592.812374 392.978176 
L 593.287183 392.991078 
L 593.761993 393.251883 
L 594.711611 393.26479 
L 595.66123 392.717348 
L 596.136039 393.027928 
L 596.610848 390.644694 
L 597.085657 392.840302 
L 597.560467 393.175725 
L 598.984894 393.101042 
L 599.459704 393.316147 
L 599.934513 392.912529 
L 600.409322 393.315494 
L 601.358941 393.022703 
L 602.308559 393.122112 
L 602.783368 392.6661 
L 603.258178 393.157598 
L 603.732987 393.126833 
L 604.207796 393.262706 
L 604.682605 393.282781 
L 605.157415 392.959376 
L 605.632224 393.278489 
L 608.00627 393.08591 
L 608.955889 393.056614 
L 609.430698 393.25466 
L 609.905507 393.163003 
L 610.380317 393.233628 
L 610.855126 392.815354 
L 611.329935 393.212924 
L 611.804744 392.873934 
L 612.279554 393.244074 
L 612.754363 393.133257 
L 613.229172 393.268322 
L 613.703981 393.226384 
L 614.178791 393.022603 
L 614.6536 393.294364 
L 615.128409 392.628589 
L 615.603218 393.228465 
L 616.078028 392.874691 
L 617.502455 393.212422 
L 618.452074 392.990031 
L 618.926883 393.251573 
L 619.876502 393.098347 
L 620.351311 392.733968 
L 620.82612 393.208483 
L 621.300929 393.325342 
L 621.775739 393.253848 
L 622.250548 393.044167 
L 622.725357 393.264516 
L 623.200166 393.051454 
L 623.674976 393.287326 
L 624.149785 393.008628 
L 624.624594 392.993161 
L 625.099403 392.779827 
L 626.523831 393.288349 
L 627.47345 392.974963 
L 627.948259 393.076546 
L 628.423068 393.035948 
L 629.847496 393.337015 
L 631.271924 393.219565 
L 631.746733 392.863642 
L 632.221542 393.276882 
L 632.696352 393.043339 
L 633.171161 393.308213 
L 633.64597 392.911078 
L 634.595589 393.241509 
L 635.070398 393.157415 
L 635.545207 393.245427 
L 636.969635 393.156014 
L 637.444444 392.975274 
L 637.919253 393.203973 
L 638.394063 393.182454 
L 638.868872 392.971031 
L 640.2933 393.324781 
L 640.768109 393.20013 
L 641.242918 392.935245 
L 642.192537 392.927621 
L 642.667346 393.219408 
L 643.142155 393.330362 
L 643.616964 393.114944 
L 644.091774 393.294003 
L 644.566583 392.932222 
L 645.041392 392.973814 
L 645.516201 393.283347 
L 646.46582 393.186276 
L 646.940629 393.314152 
L 647.415438 392.939262 
L 647.890248 392.762882 
L 648.365057 393.160532 
L 648.839866 393.146366 
L 649.314675 392.739842 
L 649.789485 393.101593 
L 650.264294 392.948501 
L 651.213913 393.0751 
L 651.688722 393.010152 
L 652.163531 393.129242 
L 652.63834 393.022465 
L 653.11315 393.041494 
L 653.587959 393.244409 
L 654.537577 393.065313 
L 655.487196 392.772792 
L 655.962005 393.246263 
L 656.436814 392.961412 
L 657.861242 392.763077 
L 658.336051 393.0732 
L 658.810861 393.185382 
L 659.28567 393.10698 
L 659.760479 392.745128 
L 660.235288 393.026763 
L 661.184907 393.309745 
L 662.134525 392.343564 
L 662.609335 392.702162 
L 663.084144 392.238448 
L 663.558953 391.372388 
L 664.033762 392.945735 
L 664.508572 393.062712 
L 665.45819 392.95466 
L 666.407809 393.118767 
L 666.882618 392.70458 
L 667.832236 392.422381 
L 668.307046 392.800505 
L 668.781855 392.669404 
L 669.256664 392.061525 
L 669.731473 347.143775 
L 670.206283 392.258087 
L 670.681092 392.900298 
L 671.63071 393.214254 
L 672.10552 392.751986 
L 672.580329 392.719603 
L 673.055138 392.806883 
L 673.529948 393.122482 
L 674.004757 392.905858 
L 674.479566 393.06377 
L 674.954375 392.852092 
L 675.429185 393.097587 
L 675.903994 392.614711 
L 676.378803 392.655001 
L 676.853612 392.951007 
L 677.328422 393.070171 
L 678.752849 393.036355 
L 679.227659 393.268915 
L 679.702468 393.187534 
L 680.177277 393.355568 
L 680.652086 393.010599 
L 681.126896 393.286257 
L 681.601705 393.341323 
L 682.076514 393.025675 
L 682.551323 393.146961 
L 683.026133 392.928377 
L 683.500942 393.298717 
L 683.975751 393.260327 
L 684.45056 392.919517 
L 684.92537 393.087912 
L 685.400179 393.016955 
L 685.874988 392.768031 
L 686.349797 393.032056 
L 687.774225 392.905774 
L 688.249034 393.092584 
L 688.723844 393.111137 
L 689.198653 393.243456 
L 690.148271 392.827648 
L 690.623081 393.048136 
L 691.572699 393.199218 
L 692.047508 393.270208 
L 692.522318 393.073546 
L 692.997127 393.196576 
L 693.471936 392.935418 
L 694.421555 392.991672 
L 695.371173 393.256925 
L 695.845983 392.845681 
L 696.320792 393.070262 
L 697.74522 393.166079 
L 698.220029 393.259937 
L 699.169647 392.851772 
L 699.644457 393.028306 
L 700.119266 393.030011 
L 700.594075 392.887715 
L 701.068884 393.019329 
L 702.493312 393.087382 
L 702.968121 393.253755 
L 703.442931 393.131878 
L 703.91774 393.216779 
L 704.392549 393.065696 
L 704.867358 393.297949 
L 705.342168 393.149416 
L 705.816977 393.303549 
L 706.766595 393.342549 
L 707.241405 392.994662 
L 707.716214 393.27957 
L 708.191023 393.218374 
L 708.665832 392.985433 
L 709.140642 393.264042 
L 709.615451 393.076777 
L 710.09026 393.082614 
L 710.565069 393.232429 
L 711.039879 392.855883 
L 711.514688 393.114301 
L 712.464306 392.950821 
L 712.939116 393.235066 
L 713.413925 392.761903 
L 713.888734 393.033377 
L 714.363543 392.814732 
L 715.313162 393.159955 
L 715.787971 393.18592 
L 716.26278 393.087797 
L 716.73759 392.872821 
L 717.212399 393.242641 
L 717.687208 393.320513 
L 718.162017 393.001036 
L 719.111636 393.260328 
L 719.586445 393.263302 
L 720.061255 392.96388 
L 720.536064 393.321663 
L 721.485682 393.044234 
L 721.960492 393.310526 
L 722.435301 393.267891 
L 723.384919 392.983723 
L 723.859729 392.926704 
L 724.334538 393.084925 
L 724.809347 392.921941 
L 725.284156 393.151005 
L 725.758966 392.957575 
L 726.708584 393.022831 
L 727.183393 393.288359 
L 727.658203 393.177663 
L 728.133012 392.812296 
L 728.607821 392.73046 
L 729.08263 393.17766 
L 729.55744 393.023861 
L 730.032249 393.025976 
L 730.507058 393.238239 
L 731.456677 393.230685 
L 731.931486 392.923462 
L 732.406295 393.261513 
L 733.830723 393.059766 
L 734.780341 393.28087 
L 735.255151 392.962653 
L 735.72996 393.093285 
L 736.204769 392.752083 
L 736.679578 393.138246 
L 737.154388 393.139582 
L 737.629197 392.826396 
L 738.104006 392.942302 
L 738.578815 392.815751 
L 739.053625 393.191247 
L 740.003243 392.693242 
L 740.478052 392.926024 
L 740.952862 393.299446 
L 741.90248 393.152065 
L 742.37729 391.838279 
L 742.852099 386.994574 
L 743.326908 392.381607 
L 744.276527 393.337582 
L 744.751336 392.909324 
L 745.226145 393.0949 
L 745.700954 392.856504 
L 746.175764 393.141046 
L 746.650573 393.232744 
L 747.125382 392.66679 
L 747.600191 393.179946 
L 748.54981 393.224092 
L 749.024619 392.216109 
L 749.499428 393.268074 
L 749.974238 392.76823 
L 750.449047 392.70892 
L 750.923856 392.764843 
L 751.398665 393.250396 
L 751.873475 393.103479 
L 752.348284 393.151446 
L 752.823093 392.788282 
L 753.297902 393.153778 
L 753.772712 392.921377 
L 754.72233 393.184643 
L 755.671949 392.900047 
L 756.146758 393.242473 
L 757.571186 392.92377 
L 758.045995 393.089554 
L 759.470423 393.035267 
L 759.945232 393.208187 
L 760.420041 392.931421 
L 760.89485 392.849309 
L 761.844469 393.239214 
L 762.319278 393.077899 
L 762.794087 393.04058 
L 763.268897 392.830502 
L 764.218515 393.233202 
L 764.693325 392.900933 
L 765.168134 393.127605 
L 765.642943 393.095024 
L 766.117752 392.904777 
L 766.592562 393.268297 
L 767.067371 393.179338 
L 767.54218 392.917907 
L 768.016989 392.914743 
L 768.491799 393.125029 
L 769.441417 393.057838 
L 769.916226 393.200608 
L 770.391036 393.035467 
L 770.865845 393.107683 
L 771.340654 393.359987 
L 771.815463 393.171372 
L 772.290273 393.213087 
L 772.765082 393.074612 
L 773.239891 392.819821 
L 773.7147 393.169849 
L 774.18951 393.353689 
L 774.664319 392.954067 
L 775.139128 392.884907 
L 776.088747 393.223697 
L 776.563556 392.831253 
L 777.038365 393.2835 
L 778.462793 392.801237 
L 779.412411 393.092608 
L 780.36203 392.899884 
L 780.836839 392.951672 
L 781.311648 393.293173 
L 781.786458 393.225685 
L 782.261267 393.300593 
L 782.736076 392.992627 
L 783.210885 393.256736 
L 784.160504 393.083529 
L 785.584932 393.168205 
L 787.00936 392.797616 
L 787.484169 393.088949 
L 787.958978 392.902717 
L 788.433787 393.24248 
L 789.383406 393.190361 
L 789.858215 393.024505 
L 790.333024 393.03546 
L 790.807834 393.327366 
L 791.282643 393.168816 
L 791.757452 393.282735 
L 792.707071 392.930787 
L 793.18188 393.186296 
L 793.656689 393.30523 
L 794.131498 393.077256 
L 794.606308 392.989782 
L 795.081117 393.128979 
L 795.555926 393.142235 
L 796.030735 392.85328 
L 796.980354 393.085045 
L 797.455163 392.377407 
L 797.929972 393.179172 
L 798.404782 393.093765 
L 798.879591 392.864207 
L 800.304019 393.293271 
L 801.253637 392.774304 
L 801.728446 393.111745 
L 802.203256 392.795989 
L 802.678065 392.964447 
L 803.152874 393.31673 
L 803.627683 392.773383 
L 804.102493 393.232296 
L 804.577302 392.962522 
L 805.052111 392.866697 
L 805.52692 393.039117 
L 806.00173 392.9543 
L 806.476539 393.208408 
L 806.951348 392.812434 
L 807.426157 392.693411 
L 808.375776 393.178068 
L 808.850585 392.917741 
L 809.325395 393.072461 
L 809.800204 393.001285 
L 810.275013 393.087813 
L 810.749822 392.987331 
L 811.224632 392.701141 
L 812.17425 392.916352 
L 812.649059 392.840917 
L 813.123869 393.111751 
L 813.598678 393.203287 
L 814.548296 393.074844 
L 815.023106 393.170512 
L 817.397152 392.826031 
L 817.871961 393.236819 
L 818.34677 393.132426 
L 818.82158 392.911717 
L 819.296389 393.044151 
L 819.771198 393.309922 
L 820.246007 392.965397 
L 820.720817 393.075975 
L 822.145244 393.025827 
L 822.620054 393.240362 
L 823.094863 392.946455 
L 824.044481 393.230099 
L 824.519291 393.226674 
L 824.9941 393.010061 
L 825.943718 393.293199 
L 826.418528 392.940391 
L 826.893337 393.223789 
L 827.368146 393.031249 
L 828.317765 393.253238 
L 829.267383 393.006348 
L 829.742192 392.799699 
L 830.217002 393.048629 
L 832.116239 393.191948 
L 833.540667 392.933393 
L 834.015476 393.209542 
L 834.490285 392.854753 
L 835.914713 393.279633 
L 836.389522 393.319883 
L 836.864331 392.642565 
L 837.339141 393.200553 
L 839.238378 393.334117 
L 839.713187 392.809673 
L 840.187996 393.108474 
L 840.662805 392.913356 
L 842.087233 393.183402 
L 843.036852 392.877153 
L 843.511661 393.206006 
L 843.98647 392.922283 
L 844.461279 393.059219 
L 845.410898 392.789424 
L 845.885707 393.178839 
L 846.835326 392.971682 
L 847.310135 393.200104 
L 847.784944 393.248527 
L 848.259753 392.662428 
L 848.734563 393.266101 
L 849.209372 392.975292 
L 849.684181 393.140704 
L 850.15899 392.978222 
L 850.6338 393.319241 
L 851.108609 392.721665 
L 851.583418 393.205273 
L 852.058227 392.934808 
L 852.533037 393.128764 
L 853.007846 392.962297 
L 853.482655 393.118544 
L 853.957464 393.027875 
L 854.432274 392.779637 
L 855.381892 393.217804 
L 855.856702 392.811325 
L 856.331511 393.03274 
L 857.281129 393.145904 
L 857.755939 393.246934 
L 858.230748 392.821583 
L 859.180366 393.264606 
L 859.655176 393.1756 
L 860.604794 392.778528 
L 861.079603 393.110342 
L 861.554413 393.23444 
L 862.97884 393.134434 
L 863.45365 393.331573 
L 863.928459 393.199322 
L 864.403268 392.936777 
L 865.352887 392.834472 
L 865.827696 392.818133 
L 866.302505 393.091495 
L 866.777314 392.905653 
L 867.252124 393.189478 
L 867.726933 393.14304 
L 868.201742 393.237387 
L 870.575788 393.106905 
L 871.050598 392.743097 
L 872.000216 393.252442 
L 872.475025 393.043477 
L 872.949835 393.027001 
L 873.899453 393.177423 
L 874.374262 393.165487 
L 874.849072 393.28523 
L 875.323881 393.049351 
L 875.79869 393.240926 
L 876.748309 393.28931 
L 878.172737 392.755367 
L 878.647546 393.025654 
L 879.122355 393.137758 
L 879.597164 392.918594 
L 880.071974 393.038632 
L 880.546783 392.759532 
L 881.021592 393.259789 
L 881.496401 392.8775 
L 881.971211 393.182193 
L 882.44602 393.16202 
L 882.920829 393.272428 
L 883.395638 393.170753 
L 883.870448 392.832787 
L 884.345257 392.725244 
L 884.820066 393.124025 
L 885.294875 392.973102 
L 885.769685 393.189657 
L 886.244494 393.211192 
L 886.719303 392.846943 
L 887.194112 393.155135 
L 887.668922 393.224148 
L 888.143731 392.956193 
L 888.61854 393.247465 
L 889.093349 393.310978 
L 889.568159 393.003897 
L 890.517777 393.315136 
L 891.942205 393.038573 
L 892.417014 393.079547 
L 892.891823 393.317851 
L 893.366633 392.938887 
L 893.841442 392.996966 
L 894.316251 393.182476 
L 894.79106 393.220805 
L 895.26587 393.02516 
L 895.740679 392.963266 
L 896.215488 393.331284 
L 896.690297 393.300114 
L 897.639916 392.765614 
L 898.114725 392.622021 
L 898.589534 393.220486 
L 899.064344 393.028007 
L 899.539153 392.684339 
L 900.013962 393.32137 
L 900.488772 393.049315 
L 901.43839 393.322227 
L 902.862818 392.915398 
L 903.337627 392.929779 
L 903.812436 392.719873 
L 904.287246 393.251057 
L 904.762055 393.122219 
L 905.236864 392.854886 
L 905.711673 393.074745 
L 906.661292 393.191369 
L 907.136101 393.114624 
L 907.61091 392.811787 
L 909.035338 393.185564 
L 909.510147 392.817713 
L 909.984957 393.197959 
L 910.459766 393.092421 
L 910.934575 392.617227 
L 911.409384 392.818769 
L 911.884194 392.610172 
L 912.359003 393.07739 
L 912.833812 393.3684 
L 913.308621 393.101989 
L 913.783431 393.320371 
L 915.207858 393.0414 
L 915.682668 392.714183 
L 916.157477 392.913312 
L 916.632286 392.65074 
L 918.056714 393.264656 
L 919.006332 392.614498 
L 919.481142 393.107334 
L 919.955951 393.197519 
L 920.43076 392.93954 
L 920.905569 393.315553 
L 921.380379 393.259294 
L 921.855188 393.076014 
L 922.329997 393.311889 
L 922.804807 392.908715 
L 923.279616 393.20331 
L 924.229234 393.001176 
L 924.704044 392.90728 
L 925.178853 393.11603 
L 925.653662 392.95098 
L 926.603281 393.067254 
L 927.07809 392.78531 
L 928.027708 393.00362 
L 928.977327 392.93439 
L 929.452136 393.049598 
L 930.401755 392.763427 
L 930.876564 393.2222 
L 931.351373 393.138106 
L 931.826182 392.745142 
L 932.300992 393.016653 
L 933.25061 393.186916 
L 934.200229 392.956577 
L 934.675038 392.794015 
L 935.624656 393.155582 
L 936.574275 392.900223 
L 937.049084 393.084353 
L 937.998703 392.954247 
L 938.473512 393.122309 
L 938.948321 392.981893 
L 939.42313 393.260248 
L 939.89794 392.836615 
L 940.372749 392.836064 
L 940.847558 393.257432 
L 941.322367 392.994653 
L 941.797177 393.214899 
L 942.271986 392.919353 
L 942.746795 393.199404 
L 943.221604 392.508049 
L 943.696414 393.110391 
L 944.646032 393.269054 
L 945.120841 393.26636 
L 945.595651 392.688961 
L 946.545269 393.136387 
L 947.020079 392.939016 
L 947.969697 392.980601 
L 948.444506 393.290299 
L 948.919316 393.353455 
L 949.394125 393.255315 
L 949.868934 392.785004 
L 950.343743 392.681616 
L 950.818553 392.701739 
L 951.293362 392.604018 
L 951.768171 392.816891 
L 952.24298 392.836214 
L 952.71779 393.222906 
L 953.192599 393.281334 
L 953.667408 392.92585 
L 954.142217 393.071089 
L 954.617027 392.797164 
L 955.091836 393.306301 
L 955.566645 393.091939 
L 956.041454 393.218161 
L 956.516264 392.996187 
L 957.465882 393.180709 
L 957.940691 393.232361 
L 958.415501 392.74471 
L 958.89031 393.096784 
L 959.365119 392.813482 
L 959.839928 393.178141 
L 961.264356 393.02731 
L 962.213975 393.143682 
L 962.688784 392.903505 
L 963.163593 392.927612 
L 963.638402 393.14492 
L 964.113212 392.471503 
L 964.588021 393.105856 
L 965.06283 393.097099 
L 966.012449 392.817255 
L 966.487258 393.178623 
L 966.962067 392.839834 
L 967.436876 392.948972 
L 967.911686 393.295911 
L 968.861304 392.85467 
L 969.810923 393.032214 
L 970.285732 392.771726 
L 970.760541 392.999232 
L 971.235351 393.098888 
L 972.184969 393.032086 
L 972.659778 393.066768 
L 973.134588 392.963507 
L 973.609397 393.322571 
L 974.084206 392.860855 
L 974.559015 393.196007 
L 975.033825 393.196354 
L 975.508634 392.889047 
L 975.983443 393.209141 
L 976.458252 393.26453 
L 977.88268 392.975288 
L 978.357489 392.954222 
L 978.832299 393.136519 
L 979.307108 393.187471 
L 979.781917 392.944472 
L 980.256726 393.270106 
L 980.731536 393.000873 
L 981.206345 393.099174 
L 981.681154 392.929737 
L 982.155963 393.062854 
L 983.105582 393.140571 
L 983.580391 392.891602 
L 984.0552 392.799131 
L 984.53001 393.018901 
L 985.004819 392.955798 
L 985.479628 393.247788 
L 985.954437 392.873618 
L 986.904056 393.244061 
L 987.378865 393.158885 
L 987.853674 393.307607 
L 988.328484 393.2764 
L 988.803293 393.096203 
L 989.278102 393.26577 
L 989.752911 392.889739 
L 990.227721 393.155278 
L 990.70253 393.168162 
L 991.177339 392.612397 
L 991.652149 392.941709 
L 992.601767 393.292112 
L 993.076576 392.946446 
L 993.551386 393.194595 
L 994.026195 393.100799 
L 994.501004 393.248672 
L 995.925432 392.993616 
L 996.400241 392.66438 
L 996.87505 392.795913 
L 997.34986 393.203538 
L 997.824669 392.908668 
L 998.299478 393.150917 
L 998.774287 393.268416 
L 999.249097 393.19517 
L 999.723906 392.751354 
L 1001.148334 393.058814 
L 1001.623143 392.946303 
L 1002.097952 393.035453 
L 1002.572761 393.307371 
L 1003.047571 393.313836 
L 1003.997189 392.945369 
L 1005.421617 393.244967 
L 1006.371235 393.009188 
L 1006.846045 392.975244 
L 1007.320854 393.366794 
L 1007.795663 392.589863 
L 1008.270472 392.821488 
L 1008.745282 393.21613 
L 1009.220091 392.801294 
L 1009.6949 392.834983 
L 1010.644519 393.302862 
L 1011.119328 392.909111 
L 1011.594137 393.140732 
L 1012.068946 393.211018 
L 1012.543756 392.846432 
L 1013.493374 393.346767 
L 1013.968184 392.95428 
L 1014.442993 393.239994 
L 1015.392611 393.099052 
L 1015.867421 393.06155 
L 1016.34223 393.138267 
L 1016.817039 392.951477 
L 1017.291848 392.51159 
L 1017.766658 393.025125 
L 1018.241467 393.045305 
L 1018.716276 393.198299 
L 1019.191085 392.882988 
L 1019.665895 392.895795 
L 1020.140704 393.304814 
L 1021.565132 392.75062 
L 1022.039941 393.082089 
L 1022.51475 393.148138 
L 1022.989559 392.710285 
L 1023.939178 393.202695 
L 1024.888796 393.139353 
L 1025.363606 392.747488 
L 1025.838415 393.213261 
L 1027.262843 393.156776 
L 1027.737652 392.93169 
L 1028.212461 393.1882 
L 1028.68727 392.923807 
L 1029.16208 393.218646 
L 1029.636889 392.996888 
L 1030.111698 393.156758 
L 1030.586507 393.156944 
L 1031.536126 392.774964 
L 1032.010935 393.09054 
L 1032.485744 392.906916 
L 1033.910172 393.101238 
L 1034.384981 392.833209 
L 1035.809409 393.240103 
L 1036.284219 393.033726 
L 1036.759028 393.211869 
L 1037.233837 393.238841 
L 1037.708646 393.001925 
L 1038.183456 393.190453 
L 1039.133074 393.146545 
L 1039.607883 393.270275 
L 1041.032311 392.950502 
L 1041.50712 393.14107 
L 1041.98193 392.794156 
L 1042.931548 393.181039 
L 1043.406357 392.967194 
L 1043.881167 393.200123 
L 1044.355976 393.227186 
L 1044.830785 392.994856 
L 1045.305594 392.997155 
L 1045.780404 392.697687 
L 1046.255213 392.202258 
L 1046.730022 392.851364 
L 1047.204831 393.259017 
L 1047.679641 393.073744 
L 1048.15445 392.718596 
L 1048.629259 392.844004 
L 1049.104068 393.255594 
L 1049.578878 393.132341 
L 1050.053687 392.659747 
L 1050.528496 392.77371 
L 1051.003305 392.409245 
L 1051.478115 393.136086 
L 1051.952924 392.892268 
L 1052.427733 392.939636 
L 1052.902542 393.170578 
L 1053.377352 392.875004 
L 1053.852161 393.219506 
L 1054.32697 393.156232 
L 1054.801779 392.605814 
L 1055.276589 392.825979 
L 1055.751398 393.220618 
L 1056.226207 393.164045 
L 1056.701016 392.771878 
L 1058.125444 392.995562 
L 1058.600253 392.589185 
L 1059.075063 393.302392 
L 1059.549872 392.531606 
L 1060.499491 393.101888 
L 1061.449109 392.715909 
L 1061.923918 393.362639 
L 1062.398728 392.911357 
L 1063.348346 393.001284 
L 1063.823155 392.75431 
L 1064.297965 393.1677 
L 1064.772774 392.336715 
L 1065.247583 393.224154 
L 1065.722392 392.988331 
L 1066.197202 393.0262 
L 1066.672011 392.726283 
L 1067.14682 392.642123 
L 1067.621629 393.030381 
L 1068.096439 392.770332 
L 1068.571248 393.275225 
L 1069.520866 392.842574 
L 1070.470485 393.234212 
L 1070.945294 393.235288 
L 1071.894913 392.908951 
L 1072.369722 392.874787 
L 1073.79415 393.225452 
L 1074.268959 392.818762 
L 1074.743768 393.240413 
L 1075.218577 392.951331 
L 1075.693387 393.093565 
L 1076.168196 392.838597 
L 1077.117814 393.27555 
L 1077.592624 393.114084 
L 1078.067433 393.190866 
L 1078.542242 392.860224 
L 1080.441479 393.286794 
L 1080.916288 393.341506 
L 1081.391098 393.132843 
L 1081.865907 392.748594 
L 1082.815526 393.079406 
L 1083.765144 392.686189 
L 1084.239953 392.796982 
L 1084.714763 392.747048 
L 1085.189572 393.040649 
L 1085.664381 392.97677 
L 1086.13919 393.165548 
L 1086.614 393.079825 
L 1087.088809 393.21368 
L 1087.563618 392.772403 
L 1088.038427 393.096494 
L 1088.513237 393.20572 
L 1089.462855 392.763656 
L 1089.937664 393.091714 
L 1090.412474 393.168203 
L 1091.362092 393.068456 
L 1091.836901 393.218259 
L 1092.311711 392.970048 
L 1092.78652 392.980743 
L 1093.261329 393.193991 
L 1093.736138 393.052061 
L 1094.210948 393.129086 
L 1094.685757 392.908408 
L 1096.110185 393.098831 
L 1096.584994 392.917546 
L 1097.534612 393.046064 
L 1098.009422 392.874199 
L 1098.484231 392.980061 
L 1098.95904 392.958269 
L 1099.433849 393.339116 
L 1099.908659 392.988118 
L 1100.383468 393.052545 
L 1100.858277 393.311865 
L 1101.807896 392.989274 
L 1102.282705 393.050124 
L 1102.757514 392.905907 
L 1103.232323 392.907273 
L 1104.181942 393.269568 
L 1104.656751 392.960849 
L 1105.131561 393.103371 
L 1105.60637 392.855215 
L 1106.081179 393.158631 
L 1106.555988 392.941442 
L 1107.030798 392.92074 
L 1107.505607 393.109669 
L 1107.980416 392.763726 
L 1108.455225 393.086808 
L 1108.930035 393.140755 
L 1109.404844 392.977697 
L 1109.879653 393.187413 
L 1110.354462 393.112759 
L 1110.829272 393.267046 
L 1111.304081 392.906135 
L 1111.77889 392.856484 
L 1112.253699 393.108884 
L 1113.203318 392.802045 
L 1114.152936 393.350113 
L 1114.627746 392.988071 
L 1115.102555 392.859879 
L 1115.577364 393.200613 
L 1116.526983 393.004754 
L 1117.001792 393.205773 
L 1117.476601 393.008844 
L 1117.95141 393.241938 
L 1118.901029 393.152059 
L 1119.375838 385.941317 
L 1119.850647 392.775582 
L 1120.325457 393.040763 
L 1121.749884 393.206146 
L 1122.224694 392.906983 
L 1122.699503 393.026596 
L 1123.174312 393.33392 
L 1123.649121 392.859046 
L 1124.123931 392.921051 
L 1124.59874 392.850854 
L 1125.073549 393.014601 
L 1125.548358 392.910913 
L 1126.023168 392.959894 
L 1126.497977 393.29675 
L 1127.447596 392.860008 
L 1127.922405 393.156115 
L 1128.397214 393.215624 
L 1128.872023 393.116218 
L 1129.346833 392.843208 
L 1129.821642 393.349118 
L 1130.296451 392.750995 
L 1130.77126 392.846706 
L 1131.24607 393.290991 
L 1131.720879 392.924656 
L 1132.195688 393.168992 
L 1132.670497 393.124988 
L 1133.145307 392.918154 
L 1133.620116 392.837214 
L 1134.094925 393.225875 
L 1134.569734 393.038229 
L 1135.044544 393.033074 
L 1135.519353 393.192506 
L 1135.994162 392.625843 
L 1136.468971 392.884382 
L 1136.943781 393.275322 
L 1137.41859 392.994268 
L 1137.893399 393.153788 
L 1138.368208 393.195224 
L 1138.843018 392.704422 
L 1140.267445 392.967847 
L 1140.742255 392.83736 
L 1142.166682 393.147208 
L 1142.641492 393.106049 
L 1143.116301 392.821887 
L 1143.59111 392.913646 
L 1144.065919 393.189106 
L 1145.490347 392.820634 
L 1145.965156 393.002058 
L 1146.439966 392.948948 
L 1146.914775 393.237355 
L 1147.389584 392.794302 
L 1147.864393 392.982129 
L 1148.339203 392.907162 
L 1148.814012 393.163634 
L 1149.288821 392.755591 
L 1149.763631 392.630053 
L 1150.713249 393.157026 
L 1151.188058 392.757169 
L 1151.662868 393.101583 
L 1152.612486 392.850491 
L 1153.087295 393.001576 
L 1153.562105 392.735696 
L 1154.036914 393.271941 
L 1154.511723 392.840256 
L 1156.41096 393.185332 
L 1156.885769 392.83894 
L 1157.360579 392.773367 
L 1157.835388 392.944848 
L 1158.310197 392.995182 
L 1158.785006 393.305065 
L 1159.259816 392.776306 
L 1159.734625 392.91411 
L 1160.209434 392.563708 
L 1161.159053 392.936732 
L 1161.633862 393.267976 
L 1162.108671 392.706605 
L 1162.58348 393.163051 
L 1163.05829 393.227655 
L 1163.533099 392.681072 
L 1164.482717 393.023582 
L 1164.957527 393.027964 
L 1165.907145 392.405037 
L 1166.381954 392.405538 
L 1166.856764 392.767175 
L 1167.331573 392.871826 
L 1167.806382 392.793248 
L 1168.281191 392.515549 
L 1168.756001 392.919877 
L 1169.23081 392.685505 
L 1169.705619 392.798893 
L 1170.180428 392.739705 
L 1170.655238 392.967018 
L 1171.130047 392.789245 
L 1171.604856 392.322381 
L 1172.079665 392.217347 
L 1172.554475 392.604409 
L 1173.504093 392.695099 
L 1174.453712 392.212745 
L 1174.928521 392.646405 
L 1176.827758 392.616644 
L 1177.302567 392.859355 
L 1177.777377 392.320903 
L 1178.726995 392.28238 
L 1179.201804 392.743826 
L 1180.151423 391.906052 
L 1180.626232 392.339138 
L 1181.101041 391.941062 
L 1181.575851 391.74114 
L 1182.05066 391.865943 
L 1182.525469 391.709482 
L 1183.000278 392.030489 
L 1183.475088 391.951801 
L 1183.949897 391.632015 
L 1184.424706 391.893293 
L 1184.899515 391.378013 
L 1185.374325 391.324467 
L 1185.849134 390.732433 
L 1186.323943 390.630421 
L 1186.798752 390.929878 
L 1187.273562 390.890716 
L 1187.748371 390.246944 
L 1188.22318 390.045395 
L 1188.697989 389.345027 
L 1189.172799 389.085227 
L 1189.647608 388.171254 
L 1190.597226 385.477691 
L 1191.072036 382.16664 
L 1191.546845 375.986502 
L 1192.021654 355.91349 
L 1192.496463 71.3124 
L 1192.971273 362.634901 
L 1192.971273 362.634901 
" style="fill:none;stroke:#1f77b4;stroke-linecap:square;stroke-width:1.5;"/>
   </g>
   <g id="patch_3">
    <path d="M 172.44 409.4712 
L 172.44 55.2096 
" style="fill:none;stroke:#000000;stroke-linecap:square;stroke-linejoin:miter;stroke-width:0.8;"/>
   </g>
   <g id="patch_4">
    <path d="M 1241.568 409.4712 
L 1241.568 55.2096 
" style="fill:none;stroke:#000000;stroke-linecap:square;stroke-linejoin:miter;stroke-width:0.8;"/>
   </g>
   <g id="patch_5">
    <path d="M 172.44 409.4712 
L 1241.568 409.4712 
" style="fill:none;stroke:#000000;stroke-linecap:square;stroke-linejoin:miter;stroke-width:0.8;"/>
   </g>
   <g id="patch_6">
    <path d="M 172.44 55.2096 
L 1241.568 55.2096 
" style="fill:none;stroke:#000000;stroke-linecap:square;stroke-linejoin:miter;stroke-width:0.8;"/>
   </g>
  </g>
 </g>
 <defs>
  <clipPath id="pab766adecd">
   <rect height="354.2616" width="1069.128" x="172.44" y="55.2096"/>
  </clipPath>
 </defs>
</svg>
