<?xml version="1.0" encoding="UTF-8" standalone="no"?>
<!-- Created with matplotlib (http://matplotlib.org/) -->

<svg
   xmlns:dc="http://purl.org/dc/elements/1.1/"
   xmlns:cc="http://creativecommons.org/ns#"
   xmlns:rdf="http://www.w3.org/1999/02/22-rdf-syntax-ns#"
   xmlns:svg="http://www.w3.org/2000/svg"
   xmlns="http://www.w3.org/2000/svg"
   xmlns:xlink="http://www.w3.org/1999/xlink"
   xmlns:sodipodi="http://sodipodi.sourceforge.net/DTD/sodipodi-0.dtd"
   xmlns:inkscape="http://www.inkscape.org/namespaces/inkscape"
   height="460pt"
   version="1.1"
   viewBox="0 0 1379 460"
   width="1379pt"
   id="svg208"
   sodipodi:docname="18_dsp_sig_fft_annot.svg"
   inkscape:version="0.92.1 r15371">
  <metadata
     id="metadata212">
    <rdf:RDF>
      <cc:Work
         rdf:about="">
        <dc:format>image/svg+xml</dc:format>
        <dc:type
           rdf:resource="http://purl.org/dc/dcmitype/StillImage" />
        <dc:title></dc:title>
      </cc:Work>
    </rdf:RDF>
  </metadata>
  <sodipodi:namedview
     pagecolor="#ffffff"
     bordercolor="#666666"
     borderopacity="1"
     objecttolerance="10"
     gridtolerance="10"
     guidetolerance="10"
     inkscape:pageopacity="0"
     inkscape:pageshadow="2"
     inkscape:window-width="3836"
     inkscape:window-height="2104"
     id="namedview210"
     showgrid="false"
     inkscape:zoom="1.2798684"
     inkscape:cx="765.98455"
     inkscape:cy="124.15072"
     inkscape:window-x="0"
     inkscape:window-y="26"
     inkscape:window-maximized="0"
     inkscape:current-layer="svg208" />
  <defs
     id="defs4">
    <style
       type="text/css"
       id="style2">
*{stroke-linecap:butt;stroke-linejoin:round;}
  </style>
  </defs>
  <g
     id="figure_1">
    <g
       id="patch_1">
      <path
         d="M 0 460.08  L 1379.52 460.08  L 1379.52 0  L 0 0  z "
         style="fill:#ffffff;"
         id="path6" />
    </g>
    <g
       id="axes_1">
      <g
         id="patch_2">
        <path
           d="M 172.44 409.4712  L 1241.568 409.4712  L 1241.568 55.2096  L 172.44 55.2096  z "
           style="fill:#ffffff;"
           id="path9" />
      </g>
      <g
         id="matplotlib.axis_1">
        <g
           id="xtick_1">
          <g
             id="line2d_1">
            <defs
               id="defs13">
              <path
                 d="M 0 0  L 0 3.5  "
                 id="m763db97599"
                 style="stroke:#000000;stroke-width:0.8;" />
            </defs>
            <g
               id="g17">
              <use
                 style="stroke:#000000;stroke-width:0.8;"
                 x="221.036727"
                 xlink:href="#m763db97599"
                 y="409.4712"
                 id="use15" />
            </g>
          </g>
          <g
             id="text_1">
            <!-- 0 -->
            <defs
               id="defs21">
              <path
                 d="M 31.78125 66.40625  Q 24.171875 66.40625 20.328125 58.90625  Q 16.5 51.421875 16.5 36.375  Q 16.5 21.390625 20.328125 13.890625  Q 24.171875 6.390625 31.78125 6.390625  Q 39.453125 6.390625 43.28125 13.890625  Q 47.125 21.390625 47.125 36.375  Q 47.125 51.421875 43.28125 58.90625  Q 39.453125 66.40625 31.78125 66.40625  M 31.78125 74.21875  Q 44.046875 74.21875 50.515625 64.515625  Q 56.984375 54.828125 56.984375 36.375  Q 56.984375 17.96875 50.515625 8.265625  Q 44.046875 -1.421875 31.78125 -1.421875  Q 19.53125 -1.421875 13.0625 8.265625  Q 6.59375 17.96875 6.59375 36.375  Q 6.59375 54.828125 13.0625 64.515625  Q 19.53125 74.21875 31.78125 74.21875  "
                 id="DejaVuSans-30" />
            </defs>
            <g
               transform="translate(217.855477 424.069637)scale(0.1 -0.1)"
               id="g25">
              <use
                 xlink:href="#DejaVuSans-30"
                 id="use23" />
            </g>
          </g>
        </g>
        <g
           id="xtick_2">
          <g
             id="line2d_2">
            <g
               id="g31">
              <use
                 style="stroke:#000000;stroke-width:0.8;"
                 x="458.441355"
                 xlink:href="#m763db97599"
                 y="409.4712"
                 id="use29" />
            </g>
          </g>
          <g
             id="text_2">
            <!-- 500 -->
            <defs
               id="defs35">
              <path
                 d="M 10.796875 72.90625  L 49.515625 72.90625  L 49.515625 64.59375  L 19.828125 64.59375  L 19.828125 46.734375  Q 21.96875 47.46875 24.109375 47.828125  Q 26.265625 48.1875 28.421875 48.1875  Q 40.625 48.1875 47.75 41.5  Q 54.890625 34.8125 54.890625 23.390625  Q 54.890625 11.625 47.5625 5.09375  Q 40.234375 -1.421875 26.90625 -1.421875  Q 22.3125 -1.421875 17.546875 -0.640625  Q 12.796875 0.140625 7.71875 1.703125  L 7.71875 11.625  Q 12.109375 9.234375 16.796875 8.0625  Q 21.484375 6.890625 26.703125 6.890625  Q 35.15625 6.890625 40.078125 11.328125  Q 45.015625 15.765625 45.015625 23.390625  Q 45.015625 31 40.078125 35.4375  Q 35.15625 39.890625 26.703125 39.890625  Q 22.75 39.890625 18.8125 39.015625  Q 14.890625 38.140625 10.796875 36.28125  z "
                 id="DejaVuSans-35" />
            </defs>
            <g
               transform="translate(448.897605 424.069637)scale(0.1 -0.1)"
               id="g43">
              <use
                 xlink:href="#DejaVuSans-35"
                 id="use37" />
              <use
                 x="63.623047"
                 xlink:href="#DejaVuSans-30"
                 id="use39" />
              <use
                 x="127.246094"
                 xlink:href="#DejaVuSans-30"
                 id="use41" />
            </g>
          </g>
        </g>
        <g
           id="xtick_3">
          <g
             id="line2d_3">
            <g
               id="g49">
              <use
                 style="stroke:#000000;stroke-width:0.8;"
                 x="695.845983"
                 xlink:href="#m763db97599"
                 y="409.4712"
                 id="use47" />
            </g>
          </g>
          <g
             id="text_3">
            <!-- 1000 -->
            <defs
               id="defs53">
              <path
                 d="M 12.40625 8.296875  L 28.515625 8.296875  L 28.515625 63.921875  L 10.984375 60.40625  L 10.984375 69.390625  L 28.421875 72.90625  L 38.28125 72.90625  L 38.28125 8.296875  L 54.390625 8.296875  L 54.390625 0  L 12.40625 0  z "
                 id="DejaVuSans-31" />
            </defs>
            <g
               transform="translate(683.120983 424.069637)scale(0.1 -0.1)"
               id="g63">
              <use
                 xlink:href="#DejaVuSans-31"
                 id="use55" />
              <use
                 x="63.623047"
                 xlink:href="#DejaVuSans-30"
                 id="use57" />
              <use
                 x="127.246094"
                 xlink:href="#DejaVuSans-30"
                 id="use59" />
              <use
                 x="190.869141"
                 xlink:href="#DejaVuSans-30"
                 id="use61" />
            </g>
          </g>
        </g>
        <g
           id="xtick_4">
          <g
             id="line2d_4">
            <g
               id="g69">
              <use
                 style="stroke:#000000;stroke-width:0.8;"
                 x="933.25061"
                 xlink:href="#m763db97599"
                 y="409.4712"
                 id="use67" />
            </g>
          </g>
          <g
             id="text_4">
            <!-- 1500 -->
            <g
               transform="translate(920.52561 424.069637)scale(0.1 -0.1)"
               id="g80">
              <use
                 xlink:href="#DejaVuSans-31"
                 id="use72" />
              <use
                 x="63.623047"
                 xlink:href="#DejaVuSans-35"
                 id="use74" />
              <use
                 x="127.246094"
                 xlink:href="#DejaVuSans-30"
                 id="use76" />
              <use
                 x="190.869141"
                 xlink:href="#DejaVuSans-30"
                 id="use78" />
            </g>
          </g>
        </g>
        <g
           id="xtick_5">
          <g
             id="line2d_5">
            <g
               id="g86">
              <use
                 style="stroke:#000000;stroke-width:0.8;"
                 x="1170.655238"
                 xlink:href="#m763db97599"
                 y="409.4712"
                 id="use84" />
            </g>
          </g>
          <g
             id="text_5">
            <!-- 2000 -->
            <defs
               id="defs90">
              <path
                 d="M 19.1875 8.296875  L 53.609375 8.296875  L 53.609375 0  L 7.328125 0  L 7.328125 8.296875  Q 12.9375 14.109375 22.625 23.890625  Q 32.328125 33.6875 34.8125 36.53125  Q 39.546875 41.84375 41.421875 45.53125  Q 43.3125 49.21875 43.3125 52.78125  Q 43.3125 58.59375 39.234375 62.25  Q 35.15625 65.921875 28.609375 65.921875  Q 23.96875 65.921875 18.8125 64.3125  Q 13.671875 62.703125 7.8125 59.421875  L 7.8125 69.390625  Q 13.765625 71.78125 18.9375 73  Q 24.125 74.21875 28.421875 74.21875  Q 39.75 74.21875 46.484375 68.546875  Q 53.21875 62.890625 53.21875 53.421875  Q 53.21875 48.921875 51.53125 44.890625  Q 49.859375 40.875 45.40625 35.40625  Q 44.1875 33.984375 37.640625 27.21875  Q 31.109375 20.453125 19.1875 8.296875  "
                 id="DejaVuSans-32" />
            </defs>
            <g
               transform="translate(1157.930238 424.069637)scale(0.1 -0.1)"
               id="g100">
              <use
                 xlink:href="#DejaVuSans-32"
                 id="use92" />
              <use
                 x="63.623047"
                 xlink:href="#DejaVuSans-30"
                 id="use94" />
              <use
                 x="127.246094"
                 xlink:href="#DejaVuSans-30"
                 id="use96" />
              <use
                 x="190.869141"
                 xlink:href="#DejaVuSans-30"
                 id="use98" />
            </g>
          </g>
        </g>
      </g>
      <g
         id="matplotlib.axis_2">
        <g
           id="ytick_1">
          <g
             id="line2d_6">
            <defs
               id="defs106">
              <path
                 d="M 0 0  L -3.5 0  "
                 id="m46ddc51bee"
                 style="stroke:#000000;stroke-width:0.8;" />
            </defs>
            <g
               id="g110">
              <use
                 style="stroke:#000000;stroke-width:0.8;"
                 x="172.44"
                 xlink:href="#m46ddc51bee"
                 y="393.382231"
                 id="use108" />
            </g>
          </g>
          <g
             id="text_6">
            <!-- 0 -->
            <g
               transform="translate(159.0775 397.18145)scale(0.1 -0.1)"
               id="g115">
              <use
                 xlink:href="#DejaVuSans-30"
                 id="use113" />
            </g>
          </g>
        </g>
        <g
           id="ytick_2">
          <g
             id="line2d_7">
            <g
               id="g121">
              <use
                 style="stroke:#000000;stroke-width:0.8;"
                 x="172.44"
                 xlink:href="#m46ddc51bee"
                 y="319.557502"
                 id="use119" />
            </g>
          </g>
          <g
             id="text_7">
            <!-- 500 -->
            <g
               transform="translate(146.3525 323.356721)scale(0.1 -0.1)"
               id="g130">
              <use
                 xlink:href="#DejaVuSans-35"
                 id="use124" />
              <use
                 x="63.623047"
                 xlink:href="#DejaVuSans-30"
                 id="use126" />
              <use
                 x="127.246094"
                 xlink:href="#DejaVuSans-30"
                 id="use128" />
            </g>
          </g>
        </g>
        <g
           id="ytick_3">
          <g
             id="line2d_8">
            <g
               id="g136">
              <use
                 style="stroke:#000000;stroke-width:0.8;"
                 x="172.44"
                 xlink:href="#m46ddc51bee"
                 y="245.732773"
                 id="use134" />
            </g>
          </g>
          <g
             id="text_8">
            <!-- 1000 -->
            <g
               transform="translate(139.99 249.531992)scale(0.1 -0.1)"
               id="g147">
              <use
                 xlink:href="#DejaVuSans-31"
                 id="use139" />
              <use
                 x="63.623047"
                 xlink:href="#DejaVuSans-30"
                 id="use141" />
              <use
                 x="127.246094"
                 xlink:href="#DejaVuSans-30"
                 id="use143" />
              <use
                 x="190.869141"
                 xlink:href="#DejaVuSans-30"
                 id="use145" />
            </g>
          </g>
        </g>
        <g
           id="ytick_4">
          <g
             id="line2d_9">
            <g
               id="g153">
              <use
                 style="stroke:#000000;stroke-width:0.8;"
                 x="172.44"
                 xlink:href="#m46ddc51bee"
                 y="171.908044"
                 id="use151" />
            </g>
          </g>
          <g
             id="text_9">
            <!-- 1500 -->
            <g
               transform="translate(139.99 175.707263)scale(0.1 -0.1)"
               id="g164">
              <use
                 xlink:href="#DejaVuSans-31"
                 id="use156" />
              <use
                 x="63.623047"
                 xlink:href="#DejaVuSans-35"
                 id="use158" />
              <use
                 x="127.246094"
                 xlink:href="#DejaVuSans-30"
                 id="use160" />
              <use
                 x="190.869141"
                 xlink:href="#DejaVuSans-30"
                 id="use162" />
            </g>
          </g>
        </g>
        <g
           id="ytick_5">
          <g
             id="line2d_10">
            <g
               id="g170">
              <use
                 style="stroke:#000000;stroke-width:0.8;"
                 x="172.44"
                 xlink:href="#m46ddc51bee"
                 y="98.083315"
                 id="use168" />
            </g>
          </g>
          <g
             id="text_10">
            <!-- 2000 -->
            <g
               transform="translate(139.99 101.882534)scale(0.1 -0.1)"
               id="g181">
              <use
                 xlink:href="#DejaVuSans-32"
                 id="use173" />
              <use
                 x="63.623047"
                 xlink:href="#DejaVuSans-30"
                 id="use175" />
              <use
                 x="127.246094"
                 xlink:href="#DejaVuSans-30"
                 id="use177" />
              <use
                 x="190.869141"
                 xlink:href="#DejaVuSans-30"
                 id="use179" />
            </g>
          </g>
        </g>
      </g>
      <g
         id="line2d_11">
        <path
           clip-path="url(#p6401f47144)"
           d="M 221.036727 392.78014  L 221.511537 392.720917  L 221.986346 393.210775  L 222.461155 392.659176  L 222.935964 392.998539  L 223.410774 392.882012  L 223.885583 392.30718  L 224.360392 392.909623  L 224.835201 393.188784  L 225.310011 392.949684  L 226.259629 393.266366  L 226.734438 392.384043  L 227.209248 392.944959  L 227.684057 392.77154  L 228.158866 392.836526  L 228.633675 393.237542  L 229.108485 392.586344  L 229.583294 392.925271  L 230.058103 393.078192  L 231.007722 393.177713  L 231.482531 392.408436  L 231.95734 393.225256  L 232.906959 392.987979  L 233.381768 392.704013  L 234.331386 393.172585  L 235.755814 393.00989  L 236.230623 392.846365  L 236.705433 393.178286  L 237.655051 392.727299  L 238.12986 392.738141  L 238.60467 392.872469  L 239.079479 393.148661  L 240.029097 393.111544  L 240.503907 393.29873  L 241.928335 392.738774  L 242.403144 392.958765  L 242.877953 392.95089  L 243.352762 392.766652  L 243.827572 392.989212  L 244.302381 392.802576  L 244.77719 392.349698  L 245.251999 393.072618  L 246.201618 392.945634  L 246.676427 393.133  L 247.151236 392.762205  L 247.626046 392.997947  L 248.575664 393.04211  L 249.050473 392.706084  L 249.525283 392.891685  L 250.000092 392.674627  L 250.474901 393.122464  L 250.94971 392.76054  L 251.42452 393.270331  L 251.899329 392.569295  L 252.374138 393.098368  L 252.848947 392.968893  L 253.323757 393.228016  L 253.798566 393.2924  L 254.273375 392.768564  L 254.748184 392.968242  L 255.222994 392.711856  L 255.697803 393.183984  L 256.172612 393.163305  L 257.122231 392.825322  L 257.59704 393.105479  L 258.546658 392.722047  L 259.021468 393.041798  L 259.496277 392.966409  L 259.971086 392.611801  L 260.920705 392.872217  L 261.395514 392.750779  L 261.870323 393.091122  L 262.345132 392.954807  L 262.819942 392.659733  L 263.294751 393.054781  L 263.76956 392.987796  L 264.244369 393.140202  L 264.719179 393.127198  L 265.193988 392.683516  L 265.668797 393.327212  L 266.618416 392.879807  L 267.093225 392.936827  L 267.568034 392.535403  L 268.042844 392.485469  L 268.517653 392.8933  L 268.992462 392.646501  L 269.467271 392.79498  L 269.942081 393.234326  L 270.41689 393.228749  L 271.366508 392.646035  L 271.841318 393.015217  L 272.790936 392.961036  L 273.265745 392.772845  L 273.740555 393.103037  L 274.215364 392.341541  L 274.690173 393.142592  L 275.164982 393.312723  L 275.639792 393.198346  L 276.114601 392.915391  L 276.58941 392.978841  L 277.064219 393.158866  L 277.539029 392.972309  L 278.013838 392.242298  L 278.488647 387.468479  L 278.963456 389.232329  L 279.438266 391.897463  L 279.913075 392.200133  L 280.387884 392.359725  L 281.337503 392.207153  L 281.812312 392.682067  L 282.287121 392.531317  L 282.76193 392.908506  L 283.23674 392.562455  L 283.711549 392.359643  L 284.186358 392.959909  L 285.135977 392.727847  L 285.610786 392.367637  L 286.560404 392.971448  L 287.035214 392.45889  L 287.510023 392.672414  L 287.984832 392.648885  L 288.459642 393.053082  L 288.934451 392.524808  L 289.40926 393.121317  L 290.358879 392.308498  L 290.833688 392.914676  L 291.308497 392.520142  L 291.783306 392.536989  L 292.258116 392.783507  L 292.732925 392.180228  L 293.207734 392.698861  L 293.682543 392.835275  L 294.632162 392.652707  L 295.106971 392.853139  L 296.05659 392.4033  L 296.531399 392.75223  L 297.006208 392.356962  L 297.481017 392.502251  L 297.955827 393.139205  L 298.430636 392.859386  L 298.905445 392.370153  L 299.380254 392.842719  L 299.855064 392.833265  L 300.804682 392.506045  L 301.279491 392.416598  L 302.22911 392.824149  L 303.178728 392.33073  L 303.653538 392.650235  L 304.603156 392.667059  L 305.077965 392.472221  L 305.552775 392.485338  L 306.027584 392.2469  L 306.502393 392.633513  L 306.977202 391.935391  L 307.452012 392.645717  L 307.926821 392.16008  L 308.40163 393.064885  L 309.826058 392.118495  L 310.300867 392.576883  L 310.775677 392.292314  L 311.250486 392.381059  L 311.725295 392.302285  L 312.200104 392.404819  L 312.674914 392.368037  L 313.149723 392.127961  L 313.624532 392.609204  L 314.099341 392.282089  L 315.523769 392.1813  L 315.998578 392.541331  L 316.473388 392.366178  L 316.948197 392.068504  L 317.423006 392.124572  L 317.897815 392.027073  L 318.372625 392.591323  L 318.847434 392.162548  L 319.322243 392.587233  L 320.271862 391.853285  L 320.746671 391.74992  L 321.22148 392.175681  L 321.696289 391.688196  L 322.645908 392.488118  L 323.120717 392.132677  L 323.595526 392.004371  L 324.070336 392.075387  L 324.545145 392.406815  L 325.019954 392.530527  L 325.494763 392.208417  L 325.969573 391.731628  L 326.444382 391.71234  L 327.394 391.905397  L 327.86881 391.521966  L 328.343619 391.942388  L 328.818428 391.712744  L 329.768047 391.593547  L 330.717665 392.115233  L 331.667284 391.392913  L 332.616902 391.41161  L 333.091712 391.621243  L 333.566521 391.52351  L 334.04133 390.958267  L 334.516139 391.071373  L 334.990949 391.062457  L 335.940567 390.775651  L 336.415376 390.751267  L 336.890186 391.22663  L 337.364995 390.904945  L 337.839804 390.782214  L 338.314613 390.318486  L 338.789423 390.824576  L 339.264232 390.804882  L 339.739041 390.244889  L 340.21385 390.555904  L 340.68866 390.374622  L 341.163469 389.93455  L 341.638278 389.763766  L 342.113087 389.296106  L 343.062706 389.26314  L 343.537515 388.770863  L 344.012324 388.991903  L 344.487134 388.536445  L 344.961943 388.519596  L 346.386371 386.307685  L 346.86118 386.109055  L 347.810798 384.375978  L 348.760417 381.382474  L 349.235226 379.189144  L 349.710035 375.686662  L 350.184845 370.716915  L 350.659654 360.503019  L 351.134463 333.661555  L 351.609272 71.3124  L 352.084082 296.706716  L 352.558891 350.8343  L 353.0337 365.766654  L 353.508509 372.552511  L 353.983319 377.135693  L 354.458128 380.101496  L 355.407747 383.733244  L 355.882556 384.780862  L 356.832174 385.977935  L 357.306984 386.786066  L 357.781793 388.12348  L 358.256602 387.318193  L 360.155839 389.016882  L 360.630648 389.178412  L 361.105458 389.193735  L 361.580267 389.901187  L 362.055076 389.895563  L 362.529885 390.239159  L 363.004695 390.253424  L 363.479504 389.779196  L 363.954313 390.520682  L 364.429122 390.523933  L 364.903932 390.230687  L 365.378741 390.884896  L 365.85355 390.630861  L 366.328359 391.260892  L 366.803169 390.590189  L 367.277978 391.116678  L 367.752787 391.355849  L 368.227596 391.348166  L 368.702406 390.919537  L 369.652024 391.524216  L 370.126833 391.507911  L 370.601643 391.291541  L 371.551261 391.590099  L 372.02607 391.636271  L 372.50088 391.837195  L 372.975689 391.509427  L 373.450498 391.388282  L 373.925307 391.716814  L 376.299354 391.95519  L 376.774163 391.721143  L 377.723781 392.291762  L 378.198591 392.352974  L 378.6734 392.227553  L 379.148209 391.954455  L 379.623019 392.058641  L 380.097828 391.810205  L 380.572637 392.370289  L 381.047446 391.877488  L 381.522256 391.749994  L 381.997065 392.347648  L 382.471874 391.821131  L 382.946683 392.300265  L 383.421493 392.495333  L 383.896302 392.233021  L 384.84592 392.525955  L 385.32073 392.00021  L 386.270348 392.496613  L 387.219967 392.397458  L 387.694776 391.906904  L 388.169585 392.428785  L 388.644394 392.295476  L 389.119204 392.670743  L 389.594013 392.472936  L 390.068822 392.033785  L 390.543631 392.520726  L 391.018441 392.285721  L 391.49325 392.33024  L 391.968059 392.498836  L 392.442868 392.357083  L 392.917678 392.59472  L 393.392487 392.210315  L 393.867296 392.783692  L 394.342105 392.628441  L 394.816915 392.773626  L 395.291724 392.259109  L 395.766533 392.630758  L 396.241342 392.328394  L 396.716152 392.844532  L 397.190961 392.140796  L 397.66577 392.639165  L 398.140579 392.728186  L 398.615389 392.515527  L 399.090198 392.862593  L 399.565007 392.633405  L 400.989435 392.423895  L 401.939054 392.648444  L 402.413863 392.652506  L 402.888672 393.118617  L 403.363481 392.586224  L 403.838291 392.940089  L 404.3131 392.432152  L 404.787909 392.918761  L 405.262718 392.489899  L 405.737528 392.297381  L 406.212337 392.278644  L 406.687146 392.715728  L 407.161955 392.647158  L 408.111574 392.94719  L 408.586383 392.589214  L 409.061192 392.641128  L 409.536002 392.536025  L 410.010811 393.05884  L 410.48562 392.517915  L 410.960429 392.752009  L 411.910048 392.755644  L 412.384857 392.809656  L 412.859666 392.532315  L 413.334476 392.942509  L 413.809285 392.835499  L 414.284094 392.606311  L 414.758903 392.881407  L 415.233713 392.584479  L 415.708522 392.822139  L 416.183331 392.442115  L 416.65814 393.068426  L 417.13295 392.986553  L 417.607759 392.56064  L 418.082568 392.874843  L 419.506996 392.61041  L 420.456614 392.860585  L 420.931424 392.642318  L 421.881042 392.723117  L 422.355851 392.881053  L 423.30547 392.659009  L 424.255089 392.882874  L 424.729898 391.234985  L 425.204707 392.436353  L 425.679516 392.518187  L 426.154326 393.105943  L 426.629135 393.01955  L 427.103944 392.69662  L 427.578753 392.739215  L 428.053563 393.236377  L 428.528372 392.481499  L 429.003181 392.457658  L 429.47799 393.185195  L 429.9528 392.998265  L 430.427609 393.061805  L 430.902418 392.90263  L 431.377227 392.403136  L 431.852037 392.698626  L 432.326846 392.711811  L 432.801655 393.004366  L 433.276464 392.94886  L 433.751274 392.529788  L 434.226083 392.971461  L 434.700892 393.068289  L 435.175701 392.690271  L 435.650511 392.969049  L 436.12532 393.04105  L 436.600129 392.864061  L 437.074938 393.08981  L 437.549748 392.958787  L 438.024557 392.504115  L 438.499366 393.214379  L 439.448985 392.72362  L 439.923794 392.880467  L 440.398603 392.758463  L 440.873412 393.055288  L 442.29784 392.774902  L 442.772649 392.99284  L 444.197077 392.964002  L 444.671886 392.672867  L 445.146696 393.118967  L 445.621505 393.106211  L 446.096314 392.849686  L 446.571124 392.998308  L 447.045933 392.83481  L 447.520742 393.133917  L 447.995551 392.390835  L 449.419979 393.236968  L 449.894788 392.864416  L 450.369598 392.954551  L 450.844407 392.532134  L 451.319216 392.815658  L 451.794025 393.240902  L 452.268835 392.62797  L 452.743644 393.254487  L 453.218453 392.605033  L 453.693262 392.862557  L 454.168072 393.327355  L 454.642881 392.982609  L 456.067309 392.745342  L 456.542118 392.99822  L 457.016927 392.778567  L 457.966546 392.946363  L 458.441355 392.914416  L 458.916164 393.248842  L 459.390973 393.278643  L 459.865783 392.848181  L 460.340592 393.095461  L 460.815401 392.721742  L 461.29021 392.898634  L 461.76502 393.261469  L 462.239829 393.216032  L 462.714638 393.004146  L 464.139066 392.911567  L 464.613875 393.139906  L 465.088684 392.575514  L 465.563494 392.848568  L 466.038303 392.759693  L 466.513112 393.077353  L 466.987921 392.763415  L 467.462731 393.134384  L 467.93754 393.167468  L 468.412349 393.050845  L 468.887159 393.119649  L 469.361968 392.83595  L 469.836777 393.032236  L 470.311586 392.938613  L 470.786396 393.250771  L 471.261205 392.84445  L 471.736014 392.687158  L 472.210823 393.320737  L 472.685633 393.043569  L 473.160442 393.009492  L 473.635251 392.606246  L 474.11006 392.641233  L 474.58487 393.155397  L 475.059679 392.902485  L 475.534488 392.950975  L 476.009297 392.739071  L 476.484107 392.983853  L 477.433725 392.99906  L 477.908534 393.304295  L 478.383344 392.744638  L 478.858153 393.304176  L 479.332962 392.659043  L 479.807771 392.846664  L 480.282581 392.839356  L 480.75739 392.973238  L 481.232199 393.232033  L 481.707008 392.898681  L 482.181818 392.918588  L 482.656627 392.603439  L 483.131436 392.996206  L 483.606245 393.10128  L 484.081055 392.869973  L 485.030673 392.828649  L 485.505482 393.155172  L 485.980292 392.894152  L 486.455101 393.125176  L 486.92991 393.206366  L 487.404719 393.1289  L 488.354338 392.751061  L 488.829147 393.314818  L 489.303956 392.985696  L 489.778766 393.306338  L 490.253575 392.994727  L 490.728384 392.493598  L 491.203193 393.246695  L 491.678003 392.594668  L 492.152812 393.270011  L 492.627621 392.674132  L 493.102431 393.101585  L 493.57724 392.901466  L 495.001668 392.985884  L 495.476477 392.681149  L 495.951286 392.962238  L 496.426095 393.089463  L 496.900905 393.062797  L 497.375714 392.895695  L 497.850523 393.159913  L 498.325332 393.058159  L 498.800142 393.190332  L 499.274951 393.031556  L 500.224569 392.866846  L 500.699379 393.105963  L 501.648997 393.169636  L 502.123806 392.888374  L 502.598616 393.085348  L 504.497853 393.010894  L 504.972662 392.828043  L 505.447471 393.111166  L 505.92228 392.942193  L 506.39709 393.1643  L 506.871899 392.928605  L 507.821517 393.229023  L 508.771136 393.030143  L 509.245945 393.179557  L 509.720754 392.140016  L 510.195564 393.017719  L 510.670373 392.724015  L 511.145182 392.744825  L 511.619991 393.108993  L 512.094801 393.156632  L 512.56961 392.4166  L 513.044419 392.945925  L 513.519228 392.838152  L 513.994038 393.066822  L 514.468847 392.818728  L 514.943656 393.26896  L 515.418466 393.306866  L 515.893275 393.113309  L 516.368084 393.08884  L 516.842893 393.287518  L 518.267321 392.944253  L 518.74213 392.636785  L 519.21694 392.483583  L 519.691749 392.860138  L 520.166558 393.054499  L 520.641367 392.647101  L 521.116177 392.421161  L 521.590986 393.096687  L 522.065795 392.717626  L 522.540604 392.705347  L 523.015414 392.973339  L 523.965032 393.11879  L 524.439841 393.168263  L 524.914651 392.672779  L 525.864269 392.77956  L 526.339078 393.127981  L 526.813888 392.621039  L 527.288697 392.95661  L 527.763506 392.802997  L 528.238315 393.295226  L 528.713125 392.950971  L 529.187934 392.867047  L 529.662743 393.159103  L 530.137552 393.159523  L 530.612362 392.919165  L 531.087171 393.274083  L 532.036789 392.820377  L 532.511599 392.768396  L 533.461217 393.045655  L 535.835263 393.067492  L 536.310073 392.766506  L 536.784882 392.794824  L 537.734501 393.228765  L 538.20931 392.923675  L 538.684119 392.884086  L 539.158928 392.623381  L 539.633738 393.145768  L 540.583356 392.745641  L 541.532975 393.064409  L 542.007784 392.84093  L 542.482593 393.223861  L 542.957402 393.273574  L 543.432212 392.918582  L 543.907021 393.296717  L 544.38183 392.595865  L 544.856639 393.299084  L 545.331449 392.719515  L 545.806258 393.096263  L 546.281067 393.260875  L 546.755876 392.559079  L 547.230686 392.962972  L 547.705495 392.900209  L 548.180304 392.9819  L 548.655113 392.878763  L 549.129923 393.1218  L 549.604732 393.130189  L 550.079541 393.31775  L 550.55435 393.174001  L 551.02916 392.628739  L 551.503969 393.308174  L 551.978778 393.044563  L 552.928397 393.098678  L 553.403206 392.681882  L 553.878015 393.29688  L 554.352824 393.095192  L 554.827634 393.059662  L 555.302443 392.742374  L 555.777252 392.755467  L 556.252061 392.985192  L 556.726871 392.895434  L 557.20168 393.167615  L 557.676489 392.524494  L 558.151298 392.670267  L 558.626108 393.088141  L 560.525345 393.183028  L 561.000154 392.929886  L 561.474963 393.237886  L 562.899391 392.885927  L 563.3742 392.978246  L 563.84901 393.307857  L 564.323819 392.928718  L 564.798628 393.159273  L 565.273437 392.853853  L 565.748247 393.324191  L 567.172674 392.751463  L 568.122293 393.33111  L 568.597102 393.113257  L 569.546721 393.094006  L 570.02153 393.25034  L 570.496339 393.118948  L 570.971148 393.158619  L 571.445958 392.983365  L 571.920767 392.947474  L 572.395576 393.294809  L 572.870385 393.21161  L 573.345195 392.881627  L 573.820004 392.701428  L 574.294813 393.076216  L 574.769622 392.598975  L 575.244432 393.18725  L 575.719241 393.224656  L 576.19405 393.025112  L 576.668859 392.522123  L 577.143669 392.589767  L 577.618478 393.247814  L 578.568096 392.442824  L 579.042906 393.197093  L 579.992524 392.911442  L 580.467333 393.095167  L 580.942143 392.998514  L 581.416952 393.247375  L 581.891761 392.924573  L 582.366571 393.056363  L 582.84138 392.892713  L 584.740617 392.96945  L 585.215426 393.2622  L 586.165045 392.933476  L 586.639854 393.031723  L 587.114663 392.988237  L 587.589472 393.166875  L 588.539091 392.838035  L 589.0139 393.078602  L 589.488709 393.122142  L 589.963519 392.824073  L 590.913137 392.957282  L 591.387946 393.16804  L 591.862756 393.143639  L 592.337565 392.566332  L 592.812374 393.050598  L 593.287183 392.893873  L 593.761993 393.103822  L 594.236802 392.918563  L 594.711611 393.00863  L 595.18642 393.215283  L 595.66123 392.846607  L 596.136039 392.851668  L 597.085657 393.155769  L 598.035276 392.957179  L 598.510085 393.26103  L 598.984894 392.913314  L 599.459704 393.178925  L 599.934513 392.88146  L 600.409322 392.856522  L 600.884131 392.51475  L 601.358941 393.284574  L 601.83375 393.019363  L 602.783368 392.761125  L 603.258178 393.047674  L 603.732987 392.949773  L 604.207796 392.69289  L 604.682605 392.909095  L 605.157415 393.253569  L 606.581843 392.896044  L 607.056652 393.146915  L 607.531461 393.144598  L 608.00627 392.7607  L 608.955889 393.185481  L 609.430698 392.599355  L 609.905507 393.176384  L 610.855126 393.166247  L 611.804744 393.102291  L 612.279554 392.896682  L 612.754363 392.855148  L 613.229172 393.082594  L 614.178791 392.633034  L 614.6536 393.030933  L 615.128409 392.477812  L 615.603218 392.988634  L 616.078028 393.302996  L 616.552837 392.515369  L 617.027646 392.794058  L 617.502455 393.239952  L 617.977265 392.83668  L 618.452074 393.248166  L 618.926883 393.229731  L 619.401692 392.853547  L 619.876502 393.092044  L 620.82612 392.990965  L 621.300929 392.521652  L 621.775739 393.181948  L 622.250548 393.183884  L 622.725357 393.012546  L 623.200166 393.141761  L 624.624594 392.935578  L 625.099403 392.871835  L 625.574213 392.629007  L 626.049022 392.970493  L 626.523831 393.030527  L 627.47345 392.969281  L 627.948259 393.246625  L 628.423068 392.519079  L 629.372687 393.093711  L 630.322305 393.134835  L 630.797115 392.978192  L 631.746733 393.162628  L 632.221542 392.851722  L 632.696352 393.064334  L 633.171161 392.756235  L 633.64597 393.20344  L 634.120779 392.673861  L 634.595589 392.351921  L 635.070398 392.848064  L 635.545207 392.746959  L 636.020016 392.802706  L 636.494826 393.09914  L 636.969635 393.235783  L 637.919253 392.979503  L 638.394063 393.353812  L 638.868872 393.045992  L 640.2933 393.106944  L 640.768109 392.71506  L 641.242918 393.12351  L 641.717727 393.051695  L 642.192537 393.181314  L 642.667346 393.1234  L 643.142155 393.185457  L 643.616964 392.38881  L 644.091774 393.086837  L 644.566583 392.413548  L 645.041392 393.316385  L 645.991011 392.953336  L 646.46582 392.772868  L 647.415438 393.313746  L 648.365057 392.764541  L 648.839866 393.11729  L 649.314675 393.172696  L 650.264294 392.800361  L 650.739103 393.046249  L 651.213913 392.736012  L 652.163531 393.285546  L 652.63834 392.7879  L 653.587959 392.827586  L 654.062768 393.16851  L 654.537577 392.860402  L 655.012387 393.035266  L 655.487196 392.859213  L 655.962005 393.263887  L 656.436814 393.253638  L 656.911624 393.102394  L 657.861242 393.106533  L 658.336051 393.263764  L 659.28567 393.361808  L 660.710098 392.753688  L 661.184907 392.812297  L 661.659716 393.143331  L 662.134525 393.188835  L 662.609335 392.68381  L 663.558953 393.177757  L 664.983381 393.141156  L 666.407809 392.994011  L 666.882618 393.130653  L 667.357427 393.058779  L 667.832236 393.119258  L 668.781855 392.896007  L 669.256664 393.206743  L 670.681092 392.899905  L 671.155901 392.887425  L 671.63071 393.152731  L 672.10552 393.009735  L 672.580329 393.086319  L 673.055138 393.288672  L 673.529948 392.848544  L 674.004757 392.603976  L 674.479566 393.194059  L 674.954375 392.812125  L 675.429185 392.903899  L 675.903994 392.878541  L 676.378803 393.113791  L 676.853612 393.217256  L 677.803231 392.990686  L 678.27804 392.950972  L 678.752849 393.355379  L 679.227659 392.847804  L 679.702468 393.126541  L 680.177277 393.035458  L 680.652086 393.113832  L 681.126896 393.043722  L 681.601705 393.211074  L 682.076514 392.725653  L 682.551323 393.260253  L 683.026133 393.195744  L 683.500942 392.823377  L 683.975751 393.167014  L 684.45056 393.076732  L 684.92537 393.123229  L 685.400179 392.728763  L 685.874988 392.891032  L 686.824607 392.956009  L 687.299416 393.027098  L 687.774225 392.912353  L 688.249034 392.91655  L 688.723844 393.165441  L 689.198653 392.80915  L 690.148271 393.321033  L 690.623081 393.3684  L 691.09789 393.077317  L 691.572699 393.233079  L 692.047508 392.911649  L 694.421555 393.191024  L 694.896364 393.149442  L 695.371173 393.252229  L 695.845983 392.696872  L 696.320792 393.198456  L 696.795601 393.317728  L 697.27041 392.998713  L 697.74522 393.091118  L 698.220029 392.765007  L 698.694838 392.810149  L 699.169647 393.219168  L 699.644457 393.33649  L 700.119266 393.27999  L 700.594075 392.974535  L 701.068884 392.828342  L 701.543694 393.156802  L 702.018503 393.17585  L 702.493312 392.818066  L 702.968121 393.269968  L 703.442931 392.773792  L 703.91774 392.890921  L 704.392549 392.870298  L 704.867358 393.021675  L 705.342168 392.784895  L 706.766595 393.138681  L 707.241405 392.78146  L 707.716214 393.169642  L 708.665832 393.002812  L 709.615451 392.877074  L 710.09026 393.24222  L 710.565069 393.152857  L 711.039879 392.876223  L 711.514688 393.260684  L 711.989497 393.2379  L 712.464306 393.000324  L 712.939116 392.968655  L 713.413925 393.263383  L 714.363543 392.987484  L 715.787971 392.987784  L 716.26278 393.23947  L 716.73759 392.789251  L 717.212399 392.954649  L 717.687208 392.916088  L 719.111636 393.089079  L 719.586445 392.7114  L 720.061255 393.290578  L 720.536064 393.118317  L 721.485682 393.147834  L 721.960492 392.666569  L 722.435301 393.292408  L 723.384919 393.34119  L 723.859729 393.0359  L 724.334538 393.017381  L 724.809347 392.697492  L 725.284156 393.257816  L 725.758966 393.198568  L 726.233775 393.328526  L 726.708584 393.11516  L 727.183393 392.473103  L 727.658203 392.97502  L 728.133012 391.509407  L 728.607821 391.385382  L 729.08263 392.806479  L 729.55744 393.012439  L 730.507058 392.82049  L 730.981867 393.234915  L 731.456677 393.143192  L 731.931486 392.933868  L 732.406295 393.288399  L 733.355914 392.933855  L 733.830723 393.197248  L 734.305532 392.793971  L 734.780341 392.572547  L 735.72996 393.077254  L 736.679578 393.177901  L 737.154388 392.964607  L 738.104006 393.221891  L 738.578815 393.003134  L 739.053625 393.212776  L 739.528434 393.118864  L 740.003243 392.85018  L 740.478052 393.214763  L 740.952862 393.046018  L 741.427671 393.164182  L 741.90248 392.871184  L 742.852099 392.928182  L 743.326908 393.164856  L 743.801717 392.990105  L 744.276527 393.113022  L 745.226145 392.893027  L 746.175764 393.080249  L 747.125382 392.83323  L 747.600191 393.152767  L 748.075001 392.406726  L 748.54981 392.964262  L 749.024619 392.934105  L 749.499428 393.155425  L 749.974238 392.682789  L 750.449047 393.328936  L 750.923856 392.965157  L 751.398665 393.228156  L 751.873475 393.134522  L 752.348284 392.881123  L 752.823093 392.810304  L 753.297902 392.854476  L 753.772712 392.756654  L 754.247521 393.179523  L 754.72233 392.920863  L 755.671949 393.23665  L 756.146758 392.547997  L 756.621567 392.816042  L 757.096376 392.859066  L 757.571186 393.074892  L 758.520804 393.164718  L 758.995613 392.884181  L 759.470423 393.178928  L 760.420041 393.047013  L 762.794087 393.085323  L 763.268897 392.761792  L 763.743706 393.033741  L 764.693325 392.96827  L 765.168134 393.116834  L 765.642943 393.06103  L 766.117752 392.71845  L 766.592562 392.783933  L 767.067371 393.154048  L 767.54218 392.841724  L 768.016989 392.821823  L 768.491799 393.101744  L 769.441417 393.083058  L 769.916226 393.065394  L 770.391036 393.282724  L 770.865845 392.674725  L 771.340654 393.082432  L 772.290273 392.9079  L 772.765082 393.260041  L 773.239891 392.438371  L 773.7147 392.801899  L 774.664319 393.128201  L 776.088747 393.029478  L 776.563556 392.842944  L 778.462793 393.085651  L 779.412411 392.807201  L 779.887221 392.862844  L 780.36203 393.165292  L 780.836839 392.85146  L 781.311648 392.816193  L 781.786458 393.005915  L 782.261267 392.963143  L 782.736076 392.624363  L 783.210885 392.581522  L 783.685695 392.891651  L 784.160504 392.899083  L 784.635313 392.548917  L 785.110122 392.814121  L 785.584932 392.857981  L 786.059741 393.275474  L 786.53455 392.914509  L 787.00936 393.317774  L 787.484169 392.729207  L 787.958978 393.084198  L 788.433787 392.628173  L 789.383406 393.023635  L 789.858215 392.530123  L 790.333024 392.418377  L 790.807834 392.705485  L 791.282643 392.351005  L 791.757452 392.739265  L 792.232261 392.439215  L 793.18188 392.704455  L 793.656689 393.086425  L 794.131498 392.029895  L 794.606308 392.182216  L 795.081117 390.11238  L 795.555926 392.552283  L 796.030735 392.095984  L 796.505545 391.962496  L 796.980354 391.236309  L 797.455163 391.817621  L 798.404782 391.682543  L 799.3544 390.365939  L 800.304019 387.385957  L 800.778828 383.028543  L 801.253637 350.760374  L 801.728446 374.714829  L 802.203256 385.824  L 802.678065 388.624073  L 803.152874 390.209249  L 804.102493 391.846645  L 804.577302 391.784074  L 805.052111 391.862628  L 805.52692 392.083341  L 806.00173 392.156612  L 806.476539 392.587747  L 806.951348 392.257269  L 807.426157 392.317897  L 807.900967 391.596944  L 808.375776 392.583978  L 809.325395 393.049961  L 809.800204 392.520005  L 810.275013 392.952186  L 811.224632 392.784039  L 811.699441 392.849865  L 812.17425 392.631405  L 812.649059 393.087794  L 813.123869 393.111562  L 813.598678 392.935957  L 814.073487 393.225168  L 814.548296 393.159576  L 815.023106 392.978794  L 815.497915 393.292516  L 815.972724 393.100339  L 816.447533 393.270407  L 816.922343 393.299497  L 817.397152 392.874343  L 817.871961 392.983213  L 818.34677 392.773682  L 818.82158 392.97758  L 819.296389 392.531794  L 819.771198 393.140243  L 820.246007 393.030986  L 820.720817 393.10817  L 821.670435 392.754838  L 822.145244 393.144386  L 822.620054 392.94094  L 823.569672 393.338366  L 824.044481 393.124458  L 824.519291 393.198457  L 824.9941 392.874247  L 826.418528 393.155068  L 826.893337 393.091548  L 827.368146 392.734478  L 827.842955 393.177133  L 829.267383 393.105288  L 829.742192 393.210825  L 830.691811 392.870016  L 831.16662 393.142377  L 831.641429 392.846071  L 832.116239 393.047205  L 833.065857 393.076205  L 833.540667 392.832572  L 834.490285 393.236115  L 834.965094 393.144236  L 835.439904 393.307365  L 836.864331 393.194781  L 838.288759 393.308336  L 838.763568 393.0486  L 839.713187 393.226137  L 840.187996 393.016552  L 840.662805 393.210399  L 841.137615 393.051957  L 841.612424 393.261702  L 842.562042 392.838241  L 843.036852 393.0977  L 843.98647 392.93566  L 844.461279 393.138343  L 844.936089 392.71462  L 845.410898 393.053897  L 846.360516 392.944518  L 846.835326 393.192009  L 847.310135 392.927679  L 847.784944 393.092957  L 848.259753 392.774406  L 848.734563 393.175709  L 849.209372 393.305402  L 850.15899 392.99197  L 850.6338 393.297683  L 851.583418 393.024553  L 852.058227 393.214529  L 852.533037 393.262019  L 853.007846 392.924252  L 853.482655 393.211561  L 853.957464 393.196969  L 854.432274 393.043837  L 854.907083 393.155025  L 855.856702 392.879894  L 856.331511 392.922267  L 856.80632 393.102056  L 857.281129 392.906504  L 857.755939 393.189008  L 858.230748 392.867996  L 858.705557 393.204537  L 859.180366 393.305162  L 859.655176 392.767609  L 860.129985 392.816762  L 861.554413 393.367048  L 862.029222 392.935651  L 862.504031 393.326908  L 863.45365 392.845205  L 863.928459 393.240431  L 864.403268 393.173113  L 864.878077 393.299667  L 865.352887 393.025254  L 866.302505 393.184652  L 866.777314 392.887945  L 867.252124 393.134329  L 867.726933 392.741512  L 868.676551 393.219318  L 869.62617 392.665964  L 870.100979 392.966771  L 870.575788 393.106717  L 871.050598 392.858328  L 872.000216 393.030222  L 872.475025 392.703411  L 872.949835 392.71785  L 873.424644 392.852482  L 873.899453 392.806647  L 874.374262 386.614871  L 874.849072 391.872988  L 875.323881 392.608748  L 875.79869 392.607987  L 876.273499 393.213506  L 876.748309 392.979515  L 877.223118 393.248292  L 877.697927 392.90835  L 878.172737 392.810312  L 878.647546 392.425561  L 879.122355 393.236468  L 879.597164 393.082222  L 880.071974 393.3146  L 880.546783 392.459511  L 881.021592 392.680731  L 881.496401 392.595508  L 883.870448 393.118409  L 884.345257 392.801459  L 884.820066 393.112976  L 885.294875 393.127778  L 885.769685 392.937794  L 888.143731 393.188722  L 888.61854 392.959059  L 889.093349 393.083664  L 890.042968 392.782463  L 890.517777 393.346008  L 890.992586 392.820661  L 891.467396 393.102254  L 891.942205 392.765521  L 892.417014 392.998777  L 894.316251 393.237917  L 894.79106 392.690244  L 895.26587 393.114239  L 895.740679 393.224648  L 896.215488 392.977338  L 896.690297 393.223627  L 897.165107 392.899273  L 897.639916 392.900154  L 898.114725 393.272415  L 898.589534 393.21811  L 899.064344 392.861657  L 899.539153 393.19866  L 900.013962 393.140248  L 900.488772 392.956524  L 901.43839 393.097227  L 901.913199 392.838876  L 902.862818 393.308645  L 904.762055 393.026382  L 905.236864 392.970418  L 905.711673 393.326639  L 906.186483 393.061769  L 906.661292 393.198202  L 907.136101 392.70191  L 907.61091 393.045441  L 908.08572 392.866597  L 908.560529 393.12555  L 909.035338 393.219078  L 909.510147 392.798055  L 910.459766 392.974107  L 911.409384 393.15405  L 911.884194 393.045476  L 912.359003 392.730212  L 913.308621 393.316588  L 914.25824 392.968057  L 914.733049 393.153209  L 915.207858 393.209948  L 915.682668 393.063546  L 916.157477 393.244477  L 916.632286 392.994411  L 917.107095 393.237967  L 918.056714 393.276189  L 919.006332 392.643353  L 919.481142 392.867945  L 919.955951 393.3227  L 920.43076 393.103321  L 920.905569 393.288499  L 921.380379 392.948408  L 923.279616 393.277115  L 923.754425 393.065628  L 924.229234 393.174493  L 924.704044 392.919949  L 925.178853 393.242106  L 925.653662 393.100288  L 926.128471 393.26521  L 926.603281 392.918057  L 927.07809 393.13285  L 928.027708 392.764326  L 928.502518 392.880823  L 928.977327 392.467615  L 929.926945 393.20941  L 930.401755 392.845939  L 931.351373 393.282974  L 932.300992 392.88811  L 932.775801 392.983383  L 933.25061 392.779083  L 934.200229 392.871864  L 934.675038 393.293676  L 935.149847 392.904926  L 935.624656 393.111692  L 936.099466 392.9736  L 936.574275 393.188859  L 937.049084 392.888019  L 937.523893 393.248273  L 937.998703 393.063899  L 938.473512 393.229803  L 938.948321 392.448502  L 939.42313 393.088118  L 939.89794 393.131257  L 940.372749 392.689225  L 940.847558 393.22968  L 941.322367 392.957371  L 941.797177 393.014663  L 942.271986 393.217945  L 942.746795 392.647701  L 943.221604 392.983132  L 943.696414 392.905689  L 944.171223 393.192997  L 944.646032 392.940581  L 945.120841 392.953694  L 945.595651 393.32128  L 946.545269 393.120776  L 947.020079 393.078139  L 947.494888 392.690059  L 947.969697 392.637345  L 948.444506 393.125256  L 948.919316 392.590001  L 949.394125 393.292257  L 950.343743 392.957625  L 951.293362 393.096531  L 951.768171 392.938268  L 952.71779 393.244962  L 953.667408 393.109024  L 954.142217 393.194768  L 955.091836 393.14015  L 956.041454 393.069654  L 956.516264 393.308472  L 956.991073 392.714547  L 957.465882 393.146713  L 957.940691 392.719968  L 958.415501 393.23539  L 958.89031 393.04106  L 959.839928 393.259436  L 960.789547 393.071439  L 961.264356 392.667851  L 961.739165 393.287398  L 962.213975 392.771878  L 962.688784 393.104858  L 964.113212 393.244447  L 964.588021 392.96097  L 965.06283 392.970301  L 965.537639 393.105792  L 966.012449 392.633061  L 966.487258 393.218858  L 966.962067 392.870339  L 967.436876 393.220301  L 967.911686 393.08319  L 968.386495 392.675469  L 969.336114 393.2559  L 969.810923 393.20495  L 970.285732 393.290809  L 970.760541 393.182122  L 971.235351 392.8901  L 971.71016 392.984917  L 972.184969 392.783295  L 972.659778 393.097819  L 973.134588 393.016567  L 973.609397 393.322811  L 974.084206 392.880863  L 974.559015 393.103049  L 975.033825 393.138651  L 975.508634 392.833938  L 975.983443 393.303198  L 976.458252 392.675208  L 976.933062 392.814872  L 977.407871 393.262275  L 977.88268 392.961432  L 978.357489 392.910113  L 979.307108 393.293855  L 979.781917 392.695767  L 980.256726 393.097614  L 980.731536 392.912089  L 981.206345 393.202923  L 981.681154 393.034912  L 982.155963 393.075331  L 982.630773 392.790598  L 983.105582 393.149383  L 983.580391 393.080351  L 984.0552 393.241586  L 984.53001 392.803075  L 985.004819 393.270291  L 985.479628 393.043117  L 985.954437 392.952034  L 986.429247 393.196145  L 986.904056 392.992855  L 987.378865 392.5931  L 987.853674 393.190232  L 988.328484 393.170684  L 988.803293 393.016477  L 989.278102 393.167556  L 989.752911 392.960545  L 990.227721 392.892163  L 991.177339 393.176226  L 992.126958 392.968284  L 992.601767 392.957753  L 993.076576 393.197707  L 994.026195 393.039088  L 994.501004 393.092003  L 994.975813 393.275547  L 995.450623 393.313751  L 995.925432 393.128807  L 996.400241 393.161938  L 996.87505 392.581991  L 997.34986 392.672183  L 997.824669 393.070531  L 998.299478 393.108207  L 998.774287 392.921082  L 999.249097 392.922048  L 999.723906 393.13166  L 1000.673524 393.2349  L 1001.623143 393.132997  L 1002.097952 393.073463  L 1002.572761 392.791889  L 1003.047571 393.197228  L 1003.52238 392.956434  L 1003.997189 393.317121  L 1004.471998 392.792542  L 1005.421617 393.159359  L 1006.371235 393.276048  L 1006.846045 393.008593  L 1007.795663 393.300712  L 1008.270472 393.363489  L 1008.745282 393.227765  L 1009.220091 392.920107  L 1009.6949 392.993529  L 1010.169709 392.85733  L 1010.644519 393.206613  L 1011.119328 393.143876  L 1011.594137 392.823538  L 1012.068946 393.012662  L 1012.543756 392.933047  L 1013.018565 392.692484  L 1013.493374 393.190162  L 1013.968184 393.157059  L 1014.917802 393.302645  L 1015.392611 392.819352  L 1015.867421 393.145503  L 1016.34223 392.8618  L 1016.817039 393.338317  L 1017.766658 392.854074  L 1018.241467 392.739559  L 1018.716276 393.122639  L 1019.191085 393.084515  L 1019.665895 393.258592  L 1020.140704 392.952894  L 1020.615513 393.059454  L 1021.090322 392.802573  L 1022.039941 393.235253  L 1022.51475 393.179846  L 1022.989559 392.896618  L 1023.939178 393.097462  L 1024.888796 393.297943  L 1025.363606 392.696337  L 1025.838415 393.265741  L 1026.313224 392.885829  L 1027.262843 392.855144  L 1027.737652 393.287364  L 1028.212461 393.249342  L 1028.68727 392.978755  L 1029.16208 392.87185  L 1029.636889 392.615531  L 1030.111698 392.896431  L 1030.586507 392.832671  L 1031.061317 392.944251  L 1032.010935 392.900059  L 1032.485744 393.266874  L 1032.960554 393.139856  L 1033.435363 393.271162  L 1033.910172 393.034421  L 1034.384981 392.638964  L 1034.859791 392.989373  L 1035.3346 392.909737  L 1036.284219 393.091858  L 1036.759028 392.943338  L 1037.233837 392.911957  L 1038.183456 393.111536  L 1039.133074 393.141538  L 1039.607883 392.548651  L 1040.082693 393.075512  L 1040.557502 393.257165  L 1041.032311 392.852144  L 1041.50712 392.996684  L 1041.98193 393.257878  L 1042.456739 392.602104  L 1042.931548 392.75734  L 1043.406357 392.755505  L 1043.881167 393.121904  L 1044.355976 392.930787  L 1044.830785 392.893997  L 1045.305594 393.32449  L 1046.255213 393.10215  L 1046.730022 392.702931  L 1047.204831 392.709842  L 1047.679641 392.942377  L 1048.15445 392.89859  L 1048.629259 393.342138  L 1049.578878 392.990134  L 1050.053687 393.339372  L 1050.528496 392.284131  L 1051.003305 392.938963  L 1051.478115 393.293056  L 1052.902542 392.943755  L 1053.377352 392.946686  L 1053.852161 393.197667  L 1054.32697 392.903689  L 1055.276589 393.240597  L 1055.751398 393.200267  L 1056.226207 392.726759  L 1056.701016 393.166178  L 1057.175826 393.273638  L 1057.650635 392.816683  L 1058.125444 393.071463  L 1058.600253 392.608586  L 1059.075063 392.909302  L 1060.024681 392.956952  L 1060.499491 392.8426  L 1060.9743 393.038489  L 1061.923918 392.983293  L 1062.873537 393.176433  L 1063.348346 392.578314  L 1064.297965 393.2948  L 1064.772774 393.203291  L 1065.247583 393.313314  L 1066.197202 392.663082  L 1066.672011 392.793443  L 1067.14682 393.125269  L 1068.096439 392.982227  L 1068.571248 393.193047  L 1069.046057 392.937717  L 1069.520866 392.944541  L 1069.995676 393.241433  L 1070.470485 392.813617  L 1070.945294 393.106923  L 1071.420103 393.073652  L 1071.894913 392.656954  L 1072.369722 393.047116  L 1072.844531 392.926743  L 1073.31934 393.194666  L 1073.79415 393.188229  L 1074.268959 392.918178  L 1074.743768 392.490155  L 1075.218577 393.111024  L 1075.693387 393.226158  L 1076.643005 392.974007  L 1077.117814 392.678906  L 1077.592624 393.226911  L 1078.067433 393.140096  L 1079.017051 393.284061  L 1079.491861 392.653203  L 1079.96667 393.359205  L 1080.916288 393.283957  L 1081.391098 392.919704  L 1081.865907 393.131716  L 1082.340716 392.470349  L 1082.815526 393.11818  L 1083.290335 392.406846  L 1083.765144 392.995255  L 1084.714763 392.976104  L 1085.189572 393.17676  L 1085.664381 392.788299  L 1086.13919 393.144994  L 1086.614 392.825785  L 1087.088809 392.799503  L 1087.563618 393.289495  L 1088.038427 392.970958  L 1088.513237 393.219795  L 1088.988046 392.896895  L 1089.462855 393.206015  L 1089.937664 392.865518  L 1090.887283 392.723842  L 1091.362092 393.059238  L 1091.836901 392.77985  L 1092.311711 393.006707  L 1092.78652 392.9173  L 1093.261329 393.229136  L 1094.210948 392.919142  L 1094.685757 392.73056  L 1095.160566 393.123601  L 1095.635375 392.790402  L 1096.584994 392.663379  L 1097.534612 392.876068  L 1098.484231 392.732887  L 1098.95904 393.059231  L 1099.908659 393.150087  L 1100.383468 392.999294  L 1100.858277 392.677042  L 1101.333086 393.162226  L 1102.282705 392.769467  L 1102.757514 393.141084  L 1103.232323 393.200741  L 1103.707133 392.781725  L 1104.181942 393.159215  L 1104.656751 393.279796  L 1105.131561 392.994366  L 1105.60637 393.029998  L 1106.081179 392.869473  L 1106.555988 393.130838  L 1107.030798 392.796035  L 1107.980416 393.314342  L 1108.455225 393.263414  L 1108.930035 392.846016  L 1109.879653 393.229321  L 1110.354462 392.99386  L 1110.829272 393.192563  L 1111.304081 392.977233  L 1111.77889 393.087264  L 1112.253699 392.922143  L 1113.203318 393.220394  L 1113.678127 392.896588  L 1114.152936 393.048574  L 1114.627746 393.333009  L 1115.102555 393.133704  L 1115.577364 392.810584  L 1116.526983 392.995799  L 1117.001792 392.987524  L 1117.476601 392.729774  L 1117.95141 393.070862  L 1118.42622 393.113555  L 1118.901029 392.864172  L 1119.375838 393.18743  L 1120.325457 393.055103  L 1120.800266 393.326414  L 1121.275075 392.953248  L 1121.749884 393.278081  L 1122.699503 392.796101  L 1123.649121 393.170897  L 1124.123931 392.90502  L 1124.59874 392.963293  L 1125.073549 393.208739  L 1125.548358 393.10075  L 1126.023168 393.122467  L 1126.497977 392.982922  L 1126.972786 393.298825  L 1127.447596 393.159608  L 1127.922405 392.495756  L 1128.397214 392.558441  L 1128.872023 393.220895  L 1129.346833 393.004931  L 1129.821642 393.231022  L 1130.296451 392.994466  L 1130.77126 393.210524  L 1131.24607 392.866161  L 1131.720879 392.812281  L 1132.195688 393.284853  L 1132.670497 392.925579  L 1133.145307 393.250986  L 1133.620116 392.866416  L 1134.094925 393.021001  L 1135.044544 393.063369  L 1135.519353 392.92038  L 1135.994162 392.983013  L 1136.468971 392.809012  L 1136.943781 393.202983  L 1137.41859 393.015941  L 1137.893399 393.154448  L 1138.368208 392.908864  L 1138.843018 393.161793  L 1139.792636 392.695905  L 1140.267445 392.915353  L 1140.742255 393.006201  L 1141.217064 392.853474  L 1141.691873 392.843224  L 1142.166682 392.976076  L 1142.641492 393.241344  L 1143.116301 392.752847  L 1143.59111 393.030427  L 1144.065919 393.162602  L 1144.540729 393.051957  L 1145.015538 392.716484  L 1145.490347 392.65075  L 1145.965156 392.966179  L 1146.439966 393.061433  L 1146.914775 392.824877  L 1147.389584 393.342377  L 1148.339203 392.569836  L 1148.814012 392.39278  L 1149.288821 393.044799  L 1149.763631 393.083843  L 1150.713249 392.676199  L 1151.188058 393.030649  L 1151.662868 392.925008  L 1152.137677 393.219619  L 1152.612486 392.686592  L 1153.087295 392.55839  L 1153.562105 393.054834  L 1154.036914 393.277766  L 1154.511723 392.672809  L 1154.986532 393.262526  L 1155.461342 392.835472  L 1155.936151 393.01142  L 1156.41096 392.953157  L 1156.885769 392.609897  L 1157.360579 393.179751  L 1158.310197 393.283659  L 1159.259816 393.041038  L 1159.734625 393.010275  L 1160.209434 393.170591  L 1160.684243 392.813214  L 1161.633862 393.045678  L 1162.108671 392.859512  L 1162.58348 392.924658  L 1163.05829 392.727503  L 1163.533099 393.012597  L 1164.007908 393.114956  L 1164.482717 392.727769  L 1164.957527 393.20529  L 1165.907145 392.845057  L 1166.381954 392.910613  L 1166.856764 393.209654  L 1167.331573 393.108927  L 1167.806382 393.247495  L 1168.281191 392.98003  L 1168.756001 393.31549  L 1169.23081 393.071702  L 1169.705619 393.19077  L 1170.180428 393.182626  L 1170.655238 393.326267  L 1171.130047 393.107806  L 1171.604856 393.281678  L 1173.978903 393.128167  L 1174.453712 392.982252  L 1174.928521 392.979214  L 1175.40333 392.744358  L 1176.827758 392.696052  L 1177.302567 392.441752  L 1177.777377 392.598701  L 1178.252186 392.396129  L 1178.726995 393.170181  L 1180.151423 392.905285  L 1180.626232 392.996079  L 1181.575851 392.550378  L 1182.05066 393.03862  L 1182.525469 392.850516  L 1183.000278 392.794051  L 1183.475088 393.274193  L 1183.949897 392.983749  L 1184.424706 392.911386  L 1184.899515 392.648869  L 1185.374325 393.078143  L 1186.323943 392.800733  L 1186.798752 392.77673  L 1187.273562 392.91586  L 1187.748371 393.234515  L 1188.22318 392.994636  L 1188.697989 392.997517  L 1189.172799 393.251724  L 1189.647608 393.159523  L 1190.122417 392.862003  L 1190.597226 392.8279  L 1191.072036 392.965394  L 1191.546845 392.378623  L 1192.021654 393.028279  L 1192.496463 393.089164  L 1192.971273 392.626577  L 1192.971273 392.626577  "
           style="fill:none;stroke:#1f77b4;stroke-linecap:square;stroke-width:1.5;"
           id="path186" />
      </g>
      <g
         id="patch_3">
        <path
           d="M 172.44 409.4712  L 172.44 55.2096  "
           style="fill:none;stroke:#000000;stroke-linecap:square;stroke-linejoin:miter;stroke-width:0.8;"
           id="path189" />
      </g>
      <g
         id="patch_4">
        <path
           d="M 1241.568 409.4712  L 1241.568 55.2096  "
           style="fill:none;stroke:#000000;stroke-linecap:square;stroke-linejoin:miter;stroke-width:0.8;"
           id="path192" />
      </g>
      <g
         id="patch_5">
        <path
           d="M 172.44 409.4712  L 1241.568 409.4712  "
           style="fill:none;stroke:#000000;stroke-linecap:square;stroke-linejoin:miter;stroke-width:0.8;"
           id="path195" />
      </g>
      <g
         id="patch_6">
        <path
           d="M 172.44 55.2096  L 1241.568 55.2096  "
           style="fill:none;stroke:#000000;stroke-linecap:square;stroke-linejoin:miter;stroke-width:0.8;"
           id="path198" />
      </g>
    </g>
  </g>
  <defs
     id="defs206">
    <clipPath
       id="p6401f47144">
      <rect
         height="354.2616"
         width="1069.128"
         x="172.44"
         y="55.2096"
         id="rect203" />
    </clipPath>
  </defs>
  <text
     xml:space="preserve"
     style="font-style:normal;font-weight:normal;font-size:30px;line-height:1.25;font-family:sans-serif;letter-spacing:0px;word-spacing:0px;fill:#000000;fill-opacity:1;stroke:none;stroke-width:0.75;stroke-linecap:butt;stroke-linejoin:round"
     x="208.83896"
     y="353.50873"
     id="text3886"><tspan
       sodipodi:role="line"
       id="tspan3884"
       style="stroke-width:0.75;stroke-linecap:butt;stroke-linejoin:round"
       x="208.83896"
       y="353.50873">0Hz</tspan></text>
  <text
     xml:space="preserve"
     style="font-style:normal;font-weight:normal;font-size:30px;line-height:1.25;font-family:sans-serif;letter-spacing:0px;word-spacing:0px;fill:#000000;fill-opacity:1;stroke:none;stroke-width:0.75;stroke-linecap:butt;stroke-linejoin:round"
     x="1145.7035"
     y="364.8732"
     id="text3890"><tspan
       sodipodi:role="line"
       id="tspan3888"
       style="stroke-width:0.75;stroke-linecap:butt;stroke-linejoin:round"
       x="1145.7035"
       y="364.8732">-0Hz</tspan></text>
  <text
     xml:space="preserve"
     style="font-style:normal;font-weight:normal;font-size:30px;line-height:1.25;font-family:sans-serif;letter-spacing:0px;word-spacing:0px;fill:#000000;fill-opacity:1;stroke:none;stroke-width:0.75;stroke-linecap:butt;stroke-linejoin:round"
     x="-368.28671"
     y="655.53406"
     id="text3894"
     transform="rotate(-90)"><tspan
       sodipodi:role="line"
       id="tspan3892"
       style="stroke-width:0.75;stroke-linecap:butt;stroke-linejoin:round"
       x="-368.28671"
       y="655.53406">480kHz</tspan></text>
  <text
     xml:space="preserve"
     style="font-style:normal;font-weight:normal;font-size:30px;line-height:1.25;font-family:sans-serif;letter-spacing:0px;word-spacing:0px;fill:#000000;fill-opacity:1;stroke:none;stroke-width:0.75;stroke-linecap:butt;stroke-linejoin:round"
     x="-377.8974"
     y="727.84656"
     id="text3898"
     transform="rotate(-90)"><tspan
       sodipodi:role="line"
       id="tspan3896"
       style="stroke-width:0.75;stroke-linecap:butt;stroke-linejoin:round"
       x="-377.8974"
       y="727.84656">-480kHz</tspan></text>
  <text
     xml:space="preserve"
     style="font-style:normal;font-weight:normal;font-size:30px;line-height:1.25;font-family:sans-serif;letter-spacing:0px;word-spacing:0px;fill:#000000;fill-opacity:1;stroke:none;stroke-width:0.75;stroke-linecap:butt;stroke-linejoin:round"
     x="-353.68689"
     y="362.78275"
     id="text3894-3"
     transform="rotate(-90)"><tspan
       sodipodi:role="line"
       id="tspan3892-6"
       style="stroke-width:0.75;stroke-linecap:butt;stroke-linejoin:round"
       x="-353.68689"
       y="362.78275">130kHz</tspan></text>
</svg>
