<?xml version="1.0" encoding="utf-8" standalone="no"?>
<!DOCTYPE svg PUBLIC "-//W3C//DTD SVG 1.1//EN"
  "http://www.w3.org/Graphics/SVG/1.1/DTD/svg11.dtd">
<!-- Created with matplotlib (http://matplotlib.org/) -->
<svg height="460pt" version="1.1" viewBox="0 0 1379 460" width="1379pt" xmlns="http://www.w3.org/2000/svg" xmlns:xlink="http://www.w3.org/1999/xlink">
 <defs>
  <style type="text/css">
*{stroke-linecap:butt;stroke-linejoin:round;}
  </style>
 </defs>
 <g id="figure_1">
  <g id="patch_1">
   <path d="M 0 460.08 
L 1379.52 460.08 
L 1379.52 0 
L 0 0 
z
" style="fill:#ffffff;"/>
  </g>
  <g id="axes_1">
   <g id="patch_2">
    <path d="M 172.44 409.4712 
L 1241.568 409.4712 
L 1241.568 55.2096 
L 172.44 55.2096 
z
" style="fill:#ffffff;"/>
   </g>
   <g id="matplotlib.axis_1">
    <g id="xtick_1">
     <g id="line2d_1">
      <defs>
       <path d="M 0 0 
L 0 3.5 
" id="m8498f58983" style="stroke:#000000;stroke-width:0.8;"/>
      </defs>
      <g>
       <use style="stroke:#000000;stroke-width:0.8;" x="221.036727" xlink:href="#m8498f58983" y="409.4712"/>
      </g>
     </g>
     <g id="text_1">
      <!-- −10.0 -->
      <defs>
       <path d="M 10.59375 35.5 
L 73.1875 35.5 
L 73.1875 27.203125 
L 10.59375 27.203125 
z
" id="DejaVuSans-2212"/>
       <path d="M 12.40625 8.296875 
L 28.515625 8.296875 
L 28.515625 63.921875 
L 10.984375 60.40625 
L 10.984375 69.390625 
L 28.421875 72.90625 
L 38.28125 72.90625 
L 38.28125 8.296875 
L 54.390625 8.296875 
L 54.390625 0 
L 12.40625 0 
z
" id="DejaVuSans-31"/>
       <path d="M 31.78125 66.40625 
Q 24.171875 66.40625 20.328125 58.90625 
Q 16.5 51.421875 16.5 36.375 
Q 16.5 21.390625 20.328125 13.890625 
Q 24.171875 6.390625 31.78125 6.390625 
Q 39.453125 6.390625 43.28125 13.890625 
Q 47.125 21.390625 47.125 36.375 
Q 47.125 51.421875 43.28125 58.90625 
Q 39.453125 66.40625 31.78125 66.40625 
M 31.78125 74.21875 
Q 44.046875 74.21875 50.515625 64.515625 
Q 56.984375 54.828125 56.984375 36.375 
Q 56.984375 17.96875 50.515625 8.265625 
Q 44.046875 -1.421875 31.78125 -1.421875 
Q 19.53125 -1.421875 13.0625 8.265625 
Q 6.59375 17.96875 6.59375 36.375 
Q 6.59375 54.828125 13.0625 64.515625 
Q 19.53125 74.21875 31.78125 74.21875 
" id="DejaVuSans-30"/>
       <path d="M 10.6875 12.40625 
L 21 12.40625 
L 21 0 
L 10.6875 0 
z
" id="DejaVuSans-2e"/>
      </defs>
      <g transform="translate(205.714071 424.069637)scale(0.1 -0.1)">
       <use xlink:href="#DejaVuSans-2212"/>
       <use x="83.789062" xlink:href="#DejaVuSans-31"/>
       <use x="147.412109" xlink:href="#DejaVuSans-30"/>
       <use x="211.035156" xlink:href="#DejaVuSans-2e"/>
       <use x="242.822266" xlink:href="#DejaVuSans-30"/>
      </g>
     </g>
    </g>
    <g id="xtick_2">
     <g id="line2d_2">
      <g>
       <use style="stroke:#000000;stroke-width:0.8;" x="342.528545" xlink:href="#m8498f58983" y="409.4712"/>
      </g>
     </g>
     <g id="text_2">
      <!-- −7.5 -->
      <defs>
       <path d="M 8.203125 72.90625 
L 55.078125 72.90625 
L 55.078125 68.703125 
L 28.609375 0 
L 18.3125 0 
L 43.21875 64.59375 
L 8.203125 64.59375 
z
" id="DejaVuSans-37"/>
       <path d="M 10.796875 72.90625 
L 49.515625 72.90625 
L 49.515625 64.59375 
L 19.828125 64.59375 
L 19.828125 46.734375 
Q 21.96875 47.46875 24.109375 47.828125 
Q 26.265625 48.1875 28.421875 48.1875 
Q 40.625 48.1875 47.75 41.5 
Q 54.890625 34.8125 54.890625 23.390625 
Q 54.890625 11.625 47.5625 5.09375 
Q 40.234375 -1.421875 26.90625 -1.421875 
Q 22.3125 -1.421875 17.546875 -0.640625 
Q 12.796875 0.140625 7.71875 1.703125 
L 7.71875 11.625 
Q 12.109375 9.234375 16.796875 8.0625 
Q 21.484375 6.890625 26.703125 6.890625 
Q 35.15625 6.890625 40.078125 11.328125 
Q 45.015625 15.765625 45.015625 23.390625 
Q 45.015625 31 40.078125 35.4375 
Q 35.15625 39.890625 26.703125 39.890625 
Q 22.75 39.890625 18.8125 39.015625 
Q 14.890625 38.140625 10.796875 36.28125 
z
" id="DejaVuSans-35"/>
      </defs>
      <g transform="translate(330.387139 424.069637)scale(0.1 -0.1)">
       <use xlink:href="#DejaVuSans-2212"/>
       <use x="83.789062" xlink:href="#DejaVuSans-37"/>
       <use x="147.412109" xlink:href="#DejaVuSans-2e"/>
       <use x="179.199219" xlink:href="#DejaVuSans-35"/>
      </g>
     </g>
    </g>
    <g id="xtick_3">
     <g id="line2d_3">
      <g>
       <use style="stroke:#000000;stroke-width:0.8;" x="464.020364" xlink:href="#m8498f58983" y="409.4712"/>
      </g>
     </g>
     <g id="text_3">
      <!-- −5.0 -->
      <g transform="translate(451.878957 424.069637)scale(0.1 -0.1)">
       <use xlink:href="#DejaVuSans-2212"/>
       <use x="83.789062" xlink:href="#DejaVuSans-35"/>
       <use x="147.412109" xlink:href="#DejaVuSans-2e"/>
       <use x="179.199219" xlink:href="#DejaVuSans-30"/>
      </g>
     </g>
    </g>
    <g id="xtick_4">
     <g id="line2d_4">
      <g>
       <use style="stroke:#000000;stroke-width:0.8;" x="585.512182" xlink:href="#m8498f58983" y="409.4712"/>
      </g>
     </g>
     <g id="text_4">
      <!-- −2.5 -->
      <defs>
       <path d="M 19.1875 8.296875 
L 53.609375 8.296875 
L 53.609375 0 
L 7.328125 0 
L 7.328125 8.296875 
Q 12.9375 14.109375 22.625 23.890625 
Q 32.328125 33.6875 34.8125 36.53125 
Q 39.546875 41.84375 41.421875 45.53125 
Q 43.3125 49.21875 43.3125 52.78125 
Q 43.3125 58.59375 39.234375 62.25 
Q 35.15625 65.921875 28.609375 65.921875 
Q 23.96875 65.921875 18.8125 64.3125 
Q 13.671875 62.703125 7.8125 59.421875 
L 7.8125 69.390625 
Q 13.765625 71.78125 18.9375 73 
Q 24.125 74.21875 28.421875 74.21875 
Q 39.75 74.21875 46.484375 68.546875 
Q 53.21875 62.890625 53.21875 53.421875 
Q 53.21875 48.921875 51.53125 44.890625 
Q 49.859375 40.875 45.40625 35.40625 
Q 44.1875 33.984375 37.640625 27.21875 
Q 31.109375 20.453125 19.1875 8.296875 
" id="DejaVuSans-32"/>
      </defs>
      <g transform="translate(573.370776 424.069637)scale(0.1 -0.1)">
       <use xlink:href="#DejaVuSans-2212"/>
       <use x="83.789062" xlink:href="#DejaVuSans-32"/>
       <use x="147.412109" xlink:href="#DejaVuSans-2e"/>
       <use x="179.199219" xlink:href="#DejaVuSans-35"/>
      </g>
     </g>
    </g>
    <g id="xtick_5">
     <g id="line2d_5">
      <g>
       <use style="stroke:#000000;stroke-width:0.8;" x="707.004" xlink:href="#m8498f58983" y="409.4712"/>
      </g>
     </g>
     <g id="text_5">
      <!-- 0.0 -->
      <g transform="translate(699.052437 424.069637)scale(0.1 -0.1)">
       <use xlink:href="#DejaVuSans-30"/>
       <use x="63.623047" xlink:href="#DejaVuSans-2e"/>
       <use x="95.410156" xlink:href="#DejaVuSans-30"/>
      </g>
     </g>
    </g>
    <g id="xtick_6">
     <g id="line2d_6">
      <g>
       <use style="stroke:#000000;stroke-width:0.8;" x="828.495818" xlink:href="#m8498f58983" y="409.4712"/>
      </g>
     </g>
     <g id="text_6">
      <!-- 2.5 -->
      <g transform="translate(820.544256 424.069637)scale(0.1 -0.1)">
       <use xlink:href="#DejaVuSans-32"/>
       <use x="63.623047" xlink:href="#DejaVuSans-2e"/>
       <use x="95.410156" xlink:href="#DejaVuSans-35"/>
      </g>
     </g>
    </g>
    <g id="xtick_7">
     <g id="line2d_7">
      <g>
       <use style="stroke:#000000;stroke-width:0.8;" x="949.987636" xlink:href="#m8498f58983" y="409.4712"/>
      </g>
     </g>
     <g id="text_7">
      <!-- 5.0 -->
      <g transform="translate(942.036074 424.069637)scale(0.1 -0.1)">
       <use xlink:href="#DejaVuSans-35"/>
       <use x="63.623047" xlink:href="#DejaVuSans-2e"/>
       <use x="95.410156" xlink:href="#DejaVuSans-30"/>
      </g>
     </g>
    </g>
    <g id="xtick_8">
     <g id="line2d_8">
      <g>
       <use style="stroke:#000000;stroke-width:0.8;" x="1071.479455" xlink:href="#m8498f58983" y="409.4712"/>
      </g>
     </g>
     <g id="text_8">
      <!-- 7.5 -->
      <g transform="translate(1063.527892 424.069637)scale(0.1 -0.1)">
       <use xlink:href="#DejaVuSans-37"/>
       <use x="63.623047" xlink:href="#DejaVuSans-2e"/>
       <use x="95.410156" xlink:href="#DejaVuSans-35"/>
      </g>
     </g>
    </g>
    <g id="xtick_9">
     <g id="line2d_9">
      <g>
       <use style="stroke:#000000;stroke-width:0.8;" x="1192.971273" xlink:href="#m8498f58983" y="409.4712"/>
      </g>
     </g>
     <g id="text_9">
      <!-- 10.0 -->
      <g transform="translate(1181.83846 424.069637)scale(0.1 -0.1)">
       <use xlink:href="#DejaVuSans-31"/>
       <use x="63.623047" xlink:href="#DejaVuSans-30"/>
       <use x="127.246094" xlink:href="#DejaVuSans-2e"/>
       <use x="159.033203" xlink:href="#DejaVuSans-30"/>
      </g>
     </g>
    </g>
   </g>
   <g id="matplotlib.axis_2">
    <g id="ytick_1">
     <g id="line2d_10">
      <defs>
       <path d="M 0 0 
L -3.5 0 
" id="m6d6fa260aa" style="stroke:#000000;stroke-width:0.8;"/>
      </defs>
      <g>
       <use style="stroke:#000000;stroke-width:0.8;" x="172.44" xlink:href="#m6d6fa260aa" y="409.4712"/>
      </g>
     </g>
     <g id="text_10">
      <!-- −2.0 -->
      <g transform="translate(141.157187 413.270419)scale(0.1 -0.1)">
       <use xlink:href="#DejaVuSans-2212"/>
       <use x="83.789062" xlink:href="#DejaVuSans-32"/>
       <use x="147.412109" xlink:href="#DejaVuSans-2e"/>
       <use x="179.199219" xlink:href="#DejaVuSans-30"/>
      </g>
     </g>
    </g>
    <g id="ytick_2">
     <g id="line2d_11">
      <g>
       <use style="stroke:#000000;stroke-width:0.8;" x="172.44" xlink:href="#m6d6fa260aa" y="365.1885"/>
      </g>
     </g>
     <g id="text_11">
      <!-- −1.5 -->
      <g transform="translate(141.157187 368.987719)scale(0.1 -0.1)">
       <use xlink:href="#DejaVuSans-2212"/>
       <use x="83.789062" xlink:href="#DejaVuSans-31"/>
       <use x="147.412109" xlink:href="#DejaVuSans-2e"/>
       <use x="179.199219" xlink:href="#DejaVuSans-35"/>
      </g>
     </g>
    </g>
    <g id="ytick_3">
     <g id="line2d_12">
      <g>
       <use style="stroke:#000000;stroke-width:0.8;" x="172.44" xlink:href="#m6d6fa260aa" y="320.9058"/>
      </g>
     </g>
     <g id="text_12">
      <!-- −1.0 -->
      <g transform="translate(141.157187 324.705019)scale(0.1 -0.1)">
       <use xlink:href="#DejaVuSans-2212"/>
       <use x="83.789062" xlink:href="#DejaVuSans-31"/>
       <use x="147.412109" xlink:href="#DejaVuSans-2e"/>
       <use x="179.199219" xlink:href="#DejaVuSans-30"/>
      </g>
     </g>
    </g>
    <g id="ytick_4">
     <g id="line2d_13">
      <g>
       <use style="stroke:#000000;stroke-width:0.8;" x="172.44" xlink:href="#m6d6fa260aa" y="276.6231"/>
      </g>
     </g>
     <g id="text_13">
      <!-- −0.5 -->
      <g transform="translate(141.157187 280.422319)scale(0.1 -0.1)">
       <use xlink:href="#DejaVuSans-2212"/>
       <use x="83.789062" xlink:href="#DejaVuSans-30"/>
       <use x="147.412109" xlink:href="#DejaVuSans-2e"/>
       <use x="179.199219" xlink:href="#DejaVuSans-35"/>
      </g>
     </g>
    </g>
    <g id="ytick_5">
     <g id="line2d_14">
      <g>
       <use style="stroke:#000000;stroke-width:0.8;" x="172.44" xlink:href="#m6d6fa260aa" y="232.3404"/>
      </g>
     </g>
     <g id="text_14">
      <!-- 0.0 -->
      <g transform="translate(149.536875 236.139619)scale(0.1 -0.1)">
       <use xlink:href="#DejaVuSans-30"/>
       <use x="63.623047" xlink:href="#DejaVuSans-2e"/>
       <use x="95.410156" xlink:href="#DejaVuSans-30"/>
      </g>
     </g>
    </g>
    <g id="ytick_6">
     <g id="line2d_15">
      <g>
       <use style="stroke:#000000;stroke-width:0.8;" x="172.44" xlink:href="#m6d6fa260aa" y="188.0577"/>
      </g>
     </g>
     <g id="text_15">
      <!-- 0.5 -->
      <g transform="translate(149.536875 191.856919)scale(0.1 -0.1)">
       <use xlink:href="#DejaVuSans-30"/>
       <use x="63.623047" xlink:href="#DejaVuSans-2e"/>
       <use x="95.410156" xlink:href="#DejaVuSans-35"/>
      </g>
     </g>
    </g>
    <g id="ytick_7">
     <g id="line2d_16">
      <g>
       <use style="stroke:#000000;stroke-width:0.8;" x="172.44" xlink:href="#m6d6fa260aa" y="143.775"/>
      </g>
     </g>
     <g id="text_16">
      <!-- 1.0 -->
      <g transform="translate(149.536875 147.574219)scale(0.1 -0.1)">
       <use xlink:href="#DejaVuSans-31"/>
       <use x="63.623047" xlink:href="#DejaVuSans-2e"/>
       <use x="95.410156" xlink:href="#DejaVuSans-30"/>
      </g>
     </g>
    </g>
    <g id="ytick_8">
     <g id="line2d_17">
      <g>
       <use style="stroke:#000000;stroke-width:0.8;" x="172.44" xlink:href="#m6d6fa260aa" y="99.4923"/>
      </g>
     </g>
     <g id="text_17">
      <!-- 1.5 -->
      <g transform="translate(149.536875 103.291519)scale(0.1 -0.1)">
       <use xlink:href="#DejaVuSans-31"/>
       <use x="63.623047" xlink:href="#DejaVuSans-2e"/>
       <use x="95.410156" xlink:href="#DejaVuSans-35"/>
      </g>
     </g>
    </g>
    <g id="ytick_9">
     <g id="line2d_18">
      <g>
       <use style="stroke:#000000;stroke-width:0.8;" x="172.44" xlink:href="#m6d6fa260aa" y="55.2096"/>
      </g>
     </g>
     <g id="text_18">
      <!-- 2.0 -->
      <g transform="translate(149.536875 59.008819)scale(0.1 -0.1)">
       <use xlink:href="#DejaVuSans-32"/>
       <use x="63.623047" xlink:href="#DejaVuSans-2e"/>
       <use x="95.410156" xlink:href="#DejaVuSans-30"/>
      </g>
     </g>
    </g>
   </g>
   <g id="line2d_19">
    <path clip-path="url(#paab2a8830c)" d="M 221.036727 306.653106 
L 223.886975 309.349598 
L 226.737223 311.781259 
L 229.587471 313.939726 
L 232.437719 315.817577 
L 235.287967 317.408354 
L 238.138215 318.706585 
L 240.988463 319.707807 
L 243.838711 320.408576 
L 246.688959 320.806482 
L 249.539207 320.900157 
L 252.389455 320.68928 
L 255.239702 320.174574 
L 258.08995 319.35781 
L 260.940198 318.241797 
L 263.790446 316.830373 
L 266.640694 315.128391 
L 269.490942 313.141705 
L 272.34119 310.877147 
L 275.191438 308.342505 
L 278.041686 305.546494 
L 280.891934 302.498731 
L 284.692264 298.061668 
L 288.492595 293.222894 
L 292.292926 288.011985 
L 296.093256 282.460793 
L 300.843669 275.095152 
L 305.594083 267.321297 
L 311.294579 257.558569 
L 318.89524 244.026359 
L 340.74714 204.705693 
L 346.447636 195.047997 
L 351.19805 187.386011 
L 355.948463 180.153241 
L 359.748793 174.72262 
L 363.549124 169.644179 
L 367.349455 164.948958 
L 371.149785 160.665657 
L 374.000033 157.739352 
L 376.850281 155.069596 
L 379.700529 152.665572 
L 382.550777 150.535546 
L 385.401025 148.686843 
L 388.251273 147.125821 
L 391.101521 145.857849 
L 393.951769 144.887286 
L 396.802017 144.21747 
L 399.652264 143.850706 
L 402.502512 143.788254 
L 405.35276 144.030329 
L 408.203008 144.576098 
L 411.053256 145.423686 
L 413.903504 146.570175 
L 416.753752 148.011626 
L 419.604 149.743079 
L 422.454248 151.75858 
L 425.304496 154.051199 
L 428.154744 156.613052 
L 431.004992 159.435327 
L 433.85524 162.50832 
L 437.65557 166.977263 
L 441.455901 171.845728 
L 445.256231 177.083957 
L 449.056562 182.659932 
L 453.806975 190.052754 
L 458.557388 197.84933 
L 464.257884 207.633134 
L 471.858545 221.182487 
L 492.760364 258.83348 
L 498.46086 268.541902 
L 503.211273 276.257648 
L 507.961686 283.554081 
L 511.762017 289.042356 
L 515.562347 294.18405 
L 519.362678 298.947734 
L 523.163008 303.304292 
L 526.013256 306.288416 
L 528.863504 309.018236 
L 531.713752 311.484365 
L 534.564 313.678321 
L 537.414248 315.592559 
L 540.264496 317.220497 
L 543.114744 318.556535 
L 545.964992 319.59608 
L 548.81524 320.335557 
L 551.665488 320.772422 
L 554.515736 320.905173 
L 557.365983 320.733354 
L 560.216231 320.257555 
L 563.066479 319.479413 
L 565.916727 318.401603 
L 568.766975 317.027833 
L 571.617223 315.362826 
L 574.467471 313.412309 
L 577.317719 311.182989 
L 580.167967 308.682532 
L 583.018215 305.919539 
L 585.868463 302.90351 
L 589.668793 298.506574 
L 593.469124 293.705209 
L 597.269455 288.528762 
L 601.069785 283.008872 
L 605.820198 275.677627 
L 610.570612 267.932608 
L 616.271107 258.196757 
L 623.871769 244.686692 
L 646.673752 203.6959 
L 652.374248 194.084744 
L 657.124661 186.471689 
L 661.875074 179.296578 
L 665.675405 173.918003 
L 669.475736 168.896526 
L 673.276066 164.262839 
L 677.076397 160.045265 
L 679.926645 157.170767 
L 682.776893 154.554774 
L 685.62714 152.206283 
L 688.477388 150.133369 
L 691.327636 148.343161 
L 694.177884 146.841817 
L 697.028132 145.634498 
L 699.87838 144.725358 
L 702.728628 144.117521 
L 705.578876 143.81308 
L 708.429124 143.81308 
L 711.279372 144.117521 
L 714.12962 144.725358 
L 716.979868 145.634498 
L 719.830116 146.841817 
L 722.680364 148.343161 
L 725.530612 150.133369 
L 728.38086 152.206283 
L 731.231107 154.554774 
L 734.081355 157.170767 
L 736.931603 160.045265 
L 740.731934 164.262839 
L 744.532264 168.896526 
L 748.332595 173.918003 
L 752.132926 179.296578 
L 756.883339 186.471689 
L 761.633752 194.084744 
L 767.334248 203.6959 
L 773.984826 215.396903 
L 784.435736 234.337961 
L 794.886645 253.186991 
L 801.537223 264.73519 
L 807.237719 274.159411 
L 811.988132 281.579147 
L 816.738545 288.528762 
L 820.538876 293.705209 
L 824.339207 298.506574 
L 828.139537 302.90351 
L 830.989785 305.919539 
L 833.840033 308.682532 
L 836.690281 311.182989 
L 839.540529 313.412309 
L 842.390777 315.362826 
L 845.241025 317.027833 
L 848.091273 318.401603 
L 850.941521 319.479413 
L 853.791769 320.257555 
L 856.642017 320.733354 
L 859.492264 320.905173 
L 862.342512 320.772422 
L 865.19276 320.335557 
L 868.043008 319.59608 
L 870.893256 318.556535 
L 873.743504 317.220497 
L 876.593752 315.592559 
L 879.444 313.678321 
L 882.294248 311.484365 
L 885.144496 309.018236 
L 887.994744 306.288416 
L 890.844992 303.304292 
L 894.645322 298.947734 
L 898.445653 294.18405 
L 902.245983 289.042356 
L 906.046314 283.554081 
L 910.796727 276.257648 
L 915.54714 268.541902 
L 921.247636 258.83348 
L 927.898215 247.056443 
L 953.550446 201.06445 
L 959.250942 191.5821 
L 964.001355 184.102747 
L 968.751769 177.083957 
L 972.552099 171.845728 
L 976.35243 166.977263 
L 980.15276 162.50832 
L 983.953091 158.466214 
L 986.803339 155.729711 
L 989.653587 153.25667 
L 992.503835 151.055593 
L 995.354083 149.134052 
L 998.204331 147.498654 
L 1001.054579 146.155023 
L 1003.904826 145.10778 
L 1006.755074 144.360526 
L 1009.605322 143.915831 
L 1012.45557 143.775224 
L 1015.305818 143.939189 
L 1018.156066 144.407162 
L 1021.006314 145.177534 
L 1023.856562 146.247655 
L 1026.70681 147.613845 
L 1029.557058 149.271406 
L 1032.407306 151.214638 
L 1035.257554 153.436858 
L 1038.107802 155.930424 
L 1040.95805 158.68676 
L 1043.808298 161.696389 
L 1047.608628 166.085225 
L 1051.408959 170.879036 
L 1055.209289 176.04852 
L 1059.00962 181.562078 
L 1063.760033 188.886357 
L 1068.510446 196.625526 
L 1074.210942 206.355907 
L 1080.861521 218.149711 
L 1105.563669 262.491778 
L 1111.264165 272.030519 
L 1116.014579 279.568118 
L 1120.764992 286.654797 
L 1124.565322 291.953847 
L 1128.365653 296.88852 
L 1132.165983 301.428652 
L 1135.966314 305.546494 
L 1138.816562 308.342505 
L 1141.66681 310.877147 
L 1144.517058 313.141705 
L 1147.367306 315.128391 
L 1150.217554 316.830373 
L 1153.067802 318.241797 
L 1155.91805 319.35781 
L 1158.768298 320.174574 
L 1161.618545 320.68928 
L 1164.468793 320.900157 
L 1167.319041 320.806482 
L 1170.169289 320.408576 
L 1173.019537 319.707807 
L 1175.869785 318.706585 
L 1178.720033 317.408354 
L 1181.570281 315.817577 
L 1184.420529 313.939726 
L 1187.270777 311.781259 
L 1190.121025 309.349598 
L 1192.971273 306.653106 
L 1192.971273 306.653106 
" style="fill:none;stroke:#1f77b4;stroke-linecap:square;stroke-width:1.5;"/>
   </g>
   <g id="patch_3">
    <path d="M 172.44 409.4712 
L 172.44 55.2096 
" style="fill:none;stroke:#000000;stroke-linecap:square;stroke-linejoin:miter;stroke-width:0.8;"/>
   </g>
   <g id="patch_4">
    <path d="M 1241.568 409.4712 
L 1241.568 55.2096 
" style="fill:none;stroke:#000000;stroke-linecap:square;stroke-linejoin:miter;stroke-width:0.8;"/>
   </g>
   <g id="patch_5">
    <path d="M 172.44 409.4712 
L 1241.568 409.4712 
" style="fill:none;stroke:#000000;stroke-linecap:square;stroke-linejoin:miter;stroke-width:0.8;"/>
   </g>
   <g id="patch_6">
    <path d="M 172.44 55.2096 
L 1241.568 55.2096 
" style="fill:none;stroke:#000000;stroke-linecap:square;stroke-linejoin:miter;stroke-width:0.8;"/>
   </g>
  </g>
 </g>
 <defs>
  <clipPath id="paab2a8830c">
   <rect height="354.2616" width="1069.128" x="172.44" y="55.2096"/>
  </clipPath>
 </defs>
</svg>
