<?xml version="1.0" encoding="utf-8" standalone="no"?>
<!DOCTYPE svg PUBLIC "-//W3C//DTD SVG 1.1//EN"
  "http://www.w3.org/Graphics/SVG/1.1/DTD/svg11.dtd">
<!-- Created with matplotlib (http://matplotlib.org/) -->
<svg height="460pt" version="1.1" viewBox="0 0 1379 460" width="1379pt" xmlns="http://www.w3.org/2000/svg" xmlns:xlink="http://www.w3.org/1999/xlink">
 <defs>
  <style type="text/css">
*{stroke-linecap:butt;stroke-linejoin:round;}
  </style>
 </defs>
 <g id="figure_1">
  <g id="patch_1">
   <path d="M 0 460.08 
L 1379.52 460.08 
L 1379.52 0 
L 0 0 
z
" style="fill:#ffffff;"/>
  </g>
  <g id="axes_1">
   <g id="patch_2">
    <path d="M 172.44 409.4712 
L 1241.568 409.4712 
L 1241.568 55.2096 
L 172.44 55.2096 
z
" style="fill:#ffffff;"/>
   </g>
   <g id="matplotlib.axis_1">
    <g id="xtick_1">
     <g id="line2d_1">
      <defs>
       <path d="M 0 0 
L 0 3.5 
" id="maf13369ec0" style="stroke:#000000;stroke-width:0.8;"/>
      </defs>
      <g>
       <use style="stroke:#000000;stroke-width:0.8;" x="221.036727" xlink:href="#maf13369ec0" y="409.4712"/>
      </g>
     </g>
     <g id="text_1">
      <!-- −10.0 -->
      <defs>
       <path d="M 10.59375 35.5 
L 73.1875 35.5 
L 73.1875 27.203125 
L 10.59375 27.203125 
z
" id="DejaVuSans-2212"/>
       <path d="M 12.40625 8.296875 
L 28.515625 8.296875 
L 28.515625 63.921875 
L 10.984375 60.40625 
L 10.984375 69.390625 
L 28.421875 72.90625 
L 38.28125 72.90625 
L 38.28125 8.296875 
L 54.390625 8.296875 
L 54.390625 0 
L 12.40625 0 
z
" id="DejaVuSans-31"/>
       <path d="M 31.78125 66.40625 
Q 24.171875 66.40625 20.328125 58.90625 
Q 16.5 51.421875 16.5 36.375 
Q 16.5 21.390625 20.328125 13.890625 
Q 24.171875 6.390625 31.78125 6.390625 
Q 39.453125 6.390625 43.28125 13.890625 
Q 47.125 21.390625 47.125 36.375 
Q 47.125 51.421875 43.28125 58.90625 
Q 39.453125 66.40625 31.78125 66.40625 
M 31.78125 74.21875 
Q 44.046875 74.21875 50.515625 64.515625 
Q 56.984375 54.828125 56.984375 36.375 
Q 56.984375 17.96875 50.515625 8.265625 
Q 44.046875 -1.421875 31.78125 -1.421875 
Q 19.53125 -1.421875 13.0625 8.265625 
Q 6.59375 17.96875 6.59375 36.375 
Q 6.59375 54.828125 13.0625 64.515625 
Q 19.53125 74.21875 31.78125 74.21875 
" id="DejaVuSans-30"/>
       <path d="M 10.6875 12.40625 
L 21 12.40625 
L 21 0 
L 10.6875 0 
z
" id="DejaVuSans-2e"/>
      </defs>
      <g transform="translate(205.714071 424.069637)scale(0.1 -0.1)">
       <use xlink:href="#DejaVuSans-2212"/>
       <use x="83.789062" xlink:href="#DejaVuSans-31"/>
       <use x="147.412109" xlink:href="#DejaVuSans-30"/>
       <use x="211.035156" xlink:href="#DejaVuSans-2e"/>
       <use x="242.822266" xlink:href="#DejaVuSans-30"/>
      </g>
     </g>
    </g>
    <g id="xtick_2">
     <g id="line2d_2">
      <g>
       <use style="stroke:#000000;stroke-width:0.8;" x="342.528545" xlink:href="#maf13369ec0" y="409.4712"/>
      </g>
     </g>
     <g id="text_2">
      <!-- −7.5 -->
      <defs>
       <path d="M 8.203125 72.90625 
L 55.078125 72.90625 
L 55.078125 68.703125 
L 28.609375 0 
L 18.3125 0 
L 43.21875 64.59375 
L 8.203125 64.59375 
z
" id="DejaVuSans-37"/>
       <path d="M 10.796875 72.90625 
L 49.515625 72.90625 
L 49.515625 64.59375 
L 19.828125 64.59375 
L 19.828125 46.734375 
Q 21.96875 47.46875 24.109375 47.828125 
Q 26.265625 48.1875 28.421875 48.1875 
Q 40.625 48.1875 47.75 41.5 
Q 54.890625 34.8125 54.890625 23.390625 
Q 54.890625 11.625 47.5625 5.09375 
Q 40.234375 -1.421875 26.90625 -1.421875 
Q 22.3125 -1.421875 17.546875 -0.640625 
Q 12.796875 0.140625 7.71875 1.703125 
L 7.71875 11.625 
Q 12.109375 9.234375 16.796875 8.0625 
Q 21.484375 6.890625 26.703125 6.890625 
Q 35.15625 6.890625 40.078125 11.328125 
Q 45.015625 15.765625 45.015625 23.390625 
Q 45.015625 31 40.078125 35.4375 
Q 35.15625 39.890625 26.703125 39.890625 
Q 22.75 39.890625 18.8125 39.015625 
Q 14.890625 38.140625 10.796875 36.28125 
z
" id="DejaVuSans-35"/>
      </defs>
      <g transform="translate(330.387139 424.069637)scale(0.1 -0.1)">
       <use xlink:href="#DejaVuSans-2212"/>
       <use x="83.789062" xlink:href="#DejaVuSans-37"/>
       <use x="147.412109" xlink:href="#DejaVuSans-2e"/>
       <use x="179.199219" xlink:href="#DejaVuSans-35"/>
      </g>
     </g>
    </g>
    <g id="xtick_3">
     <g id="line2d_3">
      <g>
       <use style="stroke:#000000;stroke-width:0.8;" x="464.020364" xlink:href="#maf13369ec0" y="409.4712"/>
      </g>
     </g>
     <g id="text_3">
      <!-- −5.0 -->
      <g transform="translate(451.878957 424.069637)scale(0.1 -0.1)">
       <use xlink:href="#DejaVuSans-2212"/>
       <use x="83.789062" xlink:href="#DejaVuSans-35"/>
       <use x="147.412109" xlink:href="#DejaVuSans-2e"/>
       <use x="179.199219" xlink:href="#DejaVuSans-30"/>
      </g>
     </g>
    </g>
    <g id="xtick_4">
     <g id="line2d_4">
      <g>
       <use style="stroke:#000000;stroke-width:0.8;" x="585.512182" xlink:href="#maf13369ec0" y="409.4712"/>
      </g>
     </g>
     <g id="text_4">
      <!-- −2.5 -->
      <defs>
       <path d="M 19.1875 8.296875 
L 53.609375 8.296875 
L 53.609375 0 
L 7.328125 0 
L 7.328125 8.296875 
Q 12.9375 14.109375 22.625 23.890625 
Q 32.328125 33.6875 34.8125 36.53125 
Q 39.546875 41.84375 41.421875 45.53125 
Q 43.3125 49.21875 43.3125 52.78125 
Q 43.3125 58.59375 39.234375 62.25 
Q 35.15625 65.921875 28.609375 65.921875 
Q 23.96875 65.921875 18.8125 64.3125 
Q 13.671875 62.703125 7.8125 59.421875 
L 7.8125 69.390625 
Q 13.765625 71.78125 18.9375 73 
Q 24.125 74.21875 28.421875 74.21875 
Q 39.75 74.21875 46.484375 68.546875 
Q 53.21875 62.890625 53.21875 53.421875 
Q 53.21875 48.921875 51.53125 44.890625 
Q 49.859375 40.875 45.40625 35.40625 
Q 44.1875 33.984375 37.640625 27.21875 
Q 31.109375 20.453125 19.1875 8.296875 
" id="DejaVuSans-32"/>
      </defs>
      <g transform="translate(573.370776 424.069637)scale(0.1 -0.1)">
       <use xlink:href="#DejaVuSans-2212"/>
       <use x="83.789062" xlink:href="#DejaVuSans-32"/>
       <use x="147.412109" xlink:href="#DejaVuSans-2e"/>
       <use x="179.199219" xlink:href="#DejaVuSans-35"/>
      </g>
     </g>
    </g>
    <g id="xtick_5">
     <g id="line2d_5">
      <g>
       <use style="stroke:#000000;stroke-width:0.8;" x="707.004" xlink:href="#maf13369ec0" y="409.4712"/>
      </g>
     </g>
     <g id="text_5">
      <!-- 0.0 -->
      <g transform="translate(699.052437 424.069637)scale(0.1 -0.1)">
       <use xlink:href="#DejaVuSans-30"/>
       <use x="63.623047" xlink:href="#DejaVuSans-2e"/>
       <use x="95.410156" xlink:href="#DejaVuSans-30"/>
      </g>
     </g>
    </g>
    <g id="xtick_6">
     <g id="line2d_6">
      <g>
       <use style="stroke:#000000;stroke-width:0.8;" x="828.495818" xlink:href="#maf13369ec0" y="409.4712"/>
      </g>
     </g>
     <g id="text_6">
      <!-- 2.5 -->
      <g transform="translate(820.544256 424.069637)scale(0.1 -0.1)">
       <use xlink:href="#DejaVuSans-32"/>
       <use x="63.623047" xlink:href="#DejaVuSans-2e"/>
       <use x="95.410156" xlink:href="#DejaVuSans-35"/>
      </g>
     </g>
    </g>
    <g id="xtick_7">
     <g id="line2d_7">
      <g>
       <use style="stroke:#000000;stroke-width:0.8;" x="949.987636" xlink:href="#maf13369ec0" y="409.4712"/>
      </g>
     </g>
     <g id="text_7">
      <!-- 5.0 -->
      <g transform="translate(942.036074 424.069637)scale(0.1 -0.1)">
       <use xlink:href="#DejaVuSans-35"/>
       <use x="63.623047" xlink:href="#DejaVuSans-2e"/>
       <use x="95.410156" xlink:href="#DejaVuSans-30"/>
      </g>
     </g>
    </g>
    <g id="xtick_8">
     <g id="line2d_8">
      <g>
       <use style="stroke:#000000;stroke-width:0.8;" x="1071.479455" xlink:href="#maf13369ec0" y="409.4712"/>
      </g>
     </g>
     <g id="text_8">
      <!-- 7.5 -->
      <g transform="translate(1063.527892 424.069637)scale(0.1 -0.1)">
       <use xlink:href="#DejaVuSans-37"/>
       <use x="63.623047" xlink:href="#DejaVuSans-2e"/>
       <use x="95.410156" xlink:href="#DejaVuSans-35"/>
      </g>
     </g>
    </g>
    <g id="xtick_9">
     <g id="line2d_9">
      <g>
       <use style="stroke:#000000;stroke-width:0.8;" x="1192.971273" xlink:href="#maf13369ec0" y="409.4712"/>
      </g>
     </g>
     <g id="text_9">
      <!-- 10.0 -->
      <g transform="translate(1181.83846 424.069637)scale(0.1 -0.1)">
       <use xlink:href="#DejaVuSans-31"/>
       <use x="63.623047" xlink:href="#DejaVuSans-30"/>
       <use x="127.246094" xlink:href="#DejaVuSans-2e"/>
       <use x="159.033203" xlink:href="#DejaVuSans-30"/>
      </g>
     </g>
    </g>
   </g>
   <g id="matplotlib.axis_2">
    <g id="ytick_1">
     <g id="line2d_10">
      <defs>
       <path d="M 0 0 
L -3.5 0 
" id="m1b68e7377c" style="stroke:#000000;stroke-width:0.8;"/>
      </defs>
      <g>
       <use style="stroke:#000000;stroke-width:0.8;" x="172.44" xlink:href="#m1b68e7377c" y="409.4712"/>
      </g>
     </g>
     <g id="text_10">
      <!-- −2.0 -->
      <g transform="translate(141.157187 413.270419)scale(0.1 -0.1)">
       <use xlink:href="#DejaVuSans-2212"/>
       <use x="83.789062" xlink:href="#DejaVuSans-32"/>
       <use x="147.412109" xlink:href="#DejaVuSans-2e"/>
       <use x="179.199219" xlink:href="#DejaVuSans-30"/>
      </g>
     </g>
    </g>
    <g id="ytick_2">
     <g id="line2d_11">
      <g>
       <use style="stroke:#000000;stroke-width:0.8;" x="172.44" xlink:href="#m1b68e7377c" y="365.1885"/>
      </g>
     </g>
     <g id="text_11">
      <!-- −1.5 -->
      <g transform="translate(141.157187 368.987719)scale(0.1 -0.1)">
       <use xlink:href="#DejaVuSans-2212"/>
       <use x="83.789062" xlink:href="#DejaVuSans-31"/>
       <use x="147.412109" xlink:href="#DejaVuSans-2e"/>
       <use x="179.199219" xlink:href="#DejaVuSans-35"/>
      </g>
     </g>
    </g>
    <g id="ytick_3">
     <g id="line2d_12">
      <g>
       <use style="stroke:#000000;stroke-width:0.8;" x="172.44" xlink:href="#m1b68e7377c" y="320.9058"/>
      </g>
     </g>
     <g id="text_12">
      <!-- −1.0 -->
      <g transform="translate(141.157187 324.705019)scale(0.1 -0.1)">
       <use xlink:href="#DejaVuSans-2212"/>
       <use x="83.789062" xlink:href="#DejaVuSans-31"/>
       <use x="147.412109" xlink:href="#DejaVuSans-2e"/>
       <use x="179.199219" xlink:href="#DejaVuSans-30"/>
      </g>
     </g>
    </g>
    <g id="ytick_4">
     <g id="line2d_13">
      <g>
       <use style="stroke:#000000;stroke-width:0.8;" x="172.44" xlink:href="#m1b68e7377c" y="276.6231"/>
      </g>
     </g>
     <g id="text_13">
      <!-- −0.5 -->
      <g transform="translate(141.157187 280.422319)scale(0.1 -0.1)">
       <use xlink:href="#DejaVuSans-2212"/>
       <use x="83.789062" xlink:href="#DejaVuSans-30"/>
       <use x="147.412109" xlink:href="#DejaVuSans-2e"/>
       <use x="179.199219" xlink:href="#DejaVuSans-35"/>
      </g>
     </g>
    </g>
    <g id="ytick_5">
     <g id="line2d_14">
      <g>
       <use style="stroke:#000000;stroke-width:0.8;" x="172.44" xlink:href="#m1b68e7377c" y="232.3404"/>
      </g>
     </g>
     <g id="text_14">
      <!-- 0.0 -->
      <g transform="translate(149.536875 236.139619)scale(0.1 -0.1)">
       <use xlink:href="#DejaVuSans-30"/>
       <use x="63.623047" xlink:href="#DejaVuSans-2e"/>
       <use x="95.410156" xlink:href="#DejaVuSans-30"/>
      </g>
     </g>
    </g>
    <g id="ytick_6">
     <g id="line2d_15">
      <g>
       <use style="stroke:#000000;stroke-width:0.8;" x="172.44" xlink:href="#m1b68e7377c" y="188.0577"/>
      </g>
     </g>
     <g id="text_15">
      <!-- 0.5 -->
      <g transform="translate(149.536875 191.856919)scale(0.1 -0.1)">
       <use xlink:href="#DejaVuSans-30"/>
       <use x="63.623047" xlink:href="#DejaVuSans-2e"/>
       <use x="95.410156" xlink:href="#DejaVuSans-35"/>
      </g>
     </g>
    </g>
    <g id="ytick_7">
     <g id="line2d_16">
      <g>
       <use style="stroke:#000000;stroke-width:0.8;" x="172.44" xlink:href="#m1b68e7377c" y="143.775"/>
      </g>
     </g>
     <g id="text_16">
      <!-- 1.0 -->
      <g transform="translate(149.536875 147.574219)scale(0.1 -0.1)">
       <use xlink:href="#DejaVuSans-31"/>
       <use x="63.623047" xlink:href="#DejaVuSans-2e"/>
       <use x="95.410156" xlink:href="#DejaVuSans-30"/>
      </g>
     </g>
    </g>
    <g id="ytick_8">
     <g id="line2d_17">
      <g>
       <use style="stroke:#000000;stroke-width:0.8;" x="172.44" xlink:href="#m1b68e7377c" y="99.4923"/>
      </g>
     </g>
     <g id="text_17">
      <!-- 1.5 -->
      <g transform="translate(149.536875 103.291519)scale(0.1 -0.1)">
       <use xlink:href="#DejaVuSans-31"/>
       <use x="63.623047" xlink:href="#DejaVuSans-2e"/>
       <use x="95.410156" xlink:href="#DejaVuSans-35"/>
      </g>
     </g>
    </g>
    <g id="ytick_9">
     <g id="line2d_18">
      <g>
       <use style="stroke:#000000;stroke-width:0.8;" x="172.44" xlink:href="#m1b68e7377c" y="55.2096"/>
      </g>
     </g>
     <g id="text_18">
      <!-- 2.0 -->
      <g transform="translate(149.536875 59.008819)scale(0.1 -0.1)">
       <use xlink:href="#DejaVuSans-32"/>
       <use x="63.623047" xlink:href="#DejaVuSans-2e"/>
       <use x="95.410156" xlink:href="#DejaVuSans-30"/>
      </g>
     </g>
    </g>
   </g>
   <g id="line2d_19">
    <path clip-path="url(#p98cc41a851)" d="M 221.036727 306.653106 
L 224.848235 310.19972 
L 228.659743 313.26763 
L 232.471251 315.837973 
L 236.282759 317.894945 
L 240.094267 319.4259 
L 243.905775 320.421425 
L 247.717283 320.875399 
L 251.528791 320.78503 
L 255.340299 320.150875 
L 259.151807 318.976833 
L 262.963316 317.270121 
L 266.774824 315.041234 
L 270.586332 312.303875 
L 274.39784 309.074874 
L 278.209348 305.374085 
L 282.020856 301.22426 
L 285.832364 296.650915 
L 289.643872 291.682168 
L 293.45538 286.348568 
L 297.266888 280.682909 
L 301.078396 274.720024 
L 304.889904 268.496575 
L 312.51292 255.422407 
L 320.135936 241.781449 
L 335.381968 214.144698 
L 343.004984 200.827539 
L 346.816492 194.439352 
L 350.628 188.284194 
L 354.439508 182.399907 
L 358.251016 176.822671 
L 362.062524 171.586776 
L 365.874032 166.724415 
L 369.68554 162.265482 
L 373.497048 158.237392 
L 377.308556 154.664912 
L 381.120064 151.570006 
L 384.931572 148.971704 
L 388.74308 146.885979 
L 392.554588 145.325656 
L 396.366096 144.300328 
L 400.177604 143.816299 
L 403.989112 143.876546 
L 407.80062 144.480697 
L 411.612128 145.625039 
L 415.423636 147.302534 
L 419.235144 149.502871 
L 423.046652 152.21252 
L 426.85816 155.414821 
L 430.669668 159.090086 
L 434.481176 163.215718 
L 438.292684 167.766351 
L 442.104193 172.714006 
L 445.915701 178.028264 
L 449.727209 183.676451 
L 453.538717 189.62384 
L 457.350225 195.833864 
L 464.973241 208.887713 
L 472.596257 222.517455 
L 487.842289 250.159953 
L 495.465305 263.493933 
L 499.276813 269.893873 
L 503.088321 276.062923 
L 506.899829 281.963152 
L 510.711337 287.558283 
L 514.522845 292.813918 
L 518.334353 297.697741 
L 522.145861 302.179726 
L 525.957369 306.232316 
L 529.768877 309.830594 
L 533.580385 312.952437 
L 537.391893 315.578651 
L 541.203401 317.693089 
L 545.014909 319.282751 
L 548.826417 320.337862 
L 552.637925 320.851937 
L 556.449433 320.821813 
L 560.260941 320.247677 
L 564.072449 319.133058 
L 567.883957 317.484809 
L 571.695465 315.313065 
L 575.506973 312.631178 
L 579.318481 309.455636 
L 583.129989 305.805965 
L 586.941497 301.704603 
L 590.753005 297.176768 
L 594.564513 292.250298 
L 598.376021 286.955481 
L 602.187529 281.324874 
L 605.999037 275.393093 
L 609.810545 269.196611 
L 617.433561 256.163326 
L 625.056578 242.545056 
L 644.114118 208.147684 
L 651.737134 195.135208 
L 655.548642 188.952384 
L 659.36015 183.036324 
L 663.171658 177.423401 
L 666.983166 172.148126 
L 670.794674 167.242933 
L 674.606182 162.73798 
L 678.41769 158.660966 
L 682.229198 155.036957 
L 686.040706 151.888236 
L 689.852214 149.23416 
L 693.663722 147.091049 
L 697.47523 145.472078 
L 701.286738 144.387203 
L 705.098246 143.843092 
L 708.909754 143.843092 
L 712.721262 144.387203 
L 716.53277 145.472078 
L 720.344278 147.091049 
L 724.155786 149.23416 
L 727.967294 151.888236 
L 731.778802 155.036957 
L 735.59031 158.660966 
L 739.401818 162.73798 
L 743.213326 167.242933 
L 747.024834 172.148126 
L 750.836342 177.423401 
L 754.64785 183.036324 
L 758.459358 188.952384 
L 762.270866 195.135208 
L 769.893882 208.147684 
L 777.516898 221.754225 
L 796.574439 256.163326 
L 804.197455 269.196611 
L 808.008963 275.393093 
L 811.820471 281.324874 
L 815.631979 286.955481 
L 819.443487 292.250298 
L 823.254995 297.176768 
L 827.066503 301.704603 
L 830.878011 305.805965 
L 834.689519 309.455636 
L 838.501027 312.631178 
L 842.312535 315.313065 
L 846.124043 317.484809 
L 849.935551 319.133058 
L 853.747059 320.247677 
L 857.558567 320.821813 
L 861.370075 320.851937 
L 865.181583 320.337862 
L 868.993091 319.282751 
L 872.804599 317.693089 
L 876.616107 315.578651 
L 880.427615 312.952437 
L 884.239123 309.830594 
L 888.050631 306.232316 
L 891.862139 302.179726 
L 895.673647 297.697741 
L 899.485155 292.813918 
L 903.296663 287.558283 
L 907.108171 281.963152 
L 910.919679 276.062923 
L 914.731187 269.893873 
L 922.354203 256.902451 
L 929.977219 243.307894 
L 949.034759 208.887713 
L 956.657775 195.833864 
L 960.469283 189.62384 
L 964.280791 183.676451 
L 968.092299 178.028264 
L 971.903807 172.714006 
L 975.715316 167.766351 
L 979.526824 163.215718 
L 983.338332 159.090086 
L 987.14984 155.414821 
L 990.961348 152.21252 
L 994.772856 149.502871 
L 998.584364 147.302534 
L 1002.395872 145.625039 
L 1006.20738 144.480697 
L 1010.018888 143.876546 
L 1013.830396 143.816299 
L 1017.641904 144.300328 
L 1021.453412 145.325656 
L 1025.26492 146.885979 
L 1029.076428 148.971704 
L 1032.887936 151.570006 
L 1036.699444 154.664912 
L 1040.510952 158.237392 
L 1044.32246 162.265482 
L 1048.133968 166.724415 
L 1051.945476 171.586776 
L 1055.756984 176.822671 
L 1059.568492 182.399907 
L 1063.38 188.284194 
L 1067.191508 194.439352 
L 1074.814524 207.409476 
L 1082.43754 220.991792 
L 1101.49508 255.422407 
L 1109.118096 268.496575 
L 1112.929604 274.720024 
L 1116.741112 280.682909 
L 1120.55262 286.348568 
L 1124.364128 291.682168 
L 1128.175636 296.650915 
L 1131.987144 301.22426 
L 1135.798652 305.374085 
L 1139.61016 309.074874 
L 1143.421668 312.303875 
L 1147.233176 315.041234 
L 1151.044684 317.270121 
L 1154.856193 318.976833 
L 1158.667701 320.150875 
L 1162.479209 320.78503 
L 1166.290717 320.875399 
L 1170.102225 320.421425 
L 1173.913733 319.4259 
L 1177.725241 317.894945 
L 1181.536749 315.837973 
L 1185.348257 313.26763 
L 1189.159765 310.19972 
L 1192.971273 306.653106 
L 1192.971273 306.653106 
" style="fill:none;stroke:#1f77b4;stroke-linecap:square;stroke-width:1.5;"/>
   </g>
   <g id="line2d_20">
    <path clip-path="url(#p98cc41a851)" d="M 287.38263 461.08 
L 289.643872 440.774059 
L 293.45538 410.771694 
L 297.266888 384.340724 
L 301.078396 360.927119 
L 304.889904 340.06307 
L 308.701412 321.355323 
L 312.51292 304.474957 
L 316.324428 289.148446 
L 320.135936 275.149843 
L 323.947444 262.293952 
L 327.758952 250.43037 
L 331.57046 239.438287 
L 335.381968 229.221952 
L 339.193476 219.706729 
L 343.004984 210.835652 
L 346.816492 202.56644 
L 350.628 194.868894 
L 354.439508 187.722636 
L 358.251016 181.115153 
L 362.062524 175.040089 
L 365.874032 169.495778 
L 369.68554 164.483971 
L 373.497048 160.008736 
L 377.308556 156.075515 
L 381.120064 152.690311 
L 384.931572 149.859002 
L 388.74308 147.586752 
L 392.554588 145.877517 
L 396.366096 144.733635 
L 400.177604 144.155491 
L 403.989112 144.14124 
L 407.80062 144.686598 
L 411.612128 145.784683 
L 415.423636 147.4259 
L 419.235144 149.597874 
L 423.046652 152.285424 
L 426.85816 155.470564 
L 430.669668 159.132548 
L 434.481176 163.24794 
L 438.292684 167.790707 
L 442.104193 172.732342 
L 445.915701 178.04201 
L 449.727209 183.686712 
L 453.538717 189.631466 
L 457.350225 195.839506 
L 464.973241 208.890757 
L 472.596257 222.519065 
L 487.842289 250.160375 
L 495.465305 263.494142 
L 499.276813 269.894019 
L 503.088321 276.063023 
L 506.899829 281.96322 
L 510.711337 287.55833 
L 514.522845 292.81395 
L 518.334353 297.697762 
L 522.145861 302.17974 
L 525.957369 306.232325 
L 529.768877 309.8306 
L 533.580385 312.952441 
L 537.391893 315.578654 
L 541.203401 317.693091 
L 545.014909 319.282752 
L 548.826417 320.337863 
L 552.637925 320.851937 
L 556.449433 320.821814 
L 560.260941 320.247677 
L 564.072449 319.133058 
L 567.883957 317.48481 
L 571.695465 315.313065 
L 575.506973 312.631178 
L 579.318481 309.455636 
L 583.129989 305.805965 
L 586.941497 301.704603 
L 590.753005 297.176768 
L 594.564513 292.250298 
L 598.376021 286.955481 
L 602.187529 281.324874 
L 605.999037 275.393093 
L 609.810545 269.196611 
L 617.433561 256.163326 
L 625.056578 242.545056 
L 644.114118 208.147684 
L 651.737134 195.135208 
L 655.548642 188.952384 
L 659.36015 183.036324 
L 663.171658 177.423401 
L 666.983166 172.148126 
L 670.794674 167.242933 
L 674.606182 162.73798 
L 678.41769 158.660966 
L 682.229198 155.036957 
L 686.040706 151.888236 
L 689.852214 149.23416 
L 693.663722 147.091049 
L 697.47523 145.472078 
L 701.286738 144.387203 
L 705.098246 143.843092 
L 708.909754 143.843092 
L 712.721262 144.387203 
L 716.53277 145.472078 
L 720.344278 147.091049 
L 724.155786 149.23416 
L 727.967294 151.888236 
L 731.778802 155.036957 
L 735.59031 158.660966 
L 739.401818 162.73798 
L 743.213326 167.242933 
L 747.024834 172.148126 
L 750.836342 177.423401 
L 754.64785 183.036324 
L 758.459358 188.952384 
L 762.270866 195.135208 
L 769.893882 208.147684 
L 777.516898 221.754225 
L 796.574439 256.163326 
L 804.197455 269.196611 
L 808.008963 275.393093 
L 811.820471 281.324874 
L 815.631979 286.955481 
L 819.443487 292.250298 
L 823.254995 297.176768 
L 827.066503 301.704603 
L 830.878011 305.805965 
L 834.689519 309.455636 
L 838.501027 312.631178 
L 842.312535 315.313065 
L 846.124043 317.48481 
L 849.935551 319.133058 
L 853.747059 320.247677 
L 857.558567 320.821814 
L 861.370075 320.851937 
L 865.181583 320.337863 
L 868.993091 319.282752 
L 872.804599 317.693091 
L 876.616107 315.578654 
L 880.427615 312.952441 
L 884.239123 309.8306 
L 888.050631 306.232325 
L 891.862139 302.17974 
L 895.673647 297.697762 
L 899.485155 292.81395 
L 903.296663 287.55833 
L 907.108171 281.96322 
L 910.919679 276.063023 
L 914.731187 269.894019 
L 922.354203 256.902748 
L 929.977219 243.308489 
L 949.034759 208.890757 
L 956.657775 195.839506 
L 960.469283 189.631466 
L 964.280791 183.686712 
L 968.092299 178.04201 
L 971.903807 172.732342 
L 975.715316 167.790707 
L 979.526824 163.24794 
L 983.338332 159.132548 
L 987.14984 155.470564 
L 990.961348 152.285424 
L 994.772856 149.597874 
L 998.584364 147.4259 
L 1002.395872 145.784683 
L 1006.20738 144.686598 
L 1010.018888 144.14124 
L 1013.830396 144.155491 
L 1017.641904 144.733635 
L 1021.453412 145.877517 
L 1025.26492 147.586752 
L 1029.076428 149.859002 
L 1032.887936 152.690311 
L 1036.699444 156.075515 
L 1040.510952 160.008736 
L 1044.32246 164.483971 
L 1048.133968 169.495778 
L 1051.945476 175.040089 
L 1055.756984 181.115153 
L 1059.568492 187.722636 
L 1063.38 194.868894 
L 1067.191508 202.56644 
L 1071.003016 210.835652 
L 1074.814524 219.706729 
L 1078.626032 229.221952 
L 1082.43754 239.438287 
L 1086.249048 250.43037 
L 1090.060556 262.293952 
L 1093.872064 275.149843 
L 1097.683572 289.148446 
L 1101.49508 304.474957 
L 1105.306588 321.355323 
L 1109.118096 340.06307 
L 1112.929604 360.927119 
L 1116.741112 384.340724 
L 1120.55262 410.771694 
L 1124.364128 440.774059 
L 1126.62537 461.08 
L 1126.62537 461.08 
" style="fill:none;stroke:#ff7f0e;stroke-linecap:square;stroke-width:1.5;"/>
   </g>
   <g id="patch_3">
    <path d="M 172.44 409.4712 
L 172.44 55.2096 
" style="fill:none;stroke:#000000;stroke-linecap:square;stroke-linejoin:miter;stroke-width:0.8;"/>
   </g>
   <g id="patch_4">
    <path d="M 1241.568 409.4712 
L 1241.568 55.2096 
" style="fill:none;stroke:#000000;stroke-linecap:square;stroke-linejoin:miter;stroke-width:0.8;"/>
   </g>
   <g id="patch_5">
    <path d="M 172.44 409.4712 
L 1241.568 409.4712 
" style="fill:none;stroke:#000000;stroke-linecap:square;stroke-linejoin:miter;stroke-width:0.8;"/>
   </g>
   <g id="patch_6">
    <path d="M 172.44 55.2096 
L 1241.568 55.2096 
" style="fill:none;stroke:#000000;stroke-linecap:square;stroke-linejoin:miter;stroke-width:0.8;"/>
   </g>
  </g>
 </g>
 <defs>
  <clipPath id="p98cc41a851">
   <rect height="354.2616" width="1069.128" x="172.44" y="55.2096"/>
  </clipPath>
 </defs>
</svg>
