<?xml version="1.0" encoding="utf-8" standalone="no"?>
<!DOCTYPE svg PUBLIC "-//W3C//DTD SVG 1.1//EN"
  "http://www.w3.org/Graphics/SVG/1.1/DTD/svg11.dtd">
<!-- Created with matplotlib (http://matplotlib.org/) -->
<svg height="467pt" version="1.1" viewBox="0 0 1379 467" width="1379pt" xmlns="http://www.w3.org/2000/svg" xmlns:xlink="http://www.w3.org/1999/xlink">
 <defs>
  <style type="text/css">
*{stroke-linecap:butt;stroke-linejoin:round;}
  </style>
 </defs>
 <g id="figure_1">
  <g id="patch_1">
   <path d="M 0 467.28 
L 1379.52 467.28 
L 1379.52 0 
L 0 0 
z
" style="fill:#ffffff;"/>
  </g>
  <g id="axes_1">
   <g id="patch_2">
    <path d="M 172.44 415.8792 
L 1241.568 415.8792 
L 1241.568 56.0736 
L 172.44 56.0736 
z
" style="fill:#ffffff;"/>
   </g>
   <g id="matplotlib.axis_1">
    <g id="xtick_1">
     <g id="line2d_1">
      <defs>
       <path d="M 0 0 
L 0 3.5 
" id="meda94ff42d" style="stroke:#000000;stroke-width:0.8;"/>
      </defs>
      <g>
       <use style="stroke:#000000;stroke-width:0.8;" x="221.036727" xlink:href="#meda94ff42d" y="415.8792"/>
      </g>
     </g>
     <g id="text_1">
      <!-- −10.0 -->
      <defs>
       <path d="M 10.59375 35.5 
L 73.1875 35.5 
L 73.1875 27.203125 
L 10.59375 27.203125 
z
" id="DejaVuSans-2212"/>
       <path d="M 12.40625 8.296875 
L 28.515625 8.296875 
L 28.515625 63.921875 
L 10.984375 60.40625 
L 10.984375 69.390625 
L 28.421875 72.90625 
L 38.28125 72.90625 
L 38.28125 8.296875 
L 54.390625 8.296875 
L 54.390625 0 
L 12.40625 0 
z
" id="DejaVuSans-31"/>
       <path d="M 31.78125 66.40625 
Q 24.171875 66.40625 20.328125 58.90625 
Q 16.5 51.421875 16.5 36.375 
Q 16.5 21.390625 20.328125 13.890625 
Q 24.171875 6.390625 31.78125 6.390625 
Q 39.453125 6.390625 43.28125 13.890625 
Q 47.125 21.390625 47.125 36.375 
Q 47.125 51.421875 43.28125 58.90625 
Q 39.453125 66.40625 31.78125 66.40625 
M 31.78125 74.21875 
Q 44.046875 74.21875 50.515625 64.515625 
Q 56.984375 54.828125 56.984375 36.375 
Q 56.984375 17.96875 50.515625 8.265625 
Q 44.046875 -1.421875 31.78125 -1.421875 
Q 19.53125 -1.421875 13.0625 8.265625 
Q 6.59375 17.96875 6.59375 36.375 
Q 6.59375 54.828125 13.0625 64.515625 
Q 19.53125 74.21875 31.78125 74.21875 
" id="DejaVuSans-30"/>
       <path d="M 10.6875 12.40625 
L 21 12.40625 
L 21 0 
L 10.6875 0 
z
" id="DejaVuSans-2e"/>
      </defs>
      <g transform="translate(205.714071 430.477638)scale(0.1 -0.1)">
       <use xlink:href="#DejaVuSans-2212"/>
       <use x="83.789062" xlink:href="#DejaVuSans-31"/>
       <use x="147.412109" xlink:href="#DejaVuSans-30"/>
       <use x="211.035156" xlink:href="#DejaVuSans-2e"/>
       <use x="242.822266" xlink:href="#DejaVuSans-30"/>
      </g>
     </g>
    </g>
    <g id="xtick_2">
     <g id="line2d_2">
      <g>
       <use style="stroke:#000000;stroke-width:0.8;" x="342.528545" xlink:href="#meda94ff42d" y="415.8792"/>
      </g>
     </g>
     <g id="text_2">
      <!-- −7.5 -->
      <defs>
       <path d="M 8.203125 72.90625 
L 55.078125 72.90625 
L 55.078125 68.703125 
L 28.609375 0 
L 18.3125 0 
L 43.21875 64.59375 
L 8.203125 64.59375 
z
" id="DejaVuSans-37"/>
       <path d="M 10.796875 72.90625 
L 49.515625 72.90625 
L 49.515625 64.59375 
L 19.828125 64.59375 
L 19.828125 46.734375 
Q 21.96875 47.46875 24.109375 47.828125 
Q 26.265625 48.1875 28.421875 48.1875 
Q 40.625 48.1875 47.75 41.5 
Q 54.890625 34.8125 54.890625 23.390625 
Q 54.890625 11.625 47.5625 5.09375 
Q 40.234375 -1.421875 26.90625 -1.421875 
Q 22.3125 -1.421875 17.546875 -0.640625 
Q 12.796875 0.140625 7.71875 1.703125 
L 7.71875 11.625 
Q 12.109375 9.234375 16.796875 8.0625 
Q 21.484375 6.890625 26.703125 6.890625 
Q 35.15625 6.890625 40.078125 11.328125 
Q 45.015625 15.765625 45.015625 23.390625 
Q 45.015625 31 40.078125 35.4375 
Q 35.15625 39.890625 26.703125 39.890625 
Q 22.75 39.890625 18.8125 39.015625 
Q 14.890625 38.140625 10.796875 36.28125 
z
" id="DejaVuSans-35"/>
      </defs>
      <g transform="translate(330.387139 430.477638)scale(0.1 -0.1)">
       <use xlink:href="#DejaVuSans-2212"/>
       <use x="83.789062" xlink:href="#DejaVuSans-37"/>
       <use x="147.412109" xlink:href="#DejaVuSans-2e"/>
       <use x="179.199219" xlink:href="#DejaVuSans-35"/>
      </g>
     </g>
    </g>
    <g id="xtick_3">
     <g id="line2d_3">
      <g>
       <use style="stroke:#000000;stroke-width:0.8;" x="464.020364" xlink:href="#meda94ff42d" y="415.8792"/>
      </g>
     </g>
     <g id="text_3">
      <!-- −5.0 -->
      <g transform="translate(451.878957 430.477638)scale(0.1 -0.1)">
       <use xlink:href="#DejaVuSans-2212"/>
       <use x="83.789062" xlink:href="#DejaVuSans-35"/>
       <use x="147.412109" xlink:href="#DejaVuSans-2e"/>
       <use x="179.199219" xlink:href="#DejaVuSans-30"/>
      </g>
     </g>
    </g>
    <g id="xtick_4">
     <g id="line2d_4">
      <g>
       <use style="stroke:#000000;stroke-width:0.8;" x="585.512182" xlink:href="#meda94ff42d" y="415.8792"/>
      </g>
     </g>
     <g id="text_4">
      <!-- −2.5 -->
      <defs>
       <path d="M 19.1875 8.296875 
L 53.609375 8.296875 
L 53.609375 0 
L 7.328125 0 
L 7.328125 8.296875 
Q 12.9375 14.109375 22.625 23.890625 
Q 32.328125 33.6875 34.8125 36.53125 
Q 39.546875 41.84375 41.421875 45.53125 
Q 43.3125 49.21875 43.3125 52.78125 
Q 43.3125 58.59375 39.234375 62.25 
Q 35.15625 65.921875 28.609375 65.921875 
Q 23.96875 65.921875 18.8125 64.3125 
Q 13.671875 62.703125 7.8125 59.421875 
L 7.8125 69.390625 
Q 13.765625 71.78125 18.9375 73 
Q 24.125 74.21875 28.421875 74.21875 
Q 39.75 74.21875 46.484375 68.546875 
Q 53.21875 62.890625 53.21875 53.421875 
Q 53.21875 48.921875 51.53125 44.890625 
Q 49.859375 40.875 45.40625 35.40625 
Q 44.1875 33.984375 37.640625 27.21875 
Q 31.109375 20.453125 19.1875 8.296875 
" id="DejaVuSans-32"/>
      </defs>
      <g transform="translate(573.370776 430.477638)scale(0.1 -0.1)">
       <use xlink:href="#DejaVuSans-2212"/>
       <use x="83.789062" xlink:href="#DejaVuSans-32"/>
       <use x="147.412109" xlink:href="#DejaVuSans-2e"/>
       <use x="179.199219" xlink:href="#DejaVuSans-35"/>
      </g>
     </g>
    </g>
    <g id="xtick_5">
     <g id="line2d_5">
      <g>
       <use style="stroke:#000000;stroke-width:0.8;" x="707.004" xlink:href="#meda94ff42d" y="415.8792"/>
      </g>
     </g>
     <g id="text_5">
      <!-- 0.0 -->
      <g transform="translate(699.052437 430.477638)scale(0.1 -0.1)">
       <use xlink:href="#DejaVuSans-30"/>
       <use x="63.623047" xlink:href="#DejaVuSans-2e"/>
       <use x="95.410156" xlink:href="#DejaVuSans-30"/>
      </g>
     </g>
    </g>
    <g id="xtick_6">
     <g id="line2d_6">
      <g>
       <use style="stroke:#000000;stroke-width:0.8;" x="828.495818" xlink:href="#meda94ff42d" y="415.8792"/>
      </g>
     </g>
     <g id="text_6">
      <!-- 2.5 -->
      <g transform="translate(820.544256 430.477638)scale(0.1 -0.1)">
       <use xlink:href="#DejaVuSans-32"/>
       <use x="63.623047" xlink:href="#DejaVuSans-2e"/>
       <use x="95.410156" xlink:href="#DejaVuSans-35"/>
      </g>
     </g>
    </g>
    <g id="xtick_7">
     <g id="line2d_7">
      <g>
       <use style="stroke:#000000;stroke-width:0.8;" x="949.987636" xlink:href="#meda94ff42d" y="415.8792"/>
      </g>
     </g>
     <g id="text_7">
      <!-- 5.0 -->
      <g transform="translate(942.036074 430.477638)scale(0.1 -0.1)">
       <use xlink:href="#DejaVuSans-35"/>
       <use x="63.623047" xlink:href="#DejaVuSans-2e"/>
       <use x="95.410156" xlink:href="#DejaVuSans-30"/>
      </g>
     </g>
    </g>
    <g id="xtick_8">
     <g id="line2d_8">
      <g>
       <use style="stroke:#000000;stroke-width:0.8;" x="1071.479455" xlink:href="#meda94ff42d" y="415.8792"/>
      </g>
     </g>
     <g id="text_8">
      <!-- 7.5 -->
      <g transform="translate(1063.527892 430.477638)scale(0.1 -0.1)">
       <use xlink:href="#DejaVuSans-37"/>
       <use x="63.623047" xlink:href="#DejaVuSans-2e"/>
       <use x="95.410156" xlink:href="#DejaVuSans-35"/>
      </g>
     </g>
    </g>
    <g id="xtick_9">
     <g id="line2d_9">
      <g>
       <use style="stroke:#000000;stroke-width:0.8;" x="1192.971273" xlink:href="#meda94ff42d" y="415.8792"/>
      </g>
     </g>
     <g id="text_9">
      <!-- 10.0 -->
      <g transform="translate(1181.83846 430.477638)scale(0.1 -0.1)">
       <use xlink:href="#DejaVuSans-31"/>
       <use x="63.623047" xlink:href="#DejaVuSans-30"/>
       <use x="127.246094" xlink:href="#DejaVuSans-2e"/>
       <use x="159.033203" xlink:href="#DejaVuSans-30"/>
      </g>
     </g>
    </g>
   </g>
   <g id="matplotlib.axis_2">
    <g id="ytick_1">
     <g id="line2d_10">
      <defs>
       <path d="M 0 0 
L -3.5 0 
" id="mcb7070add5" style="stroke:#000000;stroke-width:0.8;"/>
      </defs>
      <g>
       <use style="stroke:#000000;stroke-width:0.8;" x="172.44" xlink:href="#mcb7070add5" y="415.8792"/>
      </g>
     </g>
     <g id="text_10">
      <!-- −2.0 -->
      <g transform="translate(141.157187 419.678419)scale(0.1 -0.1)">
       <use xlink:href="#DejaVuSans-2212"/>
       <use x="83.789062" xlink:href="#DejaVuSans-32"/>
       <use x="147.412109" xlink:href="#DejaVuSans-2e"/>
       <use x="179.199219" xlink:href="#DejaVuSans-30"/>
      </g>
     </g>
    </g>
    <g id="ytick_2">
     <g id="line2d_11">
      <g>
       <use style="stroke:#000000;stroke-width:0.8;" x="172.44" xlink:href="#mcb7070add5" y="370.9035"/>
      </g>
     </g>
     <g id="text_11">
      <!-- −1.5 -->
      <g transform="translate(141.157187 374.702719)scale(0.1 -0.1)">
       <use xlink:href="#DejaVuSans-2212"/>
       <use x="83.789062" xlink:href="#DejaVuSans-31"/>
       <use x="147.412109" xlink:href="#DejaVuSans-2e"/>
       <use x="179.199219" xlink:href="#DejaVuSans-35"/>
      </g>
     </g>
    </g>
    <g id="ytick_3">
     <g id="line2d_12">
      <g>
       <use style="stroke:#000000;stroke-width:0.8;" x="172.44" xlink:href="#mcb7070add5" y="325.9278"/>
      </g>
     </g>
     <g id="text_12">
      <!-- −1.0 -->
      <g transform="translate(141.157187 329.727019)scale(0.1 -0.1)">
       <use xlink:href="#DejaVuSans-2212"/>
       <use x="83.789062" xlink:href="#DejaVuSans-31"/>
       <use x="147.412109" xlink:href="#DejaVuSans-2e"/>
       <use x="179.199219" xlink:href="#DejaVuSans-30"/>
      </g>
     </g>
    </g>
    <g id="ytick_4">
     <g id="line2d_13">
      <g>
       <use style="stroke:#000000;stroke-width:0.8;" x="172.44" xlink:href="#mcb7070add5" y="280.9521"/>
      </g>
     </g>
     <g id="text_13">
      <!-- −0.5 -->
      <g transform="translate(141.157187 284.751319)scale(0.1 -0.1)">
       <use xlink:href="#DejaVuSans-2212"/>
       <use x="83.789062" xlink:href="#DejaVuSans-30"/>
       <use x="147.412109" xlink:href="#DejaVuSans-2e"/>
       <use x="179.199219" xlink:href="#DejaVuSans-35"/>
      </g>
     </g>
    </g>
    <g id="ytick_5">
     <g id="line2d_14">
      <g>
       <use style="stroke:#000000;stroke-width:0.8;" x="172.44" xlink:href="#mcb7070add5" y="235.9764"/>
      </g>
     </g>
     <g id="text_14">
      <!-- 0.0 -->
      <g transform="translate(149.536875 239.775619)scale(0.1 -0.1)">
       <use xlink:href="#DejaVuSans-30"/>
       <use x="63.623047" xlink:href="#DejaVuSans-2e"/>
       <use x="95.410156" xlink:href="#DejaVuSans-30"/>
      </g>
     </g>
    </g>
    <g id="ytick_6">
     <g id="line2d_15">
      <g>
       <use style="stroke:#000000;stroke-width:0.8;" x="172.44" xlink:href="#mcb7070add5" y="191.0007"/>
      </g>
     </g>
     <g id="text_15">
      <!-- 0.5 -->
      <g transform="translate(149.536875 194.799919)scale(0.1 -0.1)">
       <use xlink:href="#DejaVuSans-30"/>
       <use x="63.623047" xlink:href="#DejaVuSans-2e"/>
       <use x="95.410156" xlink:href="#DejaVuSans-35"/>
      </g>
     </g>
    </g>
    <g id="ytick_7">
     <g id="line2d_16">
      <g>
       <use style="stroke:#000000;stroke-width:0.8;" x="172.44" xlink:href="#mcb7070add5" y="146.025"/>
      </g>
     </g>
     <g id="text_16">
      <!-- 1.0 -->
      <g transform="translate(149.536875 149.824219)scale(0.1 -0.1)">
       <use xlink:href="#DejaVuSans-31"/>
       <use x="63.623047" xlink:href="#DejaVuSans-2e"/>
       <use x="95.410156" xlink:href="#DejaVuSans-30"/>
      </g>
     </g>
    </g>
    <g id="ytick_8">
     <g id="line2d_17">
      <g>
       <use style="stroke:#000000;stroke-width:0.8;" x="172.44" xlink:href="#mcb7070add5" y="101.0493"/>
      </g>
     </g>
     <g id="text_17">
      <!-- 1.5 -->
      <g transform="translate(149.536875 104.848519)scale(0.1 -0.1)">
       <use xlink:href="#DejaVuSans-31"/>
       <use x="63.623047" xlink:href="#DejaVuSans-2e"/>
       <use x="95.410156" xlink:href="#DejaVuSans-35"/>
      </g>
     </g>
    </g>
    <g id="ytick_9">
     <g id="line2d_18">
      <g>
       <use style="stroke:#000000;stroke-width:0.8;" x="172.44" xlink:href="#mcb7070add5" y="56.0736"/>
      </g>
     </g>
     <g id="text_18">
      <!-- 2.0 -->
      <g transform="translate(149.536875 59.872819)scale(0.1 -0.1)">
       <use xlink:href="#DejaVuSans-32"/>
       <use x="63.623047" xlink:href="#DejaVuSans-2e"/>
       <use x="95.410156" xlink:href="#DejaVuSans-30"/>
      </g>
     </g>
    </g>
   </g>
   <g id="line2d_19">
    <path clip-path="url(#p15f9edea43)" d="M 221.036727 311.452059 
L 224.848235 315.054176 
L 228.659743 318.170097 
L 232.471251 320.780664 
L 236.282759 322.869827 
L 240.094267 324.42474 
L 243.905775 325.435845 
L 247.717283 325.896923 
L 251.528791 325.80514 
L 255.340299 325.161061 
L 259.151807 323.968646 
L 262.963316 322.235225 
L 266.774824 319.971457 
L 270.586332 317.19126 
L 274.39784 313.911727 
L 278.209348 310.153022 
L 282.020856 305.938255 
L 285.832364 301.29334 
L 289.643872 296.246834 
L 293.45538 290.829767 
L 297.266888 285.075443 
L 301.078396 279.019242 
L 304.889904 272.698399 
L 312.51292 259.419628 
L 320.135936 245.565197 
L 335.381968 217.495945 
L 343.004984 203.970379 
L 346.816492 197.482221 
L 350.628 191.230738 
L 354.439508 185.254366 
L 358.251016 179.589849 
L 362.062524 174.272015 
L 365.874032 169.33356 
L 369.68554 164.804847 
L 373.497048 160.713721 
L 377.308556 157.085333 
L 381.120064 153.941994 
L 384.931572 151.303029 
L 388.74308 149.184664 
L 392.554588 147.599923 
L 396.366096 146.558549 
L 400.177604 146.066946 
L 403.989112 146.128135 
L 407.80062 146.741741 
L 411.612128 147.903991 
L 415.423636 149.607738 
L 419.235144 151.842509 
L 423.046652 154.594562 
L 426.85816 157.846978 
L 430.669668 161.579759 
L 434.481176 165.769954 
L 438.292684 170.391802 
L 442.104193 175.416886 
L 445.915701 180.814309 
L 449.727209 186.550887 
L 453.538717 192.591349 
L 457.350225 198.898556 
L 464.973241 212.156691 
L 472.596257 225.999731 
L 487.842289 254.074819 
L 495.465305 267.617469 
L 499.276813 274.117565 
L 503.088321 280.383156 
L 506.899829 286.37572 
L 510.711337 292.058413 
L 514.522845 297.396295 
L 518.334353 302.356548 
L 522.145861 306.908673 
L 525.957369 311.024684 
L 529.768877 314.679273 
L 533.580385 317.849972 
L 537.391893 320.517284 
L 541.203401 322.664812 
L 545.014909 324.279351 
L 548.826417 325.350975 
L 552.637925 325.873094 
L 556.449433 325.842499 
L 560.260941 325.259378 
L 564.072449 324.127316 
L 567.883957 322.453273 
L 571.695465 320.247542 
L 575.506973 317.523684 
L 579.318481 314.298447 
L 583.129989 310.591661 
L 586.941497 306.426115 
L 590.753005 301.827422 
L 594.564513 296.823855 
L 598.376021 291.446177 
L 602.187529 285.727454 
L 605.999037 279.702844 
L 609.810545 273.409391 
L 617.433561 260.172141 
L 625.056578 246.340753 
L 644.114118 211.405082 
L 651.737134 198.188967 
L 655.548642 191.909385 
L 659.36015 185.900742 
L 663.171658 180.19998 
L 666.983166 174.84215 
L 670.794674 169.860193 
L 674.606182 165.284741 
L 678.41769 161.143924 
L 682.229198 157.463201 
L 686.040706 154.265203 
L 689.852214 151.569593 
L 693.663722 149.392943 
L 697.47523 147.748637 
L 701.286738 146.646783 
L 705.098246 146.094158 
L 708.909754 146.094158 
L 712.721262 146.646783 
L 716.53277 147.748637 
L 720.344278 149.392943 
L 724.155786 151.569593 
L 727.967294 154.265203 
L 731.778802 157.463201 
L 735.59031 161.143924 
L 739.401818 165.284741 
L 743.213326 169.860193 
L 747.024834 174.84215 
L 750.836342 180.19998 
L 754.64785 185.900742 
L 758.459358 191.909385 
L 762.270866 198.188967 
L 769.893882 211.405082 
L 777.516898 225.224557 
L 796.574439 260.172141 
L 804.197455 273.409391 
L 808.008963 279.702844 
L 811.820471 285.727454 
L 815.631979 291.446177 
L 819.443487 296.823855 
L 823.254995 301.827422 
L 827.066503 306.426115 
L 830.878011 310.591661 
L 834.689519 314.298447 
L 838.501027 317.523684 
L 842.312535 320.247542 
L 846.124043 322.453273 
L 849.935551 324.127316 
L 853.747059 325.259378 
L 857.558567 325.842499 
L 861.370075 325.873094 
L 865.181583 325.350975 
L 868.993091 324.279351 
L 872.804599 322.664812 
L 876.616107 320.517284 
L 880.427615 317.849972 
L 884.239123 314.679273 
L 888.050631 311.024684 
L 891.862139 306.908673 
L 895.673647 302.356548 
L 899.485155 297.396295 
L 903.296663 292.058413 
L 907.108171 286.37572 
L 910.919679 280.383156 
L 914.731187 274.117565 
L 922.354203 260.922833 
L 929.977219 247.11553 
L 949.034759 212.156691 
L 956.657775 198.898556 
L 960.469283 192.591349 
L 964.280791 186.550887 
L 968.092299 180.814309 
L 971.903807 175.416886 
L 975.715316 170.391802 
L 979.526824 165.769954 
L 983.338332 161.579759 
L 987.14984 157.846978 
L 990.961348 154.594562 
L 994.772856 151.842509 
L 998.584364 149.607738 
L 1002.395872 147.903991 
L 1006.20738 146.741741 
L 1010.018888 146.128135 
L 1013.830396 146.066946 
L 1017.641904 146.558549 
L 1021.453412 147.599923 
L 1025.26492 149.184664 
L 1029.076428 151.303029 
L 1032.887936 153.941994 
L 1036.699444 157.085333 
L 1040.510952 160.713721 
L 1044.32246 164.804847 
L 1048.133968 169.33356 
L 1051.945476 174.272015 
L 1055.756984 179.589849 
L 1059.568492 185.254366 
L 1063.38 191.230738 
L 1067.191508 197.482221 
L 1074.814524 210.655321 
L 1082.43754 224.450193 
L 1101.49508 259.419628 
L 1109.118096 272.698399 
L 1112.929604 279.019242 
L 1116.741112 285.075443 
L 1120.55262 290.829767 
L 1124.364128 296.246834 
L 1128.175636 301.29334 
L 1131.987144 305.938255 
L 1135.798652 310.153022 
L 1139.61016 313.911727 
L 1143.421668 317.19126 
L 1147.233176 319.971457 
L 1151.044684 322.235225 
L 1154.856193 323.968646 
L 1158.667701 325.161061 
L 1162.479209 325.80514 
L 1166.290717 325.896923 
L 1170.102225 325.435845 
L 1173.913733 324.42474 
L 1177.725241 322.869827 
L 1181.536749 320.780664 
L 1185.348257 318.170097 
L 1189.159765 315.054176 
L 1192.971273 311.452059 
L 1192.971273 311.452059 
" style="fill:none;stroke:#1f77b4;stroke-linecap:square;stroke-width:1.5;"/>
   </g>
   <g id="line2d_20">
    <path clip-path="url(#p15f9edea43)" d="M 221.036727 146.025 
L 1192.971273 146.025 
L 1192.971273 146.025 
" style="fill:none;stroke:#ff7f0e;stroke-linecap:square;stroke-width:1.5;"/>
   </g>
   <g id="line2d_21">
    <path clip-path="url(#p15f9edea43)" d="M 576.934878 468.28 
L 583.129989 438.254654 
L 586.941497 420.547958 
L 590.753005 403.394596 
L 594.564513 386.794568 
L 598.376021 370.747875 
L 602.187529 355.254516 
L 605.999037 340.314491 
L 609.810545 325.9278 
L 613.622053 312.094444 
L 617.433561 298.814421 
L 621.24507 286.087734 
L 625.056578 273.91438 
L 628.868086 262.294361 
L 632.679594 251.227675 
L 636.491102 240.714325 
L 640.30261 230.754308 
L 644.114118 221.347626 
L 647.925626 212.494278 
L 651.737134 204.194264 
L 655.548642 196.447584 
L 659.36015 189.254239 
L 663.171658 182.614228 
L 666.983166 176.527551 
L 670.794674 170.994208 
L 674.606182 166.0142 
L 678.41769 161.587526 
L 682.229198 157.714186 
L 686.040706 154.394181 
L 689.852214 151.627509 
L 693.663722 149.414172 
L 697.47523 147.75417 
L 701.286738 146.647501 
L 705.098246 146.094167 
L 708.909754 146.094167 
L 712.721262 146.647501 
L 716.53277 147.75417 
L 720.344278 149.414172 
L 724.155786 151.627509 
L 727.967294 154.394181 
L 731.778802 157.714186 
L 735.59031 161.587526 
L 739.401818 166.0142 
L 743.213326 170.994208 
L 747.024834 176.527551 
L 750.836342 182.614228 
L 754.64785 189.254239 
L 758.459358 196.447584 
L 762.270866 204.194264 
L 766.082374 212.494278 
L 769.893882 221.347626 
L 773.70539 230.754308 
L 777.516898 240.714325 
L 781.328406 251.227675 
L 785.139914 262.294361 
L 788.951422 273.91438 
L 792.76293 286.087734 
L 796.574439 298.814421 
L 800.385947 312.094444 
L 804.197455 325.9278 
L 808.008963 340.314491 
L 811.820471 355.254516 
L 815.631979 370.747875 
L 819.443487 386.794568 
L 823.254995 403.394596 
L 827.066503 420.547958 
L 830.878011 438.254654 
L 837.073122 468.28 
L 837.073122 468.28 
" style="fill:none;stroke:#2ca02c;stroke-linecap:square;stroke-width:1.5;"/>
   </g>
   <g id="line2d_22">
    <path clip-path="url(#p15f9edea43)" d="M 520.888017 -1 
L 522.145861 12.080473 
L 525.957369 48.266534 
L 529.768877 81.165705 
L 533.580385 110.937967 
L 537.391893 137.739896 
L 541.203401 161.724663 
L 545.014909 183.042037 
L 548.826417 201.838383 
L 552.637925 218.25666 
L 556.449433 232.436427 
L 560.260941 244.513835 
L 564.072449 254.621634 
L 567.883957 262.88917 
L 571.695465 269.442384 
L 575.506973 274.403813 
L 579.318481 277.892591 
L 583.129989 280.024449 
L 586.941497 280.911713 
L 590.753005 280.663305 
L 594.564513 279.384743 
L 598.376021 277.178143 
L 602.187529 274.142215 
L 605.999037 270.372266 
L 609.810545 265.9602 
L 613.622053 260.994516 
L 617.433561 255.56031 
L 621.24507 249.739273 
L 625.056578 243.609694 
L 632.679594 230.721041 
L 647.925626 204.30807 
L 655.548642 191.736824 
L 659.36015 185.791689 
L 663.171658 180.133682 
L 666.983166 174.803647 
L 670.794674 169.839026 
L 674.606182 165.273859 
L 678.41769 161.13878 
L 682.229198 157.461018 
L 686.040706 154.264401 
L 689.852214 151.569352 
L 693.663722 149.39289 
L 697.47523 147.748629 
L 701.286738 146.646783 
L 705.098246 146.094158 
L 708.909754 146.094158 
L 712.721262 146.646783 
L 716.53277 147.748629 
L 720.344278 149.39289 
L 724.155786 151.569352 
L 727.967294 154.264401 
L 731.778802 157.461018 
L 735.59031 161.13878 
L 739.401818 165.273859 
L 743.213326 169.839026 
L 747.024834 174.803647 
L 750.836342 180.133682 
L 754.64785 185.791689 
L 758.459358 191.736824 
L 766.082374 204.30807 
L 777.516898 224.101524 
L 785.139914 237.246457 
L 788.951422 243.609694 
L 792.76293 249.739273 
L 796.574439 255.56031 
L 800.385947 260.994516 
L 804.197455 265.9602 
L 808.008963 270.372266 
L 811.820471 274.142215 
L 815.631979 277.178143 
L 819.443487 279.384743 
L 823.254995 280.663305 
L 827.066503 280.911713 
L 830.878011 280.024449 
L 834.689519 277.892591 
L 838.501027 274.403813 
L 842.312535 269.442384 
L 846.124043 262.88917 
L 849.935551 254.621634 
L 853.747059 244.513835 
L 857.558567 232.436427 
L 861.370075 218.25666 
L 865.181583 201.838383 
L 868.993091 183.042037 
L 872.804599 161.724663 
L 876.616107 137.739896 
L 880.427615 110.937967 
L 884.239123 81.165705 
L 888.050631 48.266534 
L 891.862139 12.080473 
L 893.119983 -1 
L 893.119983 -1 
" style="fill:none;stroke:#d62728;stroke-linecap:square;stroke-width:1.5;"/>
   </g>
   <g id="line2d_23">
    <path clip-path="url(#p15f9edea43)" d="M 501.182006 468.28 
L 503.088321 457.934904 
L 506.899829 440.082496 
L 510.711337 424.722499 
L 514.522845 411.541088 
L 518.334353 400.248804 
L 522.145861 390.579488 
L 525.957369 382.289232 
L 529.768877 375.155354 
L 533.580385 368.975394 
L 537.391893 363.566127 
L 541.203401 358.762605 
L 545.014909 354.417209 
L 548.826417 350.398729 
L 556.449433 342.894356 
L 564.072449 335.494332 
L 567.883957 331.654813 
L 571.695465 327.65062 
L 575.506973 323.441377 
L 579.318481 318.996504 
L 583.129989 314.294479 
L 586.941497 309.322132 
L 590.753005 304.073948 
L 594.564513 298.551402 
L 598.376021 292.762306 
L 602.187529 286.720183 
L 609.810545 273.95588 
L 617.433561 260.458341 
L 628.868086 239.404884 
L 640.30261 218.287878 
L 647.925626 204.711348 
L 651.737134 198.19512 
L 655.548642 191.912866 
L 659.36015 185.902626 
L 663.171658 180.200948 
L 666.983166 174.842618 
L 670.794674 169.860404 
L 674.606182 165.284827 
L 678.41769 161.143955 
L 682.229198 157.463211 
L 686.040706 154.265206 
L 689.852214 151.569593 
L 693.663722 149.392943 
L 697.47523 147.748637 
L 701.286738 146.646783 
L 705.098246 146.094158 
L 708.909754 146.094158 
L 712.721262 146.646783 
L 716.53277 147.748637 
L 720.344278 149.392943 
L 724.155786 151.569593 
L 727.967294 154.265206 
L 731.778802 157.463211 
L 735.59031 161.143955 
L 739.401818 165.284827 
L 743.213326 169.860404 
L 747.024834 174.842618 
L 750.836342 180.200948 
L 754.64785 185.902626 
L 758.459358 191.912866 
L 762.270866 198.19512 
L 769.893882 211.422309 
L 777.516898 225.267379 
L 796.574439 260.458341 
L 804.197455 273.95588 
L 811.820471 286.720183 
L 815.631979 292.762306 
L 819.443487 298.551402 
L 823.254995 304.073948 
L 827.066503 309.322132 
L 830.878011 314.294479 
L 834.689519 318.996504 
L 838.501027 323.441377 
L 842.312535 327.65062 
L 846.124043 331.654813 
L 853.747059 339.220098 
L 861.370075 346.591467 
L 865.181583 350.398729 
L 868.993091 354.417209 
L 872.804599 358.762605 
L 876.616107 363.566127 
L 880.427615 368.975394 
L 884.239123 375.155354 
L 888.050631 382.289232 
L 891.862139 390.579488 
L 895.673647 400.248804 
L 899.485155 411.541088 
L 903.296663 424.722499 
L 907.108171 440.082496 
L 910.919679 457.934904 
L 912.825994 468.28 
L 912.825994 468.28 
" style="fill:none;stroke:#9467bd;stroke-linecap:square;stroke-width:1.5;"/>
   </g>
   <g id="line2d_24">
    <path clip-path="url(#p15f9edea43)" d="M 348.99622 468.28 
L 350.628 445.816513 
L 354.439508 400.32286 
L 358.251016 360.930361 
L 362.062524 326.877562 
L 365.874032 297.503062 
L 369.68554 272.233172 
L 373.497048 250.570909 
L 377.308556 232.086199 
L 381.120064 216.407168 
L 384.931572 203.212417 
L 388.74308 192.224182 
L 392.554588 183.202292 
L 396.366096 175.938834 
L 400.177604 170.253467 
L 403.989112 165.989307 
L 407.80062 163.009328 
L 411.612128 161.193225 
L 415.423636 160.434683 
L 419.235144 160.639021 
L 423.046652 161.721155 
L 426.85816 163.603858 
L 430.669668 166.216276 
L 434.481176 169.492673 
L 438.292684 173.371381 
L 442.104193 177.793927 
L 445.915701 182.704325 
L 449.727209 188.048496 
L 453.538717 193.773823 
L 457.350225 199.828804 
L 461.161733 206.162804 
L 468.784749 219.468698 
L 480.219273 240.290638 
L 491.653797 261.012096 
L 499.276813 274.167927 
L 503.088321 280.420682 
L 506.899829 286.403525 
L 510.711337 292.078894 
L 514.522845 297.411291 
L 518.334353 302.367458 
L 522.145861 306.916559 
L 525.957369 311.030345 
L 529.768877 314.683308 
L 533.580385 317.852826 
L 537.391893 320.519288 
L 541.203401 322.666208 
L 545.014909 324.280315 
L 548.826417 325.351634 
L 552.637925 325.873541 
L 556.449433 325.842799 
L 560.260941 325.259577 
L 564.072449 324.127447 
L 567.883957 322.453358 
L 571.695465 320.247597 
L 575.506973 317.523719 
L 579.318481 314.298469 
L 583.129989 310.591674 
L 586.941497 306.426123 
L 590.753005 301.827427 
L 594.564513 296.823857 
L 598.376021 291.446179 
L 602.187529 285.727455 
L 605.999037 279.702845 
L 609.810545 273.409391 
L 617.433561 260.172141 
L 625.056578 246.340753 
L 644.114118 211.405082 
L 651.737134 198.188967 
L 655.548642 191.909385 
L 659.36015 185.900742 
L 663.171658 180.19998 
L 666.983166 174.84215 
L 670.794674 169.860193 
L 674.606182 165.284741 
L 678.41769 161.143924 
L 682.229198 157.463201 
L 686.040706 154.265203 
L 689.852214 151.569593 
L 693.663722 149.392943 
L 697.47523 147.748637 
L 701.286738 146.646783 
L 705.098246 146.094158 
L 708.909754 146.094158 
L 712.721262 146.646783 
L 716.53277 147.748637 
L 720.344278 149.392943 
L 724.155786 151.569593 
L 727.967294 154.265203 
L 731.778802 157.463201 
L 735.59031 161.143924 
L 739.401818 165.284741 
L 743.213326 169.860193 
L 747.024834 174.84215 
L 750.836342 180.19998 
L 754.64785 185.900742 
L 758.459358 191.909385 
L 762.270866 198.188967 
L 769.893882 211.405082 
L 777.516898 225.224557 
L 796.574439 260.172141 
L 804.197455 273.409391 
L 808.008963 279.702845 
L 811.820471 285.727455 
L 815.631979 291.446179 
L 819.443487 296.823857 
L 823.254995 301.827427 
L 827.066503 306.426123 
L 830.878011 310.591674 
L 834.689519 314.298469 
L 838.501027 317.523719 
L 842.312535 320.247597 
L 846.124043 322.453358 
L 849.935551 324.127447 
L 853.747059 325.259577 
L 857.558567 325.842799 
L 861.370075 325.873541 
L 865.181583 325.351634 
L 868.993091 324.280315 
L 872.804599 322.666208 
L 876.616107 320.519288 
L 880.427615 317.852826 
L 884.239123 314.683308 
L 888.050631 311.030345 
L 891.862139 306.916559 
L 895.673647 302.367458 
L 899.485155 297.411291 
L 903.296663 292.078894 
L 907.108171 286.403525 
L 910.919679 280.420682 
L 914.731187 274.167927 
L 922.354203 261.012096 
L 929.977219 247.270575 
L 945.223251 219.468698 
L 952.846267 206.162804 
L 956.657775 199.828804 
L 960.469283 193.773823 
L 964.280791 188.048496 
L 968.092299 182.704325 
L 971.903807 177.793927 
L 975.715316 173.371381 
L 979.526824 169.492673 
L 983.338332 166.216276 
L 987.14984 163.603858 
L 990.961348 161.721155 
L 994.772856 160.639021 
L 998.584364 160.434683 
L 1002.395872 161.193225 
L 1006.20738 163.009328 
L 1010.018888 165.989307 
L 1013.830396 170.253467 
L 1017.641904 175.938834 
L 1021.453412 183.202292 
L 1025.26492 192.224182 
L 1029.076428 203.212417 
L 1032.887936 216.407168 
L 1036.699444 232.086199 
L 1040.510952 250.570909 
L 1044.32246 272.233172 
L 1048.133968 297.503062 
L 1051.945476 326.877562 
L 1055.756984 360.930361 
L 1059.568492 400.32286 
L 1063.38 445.816513 
L 1065.01178 468.28 
L 1065.01178 468.28 
" style="fill:none;stroke:#8c564b;stroke-linecap:square;stroke-width:1.5;"/>
   </g>
   <g id="patch_3">
    <path d="M 172.44 415.8792 
L 172.44 56.0736 
" style="fill:none;stroke:#000000;stroke-linecap:square;stroke-linejoin:miter;stroke-width:0.8;"/>
   </g>
   <g id="patch_4">
    <path d="M 1241.568 415.8792 
L 1241.568 56.0736 
" style="fill:none;stroke:#000000;stroke-linecap:square;stroke-linejoin:miter;stroke-width:0.8;"/>
   </g>
   <g id="patch_5">
    <path d="M 172.44 415.8792 
L 1241.568 415.8792 
" style="fill:none;stroke:#000000;stroke-linecap:square;stroke-linejoin:miter;stroke-width:0.8;"/>
   </g>
   <g id="patch_6">
    <path d="M 172.44 56.0736 
L 1241.568 56.0736 
" style="fill:none;stroke:#000000;stroke-linecap:square;stroke-linejoin:miter;stroke-width:0.8;"/>
   </g>
  </g>
 </g>
 <defs>
  <clipPath id="p15f9edea43">
   <rect height="359.8056" width="1069.128" x="172.44" y="56.0736"/>
  </clipPath>
 </defs>
</svg>
